<svg width="149" height="128" viewBox="0 0 149 128" fill="none" xmlns="http://www.w3.org/2000/svg">
<path d="M140.976 34.0223C132.479 17.8072 116.35 6.5717 98.9865 2.31483C82.4099 -1.74376 62.4528 -1.54547 49.9764 11.8264C41.7601 20.6312 38.4627 32.8901 31.2187 42.3985C27.6142 47.1256 23.1047 49.2876 18.3809 52.5946C6.87356 60.6574 -1.59222 73.6327 0.253175 88.3063C3.35548 112.84 25.7369 126.017 48.227 127.498C77.9516 129.452 99.1496 125.48 117.156 113.972C126.511 107.995 135.837 100.901 141.546 91.0856C150.181 76.2425 149.826 57.5199 144.242 41.583C143.336 38.9875 142.245 36.4608 140.976 34.0223V34.0223Z" fill="#746EE9" fill-opacity="0.07"/>
<path d="M34.1701 34.8532C37.0719 34.8532 39.4243 32.5009 39.4243 29.5991C39.4243 26.6973 37.0719 24.345 34.1701 24.345C31.2684 24.345 28.916 26.6973 28.916 29.5991C28.916 32.5009 31.2684 34.8532 34.1701 34.8532Z" fill="#746EE9"/>
<path d="M109.285 17.1099C111.631 17.7051 113.621 18.8103 114.675 21.11C115.098 21.9432 115.353 22.8519 115.423 23.7838C115.504 27.9752 115.665 32.1836 115.423 36.3623C115.181 40.5409 112.158 43.0957 107.95 43.1637C107.576 43.1637 107.202 43.1637 106.828 43.1637C87.5257 43.1637 68.2224 43.1637 48.9176 43.1637C48.5192 43.1221 48.1174 43.1992 47.7627 43.3852C47.408 43.5713 47.1162 43.858 46.9239 44.2094C45.6487 46.2074 44.3139 48.1415 42.9748 50.0842C41.9121 51.6273 40.6751 51.6188 39.6039 50.0842C38.2266 48.0778 36.8535 46.0671 35.5315 44.0224C35.3866 43.7454 35.1635 43.5172 34.8899 43.366C34.6163 43.2148 34.3043 43.1474 33.9927 43.1722C31.5596 43.2637 29.1234 43.2297 26.6939 43.0702C22.9403 42.7174 20.6151 40.2646 20.1432 36.5281C20.102 36.3516 20.0407 36.1804 19.9604 36.0179V24.311C20.1665 23.3008 20.4435 22.3065 20.7894 21.3353C21.8181 18.9463 23.8415 17.7518 26.2603 17.1184L109.285 17.1099ZM41.2702 46.5474C42.4987 44.7365 43.6677 43.1467 44.6965 41.4464C45.4531 40.2263 46.4096 39.8013 47.8336 39.8013C67.7052 39.8409 87.581 39.8494 107.461 39.8268C110.641 39.8268 112.137 38.3262 112.137 35.1508C112.137 31.75 112.137 28.3238 112.137 24.9146C112.137 22.0622 110.581 20.5106 107.763 20.5106C81.0955 20.5106 54.431 20.5106 27.7694 20.5106C24.9765 20.5106 23.4334 22.007 23.4037 24.7956C23.3697 28.3578 23.3697 31.9215 23.4037 35.4866C23.4462 38.3007 24.9935 39.8013 27.8544 39.8013C30.2901 39.8013 32.7302 39.8353 35.1659 39.8013C35.65 39.7606 36.1355 39.8591 36.5655 40.085C36.9955 40.3109 37.352 40.6549 37.5932 41.0765C38.7537 42.8789 39.9737 44.6303 41.2745 46.5474H41.2702Z" fill="black"/>
<path d="M65.6616 23.8561H85.1095C85.4827 23.8382 85.8567 23.8524 86.2275 23.8986C86.6072 23.942 86.9581 24.1221 87.2147 24.4053C87.4713 24.6885 87.616 25.0554 87.6218 25.4375C87.6648 25.8163 87.5649 26.1975 87.3416 26.5065C87.1183 26.8155 86.7877 27.03 86.4145 27.1081C86.0135 27.2017 85.6017 27.2404 85.1903 27.2229C72.1542 27.2229 59.118 27.2229 46.0819 27.2229C45.7085 27.2383 45.3345 27.2083 44.9682 27.1336C44.595 27.0667 44.2592 26.8654 44.0242 26.5678C43.7892 26.2702 43.6714 25.8968 43.6929 25.5182C43.6804 25.1173 43.8211 24.7265 44.0864 24.4257C44.3518 24.1248 44.7218 23.9363 45.1212 23.8986C45.4934 23.8524 45.8689 23.8382 46.2435 23.8561H65.6616Z" fill="black"/>
<path d="M65.6869 31.9498H85.0201C85.3944 31.9363 85.7692 31.9462 86.1423 31.9796C86.5387 32.0136 86.9094 32.1901 87.1857 32.4765C87.462 32.7629 87.625 33.1397 87.6448 33.5371C87.6645 33.9346 87.5395 34.3257 87.2929 34.638C87.0464 34.9503 86.695 35.1627 86.3038 35.2358C85.9736 35.3011 85.637 35.3282 85.3006 35.3165H46.0605C45.7247 35.3282 45.3885 35.3054 45.0573 35.2485C44.6537 35.1868 44.2874 34.9777 44.0291 34.6615C43.7708 34.3454 43.639 33.9446 43.6591 33.5369C43.6792 33.1291 43.8498 32.7433 44.1379 32.4541C44.426 32.1649 44.8112 31.9928 45.2188 31.9711C45.5927 31.9519 45.9673 31.9519 46.3411 31.9711L65.6869 31.9498Z" fill="black"/>
<path d="M40.6794 30.0242C40.6776 31.3326 40.2871 32.6109 39.5574 33.6969C38.8278 34.783 37.7919 35.6277 36.5812 36.1238C35.3705 36.62 34.0398 36.7452 32.7578 36.4836C31.4758 36.222 30.3005 35.5854 29.3811 34.6546C28.4616 33.7237 27.8395 32.5407 27.5936 31.2556C27.3478 29.9705 27.4894 28.6414 28.0004 27.4369C28.5114 26.2324 29.3688 25.207 30.4637 24.4907C31.5586 23.7745 32.8417 23.3997 34.15 23.414C35.8859 23.4451 37.5409 24.154 38.761 25.3892C39.9812 26.6245 40.6697 28.288 40.6794 30.0242V30.0242ZM37.3127 29.9902C37.3105 29.1415 36.9735 28.3279 36.375 27.7262C35.7764 27.1245 34.9647 26.7832 34.116 26.7765C33.6844 26.7737 33.2565 26.8565 32.8572 27.0201C32.4578 27.1837 32.0948 27.4249 31.7892 27.7296C31.4836 28.0344 31.2415 28.3968 31.0769 28.7957C30.9122 29.1947 30.8283 29.6224 30.83 30.0539C30.8504 30.9033 31.196 31.7124 31.7956 32.3144C32.3952 32.9163 33.2029 33.2652 34.0522 33.2889C34.4827 33.2883 34.9089 33.2026 35.3062 33.0367C35.7034 32.8708 36.064 32.628 36.367 32.3222C36.6701 32.0164 36.9096 31.6536 37.0719 31.2549C37.2342 30.8561 37.316 30.4292 37.3127 29.9987V29.9902Z" fill="black"/>
<path d="M97.8583 35.3208C96.362 35.3208 94.8827 35.3208 93.3693 35.3208C92.0431 35.3208 91.2864 34.6704 91.2779 33.6205C91.2694 32.5705 92.0388 31.9499 93.3566 31.9456C96.3861 31.9456 99.4156 31.9456 102.445 31.9456C103.699 31.9456 104.447 32.5577 104.49 33.5482C104.532 34.5387 103.737 35.2826 102.458 35.3038C100.927 35.3378 99.3929 35.3208 97.8583 35.3208Z" fill="black"/>
<path d="M97.9393 23.8561C99.4696 23.8561 101.004 23.8561 102.539 23.8561C103.746 23.8561 104.52 24.5703 104.498 25.5565C104.477 26.5427 103.733 27.2016 102.59 27.2101C99.4469 27.2384 96.3055 27.2384 93.1655 27.2101C92.005 27.2101 91.2951 26.5214 91.2781 25.5565C91.2611 24.5915 92.0093 23.8561 93.225 23.8561C94.7936 23.8391 96.3664 23.8561 97.9393 23.8561Z" fill="black"/>
<path d="M132.009 72.0656C134.911 72.0656 137.264 69.7133 137.264 66.8115C137.264 63.9097 134.911 61.5574 132.009 61.5574C129.108 61.5574 126.755 63.9097 126.755 66.8115C126.755 69.7133 129.108 72.0656 132.009 72.0656Z" fill="#746EE9"/>
<path d="M146.144 61.2046C146.119 60.1588 145.872 59.1302 145.421 58.1864C143.963 55.2108 141.413 54.0716 138.161 54.0758C111.726 54.0957 85.2864 54.0957 58.843 54.0758C58.3584 54.0758 57.8695 54.0758 57.3849 54.1311C54.0225 54.3649 51.0681 57.0132 50.9023 60.3501C50.6897 64.5798 50.7833 68.818 50.7705 73.0519C50.7791 73.6149 50.8649 74.1742 51.0256 74.714C51.9863 78.1784 54.6728 80.0913 58.6304 80.0956C69.3767 80.0956 92.8375 80.0956 106.173 80.0956C106.472 80.119 106.774 80.119 107.074 80.0956H110.321C112.787 80.0956 115.252 80.0956 117.722 80.1339C117.98 80.1557 118.231 80.229 118.461 80.3495C118.69 80.4699 118.893 80.6351 119.057 80.8353C120.477 82.8162 121.803 84.8609 123.172 86.8758C124.388 88.6612 125.527 88.6697 126.726 86.9055C128.031 84.9841 129.37 83.0797 130.611 81.1201C130.803 80.765 131.098 80.4759 131.456 80.2902C131.815 80.1045 132.221 80.0308 132.622 80.0786C134.904 80.1296 137.2 80.1466 139.483 80.0276C141.189 79.9635 142.811 79.2648 144.03 78.0681C145.248 76.8715 145.976 75.263 146.072 73.5577C146.25 69.4556 146.208 65.3067 146.144 61.2046ZM142.832 72.4525C142.803 75.2623 141.306 76.7034 138.479 76.7416C136.044 76.7416 133.604 76.7714 131.168 76.7416C130.666 76.7035 130.163 76.8068 129.717 77.0397C129.271 77.2726 128.899 77.6259 128.643 78.0594C127.491 79.8533 126.267 81.5962 124.983 83.4921C123.746 81.6684 122.526 79.9723 121.416 78.2039C121.144 77.7149 120.737 77.3148 120.243 77.0517C119.749 76.7885 119.19 76.6735 118.632 76.7204C116.081 76.7459 113.531 76.7416 111.01 76.7416C110.677 76.7225 110.344 76.7225 110.011 76.7416C109.786 76.7416 109.556 76.7416 109.331 76.7416H58.6474C55.5655 76.7416 54.1032 75.2666 54.099 72.1804C54.099 68.7797 54.099 65.3662 54.099 61.94C54.099 58.9644 55.5868 57.4553 58.4987 57.4553C85.166 57.4553 111.831 57.4553 138.492 57.4553C141.306 57.4553 142.807 58.9474 142.832 61.7572C142.866 65.328 142.866 68.893 142.832 72.4525V72.4525Z" fill="black"/>
<path d="M81.2959 61.2683H100.85C102.47 61.2683 103.294 61.8507 103.29 62.9687C103.286 64.0867 102.44 64.6478 100.842 64.6478H61.7332C61.4336 64.6492 61.1341 64.6336 60.8363 64.601C60.4226 64.5712 60.0356 64.3858 59.7531 64.0822C59.4705 63.7786 59.3135 63.3792 59.3135 62.9645C59.3135 62.5497 59.4705 62.1503 59.7531 61.8467C60.0356 61.5431 60.4226 61.3577 60.8363 61.3279C61.2614 61.2896 61.661 61.2896 62.0733 61.2896L81.2959 61.2683Z" fill="black"/>
<path d="M101.024 72.7075H85.2961C83.4767 72.7075 82.6351 72.1592 82.6648 71.0072C82.6946 69.8552 83.515 69.3536 85.2494 69.3536H109.531C112 69.3536 114.474 69.3536 116.948 69.3536C117.395 69.3536 117.973 69.2643 118.258 69.4981C118.755 69.9232 119.384 70.5396 119.376 71.0667C119.367 71.5938 118.712 72.2144 118.194 72.58C117.858 72.8223 117.25 72.7075 116.766 72.7118L101.024 72.7075Z" fill="black"/>
<path d="M132.188 60.4012C133.495 60.4046 134.772 60.7964 135.855 61.5268C136.939 62.2571 137.781 63.293 138.275 64.503C138.769 65.713 138.892 67.0425 138.629 68.3225C138.365 69.6026 137.728 70.7756 136.796 71.6925C135.865 72.6093 134.682 73.2288 133.398 73.4721C132.114 73.7155 130.787 73.5717 129.585 73.0592C128.383 72.5466 127.36 71.6883 126.647 70.5933C125.933 69.4983 125.561 68.2161 125.578 66.9093C125.599 65.1722 126.306 63.5137 127.544 62.2949C128.782 61.076 130.451 60.3954 132.188 60.4012V60.4012ZM132.316 63.7721C131.893 63.7562 131.471 63.8237 131.074 63.9709C130.678 64.118 130.314 64.3418 130.003 64.6296C129.693 64.9173 129.443 65.2634 129.266 65.648C129.09 66.0326 128.991 66.4482 128.975 66.871C128.959 67.2939 129.026 67.7158 129.173 68.1125C129.321 68.5093 129.544 68.8732 129.832 69.1834C130.12 69.4937 130.466 69.7442 130.851 69.9208C131.235 70.0973 131.651 70.1963 132.074 70.2122C132.928 70.2444 133.759 69.9359 134.386 69.3548C135.013 68.7736 135.383 67.9673 135.415 67.1133C135.447 66.2593 135.138 65.4275 134.557 64.8009C133.976 64.1743 133.17 63.8043 132.316 63.7721V63.7721Z" fill="black"/>
<path d="M67.74 72.699C65.5295 72.699 63.3148 72.7415 61.1043 72.699C59.6887 72.6608 58.8386 71.4238 59.5102 70.3483C59.6824 70.0954 59.9064 69.8821 60.1673 69.7223C60.4282 69.5625 60.72 69.46 61.0235 69.4216C65.5592 69.3536 70.0992 69.3621 74.6264 69.3961C74.845 69.3812 75.0643 69.4121 75.2702 69.4869C75.4761 69.5617 75.6641 69.6787 75.8222 69.8304C75.9803 69.982 76.1049 70.1651 76.1881 70.3677C76.2714 70.5704 76.3114 70.7882 76.3055 71.0072C76.3608 71.9466 75.6806 72.6693 74.6052 72.7075C72.3224 72.7585 70.0312 72.7075 67.7442 72.7075L67.74 72.699Z" fill="black"/>
<path d="M114.092 61.2726C115.252 61.2726 116.413 61.2471 117.569 61.2726C118.725 61.2981 119.439 61.9655 119.452 62.9177C119.465 63.8699 118.755 64.584 117.603 64.618C115.251 64.6605 112.897 64.6605 110.542 64.618C109.377 64.5968 108.706 63.8954 108.727 62.9177C108.748 61.94 109.433 61.3278 110.619 61.2896C111.805 61.2513 112.935 61.2726 114.092 61.2726Z" fill="black"/>
<path d="M34.1701 108.84C37.0719 108.84 39.4243 106.488 39.4243 103.586C39.4243 100.684 37.0719 98.332 34.1701 98.332C31.2684 98.332 28.916 100.684 28.916 103.586C28.916 106.488 31.2684 108.84 34.1701 108.84Z" fill="#746EE9"/>
<path d="M19.9385 98.1152C20.4231 96.6869 20.6654 95.1055 21.4433 93.8643C22.9481 91.4753 25.4009 90.7271 28.1512 90.7271C45.2144 90.7441 62.2775 90.7441 79.3406 90.7271H107.579C110.755 90.7271 113.297 91.9004 114.721 94.8632C115.17 95.7678 115.42 96.7576 115.456 97.7666C115.507 101.967 115.584 106.171 115.363 110.358C115.18 113.865 112.306 116.479 108.799 116.76C108.277 116.802 107.749 116.798 107.222 116.798C87.7617 116.798 68.2982 116.791 48.8319 116.777C48.4514 116.744 48.0695 116.822 47.7329 117.003C47.3962 117.183 47.1193 117.458 46.936 117.793C45.6607 119.782 44.3259 121.725 42.9869 123.672C41.8816 125.283 40.6616 125.274 39.5521 123.672C38.1536 121.627 36.7636 119.582 35.4118 117.512C35.2772 117.273 35.0754 117.078 34.8315 116.952C34.5875 116.826 34.3119 116.774 34.0387 116.802C32.0153 116.836 29.9919 116.802 27.9642 116.802C23.454 116.802 20.7674 114.464 20.1043 110.001C20.0657 109.853 20.0101 109.71 19.9385 109.576V98.1152ZM41.2738 120.19C42.481 118.405 43.6543 116.789 44.6745 115.115C45.4482 113.839 46.4344 113.414 47.9137 113.414C67.8674 113.457 87.8212 113.465 107.775 113.44C110.521 113.44 112.111 111.952 112.141 109.27C112.183 105.585 112.183 101.91 112.141 98.2427C112.107 95.7347 110.529 94.2128 108.03 94.1236C107.766 94.1236 107.503 94.1236 107.244 94.1236H28.2788C28.0152 94.1236 27.7516 94.1236 27.4881 94.1236C25.0863 94.2256 23.5135 95.6752 23.4625 98.0727C23.3916 101.862 23.3916 105.649 23.4625 109.435C23.5135 111.986 25.0991 113.418 27.6411 113.435C30.1832 113.452 32.6699 113.465 35.1822 113.435C35.6676 113.403 36.1523 113.507 36.5813 113.736C37.0104 113.966 37.3666 114.311 37.6095 114.732C38.7445 116.509 39.9687 118.26 41.2738 120.19Z" fill="black"/>
<path d="M67.417 101.516H49.2104C48.8363 101.516 48.3602 101.635 48.1094 101.452C47.5823 101.074 46.9617 100.602 46.7704 100.032C46.4983 99.2459 47.0042 98.5785 47.8203 98.3107C48.2147 98.1943 48.6251 98.1412 49.0361 98.1535C61.324 98.1535 73.6134 98.1535 85.9042 98.1535C86.3141 98.1422 86.7234 98.1894 87.1199 98.2937C87.4941 98.3767 87.8229 98.5981 88.0406 98.9135C88.2582 99.2289 88.3484 99.6149 88.2932 99.9941C88.2817 100.376 88.1295 100.74 87.8658 101.016C87.6022 101.292 87.2457 101.461 86.8649 101.49C86.4919 101.525 86.1171 101.537 85.7427 101.524L67.417 101.516Z" fill="black"/>
<path d="M40.6787 103.68C40.7011 104.56 40.5469 105.437 40.2253 106.257C39.9037 107.077 39.4212 107.825 38.8061 108.456C38.1911 109.086 37.456 109.588 36.6442 109.93C35.8324 110.272 34.9602 110.449 34.0792 110.449C33.1982 110.449 32.326 110.272 31.5142 109.93C30.7024 109.588 29.9673 109.086 29.3523 108.456C28.7372 107.825 28.2547 107.077 27.9331 106.257C27.6115 105.437 27.4573 104.56 27.4797 103.68C27.4573 102.799 27.6115 101.923 27.9331 101.102C28.2547 100.282 28.7372 99.5345 29.3523 98.9036C29.9673 98.2728 30.7024 97.7714 31.5142 97.4291C32.326 97.0868 33.1982 96.9104 34.0792 96.9104C34.9602 96.9104 35.8324 97.0868 36.6442 97.4291C37.456 97.7714 38.1911 98.2728 38.8061 98.9036C39.4212 99.5345 39.9037 100.282 40.2253 101.102C40.5469 101.923 40.7011 102.799 40.6787 103.68V103.68ZM37.3078 103.722C37.3156 103.293 37.2383 102.866 37.0803 102.466C36.9223 102.067 36.6866 101.703 36.387 101.395C36.0874 101.087 35.7298 100.841 35.3348 100.672C34.9397 100.503 34.5152 100.415 34.0856 100.411C33.234 100.421 32.4196 100.761 31.8127 101.358C31.2058 101.956 30.8535 102.765 30.8294 103.616C30.8226 104.046 30.9017 104.473 31.062 104.872C31.2223 105.272 31.4607 105.635 31.7631 105.941C32.0655 106.247 32.426 106.489 32.8233 106.654C33.2206 106.819 33.6469 106.904 34.0771 106.902C34.4984 106.907 34.9166 106.828 35.3076 106.671C35.6985 106.514 36.0544 106.28 36.3547 105.985C36.655 105.689 36.8939 105.337 37.0575 104.949C37.221 104.56 37.3061 104.143 37.3078 103.722V103.722Z" fill="black"/>
<path d="M62.1283 109.61C57.7031 109.61 53.2822 109.635 48.857 109.58C48.2025 109.567 47.5722 109.33 47.0716 108.908C46.2852 108.169 46.6848 106.821 47.7305 106.434C48.1924 106.29 48.6755 106.227 49.1588 106.247C57.8562 106.247 66.5521 106.247 75.2466 106.247C75.4719 106.247 75.6972 106.247 75.9225 106.247C77.0617 106.336 77.7801 107.017 77.7589 107.977C77.7376 108.938 76.998 109.601 75.846 109.605C71.272 109.618 66.698 109.605 62.1283 109.61Z" fill="black"/>
<path d="M92.7904 109.61C89.6405 109.61 86.4905 109.61 83.3449 109.61C81.9378 109.61 81.1387 108.968 81.1642 107.909C81.1897 106.851 81.9506 106.251 83.2896 106.251C89.6291 106.251 95.9672 106.251 102.304 106.251C103.69 106.251 104.514 106.927 104.489 107.977C104.463 109.027 103.673 109.614 102.236 109.614C99.0902 109.614 95.9403 109.61 92.7904 109.61Z" fill="black"/>
<path d="M97.7816 101.516C96.2512 101.516 94.7166 101.516 93.1821 101.516C92.0258 101.516 91.3074 100.87 91.2819 99.9048C91.2564 98.9398 91.9578 98.2044 93.0928 98.1747C96.2725 98.1322 99.4692 98.1364 102.632 98.1747C103.758 98.1747 104.502 98.9441 104.494 99.875C104.485 100.806 103.75 101.503 102.606 101.52C100.999 101.533 99.3926 101.516 97.7816 101.516Z" fill="black"/>
</svg>
