<svg width="73" height="71" viewBox="0 0 73 71" fill="none" xmlns="http://www.w3.org/2000/svg">
<path d="M52.3515 63.8755C54.6298 63.7511 56.9919 63.8538 59.2567 63.4403C62.3107 62.8809 64.4188 60.0404 64.4999 56.9351C64.5296 55.7378 64.4999 54.5378 64.4999 53.2973L63.7269 53.1108C62.7241 52.8722 61.8285 52.3081 61.1802 51.5067C60.5318 50.7053 60.1672 49.7117 60.1432 48.6812C60.1036 43.9966 60.1036 39.312 60.1432 34.6274C60.1634 33.5842 60.5331 32.578 61.1932 31.7699C61.8533 30.9618 62.7655 30.3987 63.7837 30.1707C63.9918 30.1194 64.1972 30.0599 64.3945 30.0059C63.8539 16.5926 52.5812 3.95232 37.0977 3.5199C20.8629 3.03612 8.70908 15.9061 8.03342 30.0086C8.17936 30.0518 8.33341 30.1032 8.49287 30.1437C10.8955 30.7356 12.3171 32.5031 12.3252 34.9652C12.3252 39.3868 12.3441 43.8083 12.3252 48.2325C12.309 51.6541 9.6496 53.8189 6.26318 53.2054C2.96325 52.6081 0.390324 50.0865 0.149788 46.6488C-0.056054 43.2671 -0.0497355 39.8758 0.168706 36.4949C0.309244 33.9815 1.7903 32.1301 3.99566 30.9167C4.16598 30.8401 4.30893 30.7135 4.4055 30.5537C4.50206 30.3939 4.54765 30.2084 4.53619 30.0221C4.89016 23.7809 7.07394 17.7821 10.8151 12.774C14.5563 7.76595 19.6892 3.97026 25.5736 1.86047C43.2679 -4.47184 62.5999 5.94417 67.0566 24.2492C67.5133 26.1276 67.6701 28.0843 67.9214 30.0086C67.9755 30.4248 68.0593 30.6815 68.462 30.9058C71.043 32.3599 72.3619 34.6031 72.3943 37.5598C72.4321 40.2759 72.4267 42.9921 72.3943 45.7083C72.3592 48.6649 71.043 50.9136 68.4674 52.373C68.2983 52.4516 68.158 52.5812 68.0664 52.7436C67.9748 52.906 67.9364 53.093 67.9566 53.2784C67.9403 54.9594 68.062 56.6648 67.8106 58.3134C67.0241 63.4971 62.7594 67.1213 57.5081 67.2159C55.9703 67.243 54.4325 67.2322 52.8947 67.2159C52.7112 67.1904 52.5245 67.2286 52.3656 67.324C52.2068 67.4193 52.0854 67.5663 52.0217 67.7402C51.0461 69.6618 49.4569 70.678 47.2867 70.7132C45.5327 70.7375 43.7733 70.7321 42.0246 70.7132C39.0733 70.6807 36.8383 68.5213 36.7383 65.6295C36.7093 64.9475 36.8167 64.2666 37.054 63.6266C37.2913 62.9866 37.6538 62.4003 38.1204 61.9021C38.5869 61.4038 39.1481 61.0036 39.7711 60.7248C40.3942 60.446 41.0666 60.2941 41.749 60.2782C43.6678 60.1836 45.5948 60.208 47.5137 60.2782C49.8569 60.3404 51.3893 61.6296 52.3515 63.8755ZM8.86583 41.7137C8.86583 39.4786 8.86583 37.2436 8.86583 35.0112C8.86583 33.9301 8.3253 33.4382 7.24424 33.4788C6.26175 33.535 5.33593 33.9571 4.64912 34.6619C3.96232 35.3667 3.56432 36.3032 3.53351 37.2868C3.47405 40.193 3.47405 43.0993 3.53351 46.0055C3.56528 46.9514 3.93641 47.8542 4.57905 48.549C5.2217 49.2437 6.09291 49.684 7.03344 49.7893C8.31179 49.9082 8.86853 49.4109 8.87394 48.1217C8.88205 45.9893 8.86583 43.8515 8.86583 41.7137ZM63.5891 41.63C63.5891 43.8407 63.5891 46.0488 63.5891 48.2596C63.5891 49.3839 64.1296 49.8811 65.2566 49.8109C66.2405 49.7447 67.1638 49.3118 67.8439 48.5976C68.524 47.8835 68.9114 46.9402 68.9295 45.9542C68.9818 43.0714 68.9818 40.1885 68.9295 37.3057C68.9023 36.3591 68.5367 35.4536 67.899 34.7534C67.2614 34.0533 66.3939 33.6049 65.4539 33.4896C64.1701 33.3653 63.5972 33.8571 63.5918 35.1355C63.581 37.3057 63.5891 39.4678 63.5891 41.63ZM44.5922 67.2484C45.5056 67.2484 46.4191 67.2673 47.3299 67.2484C47.5589 67.2541 47.7868 67.2141 48.0002 67.1307C48.2135 67.0473 48.4081 66.9221 48.5724 66.7625C48.7368 66.6029 48.8677 66.4121 48.9574 66.2013C49.047 65.9905 49.0938 65.764 49.0948 65.5349C49.1116 65.3053 49.0806 65.0748 49.0038 64.8578C48.9271 64.6408 48.8061 64.4421 48.6487 64.2742C48.4912 64.1064 48.3006 63.973 48.089 63.8825C47.8774 63.792 47.6493 63.7463 47.4191 63.7484C45.5948 63.7052 43.7678 63.7052 41.9409 63.7484C41.7114 63.744 41.4835 63.786 41.2708 63.872C41.0581 63.958 40.8649 64.0862 40.7031 64.2488C40.5412 64.4115 40.4139 64.6052 40.3289 64.8183C40.2439 65.0314 40.2029 65.2596 40.2085 65.4889C40.2043 65.7241 40.248 65.9577 40.3367 66.1756C40.4254 66.3935 40.5573 66.5912 40.7245 66.7566C40.8918 66.9221 41.0908 67.0519 41.3096 67.1383C41.5284 67.2247 41.7625 67.2658 41.9976 67.2592C42.8598 67.2592 43.7273 67.243 44.5922 67.243V67.2484Z" fill="black"/>
<path d="M25.144 46.4677C23.6819 46.3839 22.3576 46.0893 21.1766 45.3272C18.8523 43.8245 17.6955 41.6759 17.6874 38.9219C17.6712 34.0571 17.6496 29.214 17.6874 24.36C17.7253 19.9115 20.8739 16.8359 25.3332 16.8277C32.5925 16.8169 39.8501 16.8169 47.1058 16.8277C51.5976 16.8277 54.7272 19.9304 54.757 24.4303C54.7876 29.2356 54.7876 34.0418 54.757 38.8489C54.7218 43.3434 51.5814 46.4164 47.0869 46.4407C44.1788 46.4407 41.2708 46.4569 38.3627 46.4407C38.151 46.4322 37.9401 46.4704 37.7448 46.5526C37.5496 46.6348 37.3748 46.759 37.233 46.9163C35.233 48.9271 33.2277 50.9298 31.1953 52.9081C30.7245 53.3556 30.1404 53.6659 29.5061 53.8054C28.8718 53.9449 28.2114 53.9083 27.5963 53.6995C26.9813 53.4908 26.435 53.1179 26.0166 52.6212C25.5982 52.1244 25.3236 51.5227 25.2224 50.8811C25.1534 50.2603 25.1263 49.6354 25.1413 49.0109C25.1359 48.1731 25.144 47.338 25.144 46.4677ZM28.6115 50.319L28.7926 50.4028C28.9818 50.2271 29.1737 50.0568 29.3575 49.8622C31.4007 47.8298 33.4574 45.8083 35.4817 43.7569C35.7241 43.4921 36.0208 43.2826 36.3514 43.1427C36.6821 43.0028 37.039 42.9358 37.3979 42.9462C40.5681 42.9732 43.741 42.9462 46.9112 42.9462C49.7679 42.9462 51.3111 41.4002 51.3111 38.53C51.3111 33.8959 51.3111 29.2599 51.3111 24.6222C51.3111 21.7979 49.7652 20.252 46.9463 20.252H25.4711C22.6819 20.252 21.1468 21.7817 21.1468 24.5762C21.1468 28.2735 21.1468 31.9725 21.1468 35.6733C21.1468 36.9219 21.1063 38.176 21.1955 39.4192C21.2483 40.2672 21.5933 41.0707 22.1718 41.6931C22.7503 42.3154 23.5265 42.7181 24.3684 42.8326C25.2048 42.9103 26.0446 42.9446 26.8846 42.9353C27.9224 42.9813 28.5629 43.6299 28.6034 44.6731C28.6034 45.0083 28.6034 45.3461 28.6034 45.6812C28.6088 47.2452 28.6115 48.7911 28.6115 50.319Z" fill="black"/>
<path d="M63.5893 41.63C63.5893 39.4679 63.5893 37.3057 63.5893 35.1436C63.5893 33.8653 64.1676 33.3734 65.4514 33.4977C66.3905 33.6122 67.2576 34.0592 67.8956 34.7577C68.5337 35.4562 68.9005 36.3601 68.9297 37.3057C68.9838 40.1886 68.9838 43.0714 68.9297 45.9542C68.9097 46.9384 68.5218 47.8793 67.8424 48.5917C67.1631 49.304 66.2416 49.7361 65.2595 49.8028C64.1379 49.865 63.5947 49.3758 63.592 48.2515C63.5812 46.0434 63.5893 43.8353 63.5893 41.63Z" fill="white"/>
<path d="M44.5922 67.2429C43.7273 67.2429 42.8598 67.2592 41.9977 67.2429C41.7625 67.2496 41.5284 67.2084 41.3096 67.1221C41.0908 67.0357 40.8918 66.9058 40.7246 66.7404C40.5573 66.5749 40.4254 66.3773 40.3367 66.1594C40.248 65.9415 40.2044 65.7079 40.2085 65.4727C40.203 65.2433 40.244 65.0152 40.329 64.8021C40.414 64.589 40.5412 64.3952 40.7031 64.2326C40.865 64.07 41.0581 63.9418 41.2708 63.8558C41.4836 63.7698 41.7115 63.7278 41.9409 63.7322C43.7679 63.6998 45.5949 63.6998 47.4192 63.7322C47.6493 63.7301 47.8774 63.7757 48.089 63.8662C48.3007 63.9567 48.4912 64.0901 48.6487 64.258C48.8062 64.4259 48.9271 64.6246 49.0039 64.8416C49.0807 65.0586 49.1116 65.2891 49.0948 65.5187C49.0938 65.7477 49.0471 65.9743 48.9574 66.1851C48.8677 66.3959 48.7368 66.5867 48.5725 66.7463C48.4081 66.9059 48.2136 67.031 48.0002 67.1145C47.7869 67.1979 47.559 67.2379 47.33 67.2321C46.4192 67.2619 45.5057 67.2429 44.5922 67.2429Z" fill="white"/>
<path d="M28.6116 50.319C28.6116 48.7929 28.6116 47.2614 28.6116 45.7245C28.6116 45.3894 28.6116 45.0515 28.6116 44.7164C28.5711 43.6732 27.9305 43.0245 26.8927 42.9786C26.0528 42.9878 25.2129 42.9535 24.3766 42.8759C23.534 42.7633 22.7566 42.3621 22.1766 41.7407C21.5966 41.1193 21.2499 40.3161 21.1955 39.4678C21.1063 38.2246 21.1469 36.9706 21.1469 35.722C21.1469 32.023 21.1469 28.3239 21.1469 24.6249C21.1469 21.8195 22.6739 20.3007 25.4711 20.3007H46.9464C49.7652 20.3007 51.3112 21.8466 51.3112 24.6708C51.3112 29.3068 51.3112 33.9427 51.3112 38.5787C51.3112 41.4489 49.7679 42.9948 46.9112 42.9948C43.741 42.9948 40.5681 43.011 37.3979 42.9948C37.039 42.9844 36.6821 43.0515 36.3515 43.1914C36.0208 43.3313 35.7242 43.5408 35.4817 43.8056C33.4575 45.8569 31.4007 47.8785 29.3575 49.9109C29.1738 50.092 28.9819 50.2622 28.7927 50.4514L28.6116 50.319ZM36.2466 34.4679C36.7523 34.4642 37.2455 34.3109 37.6643 34.0274C38.083 33.7438 38.4084 33.3427 38.5996 32.8745C38.7908 32.4064 38.8392 31.8921 38.7386 31.3965C38.6381 30.9009 38.3931 30.4461 38.0346 30.0895C37.6761 29.7328 37.22 29.4903 36.7239 29.3923C36.2278 29.2944 35.7138 29.3454 35.2466 29.5391C34.7795 29.7327 34.38 30.0602 34.0987 30.4805C33.8173 30.9007 33.6666 31.3947 33.6656 31.9004C33.6754 32.5802 33.9505 33.2292 34.4323 33.7089C34.914 34.1886 35.5641 34.461 36.2439 34.4679H36.2466ZM25.2684 31.9004C25.2711 32.4025 25.4222 32.8925 25.7026 33.3089C25.983 33.7253 26.3803 34.0495 26.8444 34.2408C27.3086 34.432 27.819 34.4817 28.3113 34.3837C28.8037 34.2857 29.2561 34.0443 29.6117 33.6899C29.9672 33.3355 30.21 32.8838 30.3096 32.3918C30.4092 31.8997 30.3611 31.3892 30.1713 30.9244C29.9815 30.4597 29.6585 30.0614 29.243 29.7796C28.8275 29.4979 28.338 29.3453 27.8359 29.341C27.1564 29.341 26.5046 29.6104 26.0233 30.0902C25.542 30.5699 25.2706 31.2209 25.2684 31.9004V31.9004ZM47.1815 31.9004C47.1765 31.222 46.9041 30.573 46.4234 30.0943C45.9426 29.6155 45.2924 29.3458 44.614 29.3437C43.9499 29.3653 43.3203 29.6443 42.8582 30.1216C42.3961 30.599 42.1377 31.2374 42.1377 31.9018C42.1377 32.5662 42.3961 33.2045 42.8582 33.6819C43.3203 34.1593 43.9499 34.4383 44.614 34.4598C45.2927 34.457 45.9429 34.1867 46.4235 33.7076C46.9042 33.2284 47.1765 32.5791 47.1815 31.9004V31.9004Z" fill="#746EE9"/>
<path d="M36.2437 34.4679C35.7376 34.4711 35.242 34.3243 34.8193 34.0462C34.3965 33.768 34.0657 33.3709 33.8683 32.9049C33.671 32.4389 33.6161 31.9249 33.7105 31.4278C33.8049 30.9306 34.0445 30.4726 34.3989 30.1114C34.7533 29.7502 35.2068 29.5021 35.702 29.3982C36.1973 29.2944 36.7122 29.3396 37.1819 29.5281C37.6515 29.7165 38.0548 30.0398 38.3409 30.4572C38.627 30.8746 38.7831 31.3674 38.7895 31.8734C38.7862 32.5521 38.5184 33.2028 38.0431 33.6872C37.5677 34.1717 36.9222 34.4518 36.2437 34.4679V34.4679Z" fill="black"/>
<path d="M25.2684 31.9004C25.2706 31.3982 25.4212 30.9078 25.7015 30.4909C25.9817 30.0741 26.3789 29.7495 26.8432 29.5579C27.3075 29.3663 27.8181 29.3164 28.3107 29.4143C28.8033 29.5122 29.256 29.7537 29.6117 30.1082C29.9674 30.4628 30.2103 30.9147 30.3098 31.407C30.4092 31.8993 30.3609 32.4101 30.1708 32.875C29.9807 33.3399 29.6573 33.7381 29.2414 34.0197C28.8254 34.3012 28.3355 34.4534 27.8332 34.4571C27.1549 34.4557 26.5045 34.1862 26.0241 33.7072C25.5436 33.2283 25.272 32.5788 25.2684 31.9004Z" fill="black"/>
<path d="M47.1814 31.9004C47.1897 32.2414 47.1294 32.5806 47.004 32.8979C46.8786 33.2152 46.6908 33.504 46.4516 33.7472C46.2124 33.9905 45.9268 34.1831 45.6117 34.3138C45.2966 34.4445 44.9585 34.5106 44.6174 34.5081C44.2762 34.5055 43.9391 34.4345 43.626 34.2991C43.3129 34.1637 43.0301 33.9668 42.7946 33.72C42.5591 33.4733 42.3756 33.1817 42.2549 32.8626C42.1343 32.5435 42.079 32.2034 42.0923 31.8626C42.0987 31.196 42.3665 30.5586 42.8381 30.0875C43.3097 29.6164 43.9474 29.3493 44.6139 29.3437C45.2923 29.3458 45.9425 29.6155 46.4233 30.0942C46.904 30.5729 47.1765 31.222 47.1814 31.9004Z" fill="black"/>
</svg>
