<svg width="149" height="128" viewBox="0 0 149 128" fill="none" xmlns="http://www.w3.org/2000/svg">
<path d="M46.9199 64.305V25.0415H105.244V65.833L87.7075 78.7936H64.8386L46.9199 64.305Z" fill="#746EE9"/>
<path d="M121.627 52.9004C121.654 52.4019 121.558 51.9044 121.346 51.4523C121.134 51.0003 120.814 50.6078 120.413 50.3099C118.109 48.4277 115.785 46.4898 113.541 44.6156C111.716 43.0875 109.885 41.5661 108.049 40.0513C107.724 39.7992 107.465 39.472 107.294 39.0978C107.122 38.7236 107.045 38.3135 107.066 37.9025C107.066 34.7987 107.066 31.6431 107.066 28.591V25.6543C107.066 23.6647 106.513 23.1195 104.484 23.1195H101.177C97.1541 23.1195 92.9878 23.1195 88.8931 23.0956C88.1905 23.0743 87.5147 22.8211 86.9711 22.3754C84.508 20.2783 82.0249 18.1255 79.6254 16.0404L77.8268 14.4845C76.5733 13.3942 75.8371 13.3942 74.5837 14.4845L73.0238 15.8414C70.5487 17.9902 67.986 20.2186 65.4393 22.3794C64.8936 22.823 64.2164 23.0735 63.5133 23.0917C59.5141 23.1195 55.4513 23.1155 51.5198 23.1155H47.6241C45.9687 23.1155 45.3201 23.7522 45.3201 25.3797V27.5683C45.3201 30.9547 45.3201 34.4565 45.3201 37.9145C45.3424 38.3254 45.2646 38.7357 45.0934 39.11C44.9222 39.4843 44.6627 39.8114 44.3372 40.0633C42.0173 41.9773 39.6655 43.9351 37.3934 45.8332C35.4992 47.4249 33.6038 49.0007 31.707 50.5606C31.4011 50.7912 31.156 51.0929 30.9931 51.4396C30.8301 51.7863 30.7542 52.1676 30.7718 52.5502C30.7718 67.4009 30.7718 84.9694 30.7718 102.661C30.7453 103.124 30.8596 103.584 31.0997 103.98C31.3398 104.377 31.6944 104.691 32.1168 104.882H120.278C121.241 104.372 121.619 103.58 121.615 102.116C121.595 87.4047 121.591 71.3125 121.627 52.9004ZM107.146 44.0306L116.863 52.1244L107.146 59.6851V44.0306ZM76.1913 17.9305L82.1005 23.0638H70.298L76.1913 17.9305ZM48.973 32.2321V28.2528C48.973 28.1374 48.973 28.018 48.973 27.8549L49.0367 26.8163H103.394V34.5918C103.394 43.3462 103.394 52.3831 103.394 61.2808C103.413 61.6963 103.328 62.1101 103.145 62.4837C102.962 62.8573 102.688 63.1786 102.347 63.4176C100.111 65.1446 97.8757 66.8769 95.642 68.6146C92.9082 70.7355 90.071 72.9321 87.2855 75.0809C86.708 75.5064 86.013 75.7427 85.2959 75.7574C82.2915 75.7574 79.2513 75.7812 76.1435 75.7812C73.171 75.7812 70.1269 75.7812 66.9673 75.7812C66.3026 75.7692 65.6583 75.5493 65.1249 75.1525C60.0872 71.2727 54.9778 67.2974 49.94 63.338C49.6675 63.1251 49.4426 62.8576 49.2795 62.5527C49.1164 62.2477 49.0188 61.9121 48.9929 61.5673C48.9691 51.7743 48.9691 41.842 48.973 32.2321ZM45.2604 44.0306V59.6851L35.539 52.1244L45.2604 44.0306ZM34.4925 55.9684L62.3116 77.6037L34.4925 99.251V55.9684ZM38.0738 101.149L40.8991 98.9446C41.4283 98.5268 41.9178 98.1487 42.4112 97.7508L45.5946 95.2797C51.9615 90.3175 58.5711 85.1882 65.0931 80.1584C65.6443 79.7376 66.3139 79.5009 67.0071 79.482C72.6895 79.4501 78.7221 79.4501 85.4471 79.482C86.0832 79.4843 86.7025 79.6861 87.2179 80.059C94.48 85.6777 101.846 91.4078 108.969 96.951L111.591 98.9884C111.734 99.1038 111.873 99.2231 112.049 99.3863L114.154 101.189L38.0738 101.149ZM117.89 99.2351L90.0869 77.6117L117.89 55.9883V99.2351Z" fill="black"/>
<path d="M70.0314 33.585H84.8821C86.1117 33.585 86.7364 34.0745 86.7324 34.9937C86.7284 35.9129 86.0997 36.4023 84.8741 36.4023C74.9737 36.4023 65.0732 36.4023 55.1728 36.4023C54.9454 36.403 54.7181 36.3897 54.4923 36.3626C54.3259 36.3491 54.1638 36.3026 54.0155 36.2258C53.8672 36.149 53.7357 36.0435 53.6286 35.9153C53.5216 35.7871 53.4411 35.6389 53.3919 35.4793C53.3428 35.3197 53.3259 35.1519 53.3423 34.9857C53.3254 34.8194 53.3422 34.6515 53.3918 34.4918C53.4413 34.3322 53.5226 34.1842 53.6308 34.0568C53.7389 33.9293 53.8716 33.825 54.0211 33.7501C54.1705 33.6752 54.3335 33.6312 54.5003 33.6208C54.8113 33.5943 55.1234 33.5837 55.4354 33.589L70.0314 33.585Z" fill="black"/>
<path d="M94.2579 33.7203C95.1373 33.7203 96.0207 33.6964 96.8961 33.7203C97.0877 33.704 97.2805 33.7274 97.4626 33.7891C97.6446 33.8507 97.812 33.9493 97.9542 34.0787C98.0964 34.208 98.2104 34.3653 98.289 34.5407C98.3676 34.7161 98.4092 34.9058 98.4111 35.098C98.4131 35.2902 98.3753 35.4808 98.3002 35.6577C98.2251 35.8347 98.1143 35.9942 97.9747 36.1263C97.8351 36.2585 97.6697 36.3604 97.4889 36.4257C97.3081 36.491 97.1158 36.5182 96.924 36.5058C95.1373 36.5416 93.3426 36.5456 91.5639 36.5058C91.3759 36.5156 91.1879 36.485 91.0127 36.416C90.8375 36.347 90.6792 36.2412 90.5483 36.1058C90.4175 35.9704 90.3171 35.8086 90.2541 35.6311C90.1911 35.4537 90.1669 35.2648 90.1831 35.0772C90.1831 34.2814 90.7203 33.7481 91.6196 33.7163C92.5189 33.6845 93.3785 33.7203 94.2579 33.7203Z" fill="black"/>
<path d="M82.1327 40.7039H96.9833C98.2129 40.7039 98.8377 41.1934 98.8337 42.1126C98.8297 43.0318 98.201 43.5213 96.9793 43.5213C87.0762 43.5213 77.1745 43.5213 67.274 43.5213C67.0466 43.5219 66.8194 43.5086 66.5936 43.4815C66.272 43.4238 65.9809 43.2549 65.7713 43.0043C65.5616 42.7537 65.4468 42.4373 65.4468 42.1106C65.4468 41.7839 65.5616 41.4676 65.7713 41.217C65.9809 40.9664 66.272 40.7975 66.5936 40.7398C66.9059 40.7132 67.2193 40.7026 67.5327 40.7079L82.1327 40.7039Z" fill="black"/>
<path d="M57.5962 40.8472C58.4757 40.8472 59.3551 40.8233 60.2345 40.8472C60.426 40.8309 60.6189 40.8543 60.8009 40.916C60.983 40.9776 61.1503 41.0762 61.2926 41.2055C61.4348 41.3349 61.5488 41.4922 61.6274 41.6676C61.706 41.843 61.7476 42.0327 61.7495 42.2249C61.7514 42.4171 61.7137 42.6077 61.6386 42.7846C61.5635 42.9615 61.4526 43.1211 61.313 43.2532C61.1734 43.3854 61.0081 43.4873 60.8273 43.5526C60.6465 43.6179 60.4542 43.6451 60.2623 43.6327C58.4757 43.6685 56.681 43.6725 54.8983 43.6327C54.7106 43.6419 54.5231 43.6108 54.3484 43.5416C54.1737 43.4723 54.0158 43.3665 53.8854 43.2311C53.755 43.0958 53.655 42.9342 53.5922 42.757C53.5295 42.5799 53.5053 42.3914 53.5215 42.2041C53.5215 41.4083 54.0547 40.875 54.958 40.8432C55.8613 40.8114 56.7168 40.8472 57.5962 40.8472Z" fill="black"/>
<path d="M70.0314 47.8229H84.8821C86.1117 47.8229 86.7364 48.3123 86.7324 49.2315C86.7284 50.1508 86.0997 50.6402 84.8741 50.6402H55.1728C54.9454 50.6408 54.7181 50.6275 54.4923 50.6004C54.3259 50.5869 54.1638 50.5405 54.0155 50.4637C53.8672 50.3869 53.7357 50.2813 53.6286 50.1531C53.5216 50.025 53.4411 49.8768 53.3919 49.7172C53.3428 49.5576 53.3259 49.3898 53.3423 49.2236C53.3254 49.0573 53.3422 48.8893 53.3918 48.7297C53.4413 48.5701 53.5226 48.4221 53.6308 48.2946C53.7389 48.1672 53.8716 48.0629 54.0211 47.988C54.1705 47.913 54.3335 47.8691 54.5003 47.8587C54.8113 47.8322 55.1234 47.8216 55.4354 47.8269L70.0314 47.8229Z" fill="black"/>
<path d="M94.2579 47.9581C95.1373 47.9581 96.0207 47.9343 96.8961 47.9581C97.0877 47.9419 97.2805 47.9653 97.4626 48.0269C97.6446 48.0886 97.812 48.1872 97.9542 48.3165C98.0964 48.4458 98.2104 48.6031 98.289 48.7785C98.3676 48.9539 98.4092 49.1437 98.4111 49.3359C98.4131 49.5281 98.3753 49.7186 98.3002 49.8956C98.2251 50.0725 98.1143 50.232 97.9747 50.3642C97.8351 50.4963 97.6697 50.5982 97.4889 50.6635C97.3081 50.7288 97.1158 50.7561 96.924 50.7436C95.1373 50.7794 93.3426 50.7834 91.5639 50.7436C91.3759 50.7534 91.1879 50.7228 91.0127 50.6538C90.8375 50.5848 90.6792 50.4791 90.5483 50.3437C90.4175 50.2083 90.3171 50.0464 90.2541 49.869C90.1911 49.6916 90.1669 49.5027 90.1831 49.3151C90.1831 48.5192 90.7203 47.986 91.6196 47.9542C92.5189 47.9223 93.3785 47.9581 94.2579 47.9581Z" fill="black"/>
<path d="M140.976 34.0223C132.479 17.8072 116.35 6.5717 98.9865 2.31483C82.4099 -1.74376 62.4528 -1.54547 49.9764 11.8264C41.7601 20.6312 38.4627 32.8901 31.2187 42.3985C27.6142 47.1256 23.1047 49.2876 18.3809 52.5946C6.87356 60.6574 -1.59222 73.6327 0.253175 88.3063C3.35548 112.84 25.7369 126.017 48.227 127.498C77.9516 129.452 99.1496 125.48 117.156 113.972C126.511 107.995 135.837 100.901 141.546 91.0856C150.181 76.2425 149.826 57.5199 144.242 41.583C143.336 38.9875 142.245 36.4608 140.976 34.0223V34.0223Z" fill="#746EE9" fill-opacity="0.07"/>
</svg>
