<svg width="72" height="87" viewBox="0 0 72 87" fill="none" xmlns="http://www.w3.org/2000/svg">
<path d="M65.9349 46.8419C62.3009 45.7517 58.2885 47.704 56.9928 51.1901C56.7422 51.8944 56.3262 52.175 55.5894 52.165C54.0005 52.1374 52.4441 52.1425 50.7976 52.1475H48.5821V43.1553H49.6999H52.0331C53.7047 43.1553 55.434 43.1704 57.1307 43.1253C59.1275 43.0454 61.0864 42.5551 62.8854 41.6849C64.6843 40.8147 66.2848 39.5833 67.5869 38.0674C68.8891 36.5516 69.865 34.7837 70.4539 32.8741C71.0428 30.9644 71.2321 28.954 71.0099 26.968C70.2455 21.0484 66.9724 16.9433 61.2859 14.7529C61.0594 14.6807 60.8545 14.553 60.69 14.3814C60.5254 14.2098 60.4063 13.9998 60.3436 13.7705C58.2459 7.19177 53.7824 3.18941 47.0809 1.88119C43.457 1.17195 39.8832 1.73583 36.4598 3.55531C35.9585 3.80593 35.525 3.89365 34.9561 3.42499C31.1667 0.314834 26.3449 -0.745276 21.731 0.525353C17.1171 1.79598 13.5083 5.14172 11.8291 9.74556C11.5073 10.7417 11.2815 11.7664 11.155 12.8056C11.1099 13.0888 11.0673 13.372 11.0196 13.6552C10.9987 13.888 10.907 14.1088 10.757 14.288C10.6069 14.4672 10.4056 14.5962 10.1801 14.6577C4.43091 16.7052 1.04758 20.8028 0.125309 26.8402C0.10384 26.9506 0.0675919 27.0577 0.0175431 27.1584C0.0167204 27.1643 0.0167204 27.1702 0.0175431 27.176V29.8476C0.115284 30.2435 0.203 30.647 0.290716 31.038C0.463015 31.9112 0.690701 32.7726 0.972394 33.6168C1.95946 36.3445 3.74578 38.7112 6.09826 40.4083C8.45074 42.1054 11.2601 43.054 14.1599 43.1303C15.8114 43.1679 17.4931 43.1603 19.1171 43.1553H21.3726H22.5555V52.0848L22.2047 52.1074L22.0142 52.1224C21.8714 52.1349 21.721 52.1475 21.5681 52.1475C20.904 52.1475 20.2423 52.1475 19.5782 52.1475C18.2073 52.1475 16.7888 52.1475 15.3954 52.16C15.1392 52.1913 14.8802 52.1306 14.6645 51.9888C14.4488 51.847 14.2904 51.6332 14.2175 51.3856C12.9444 48.1125 10.0071 46.268 6.56116 46.5662C3.37331 46.8444 0.779419 49.298 0.112778 52.6713C0.0897157 52.7731 0.056119 52.8722 0.0125311 52.967L0 52.9971V54.8416C0.328308 56.0947 0.691703 57.2851 1.48365 58.2776C3.34824 60.6133 5.7266 61.5582 8.55356 61.0845C11.2502 60.6334 13.1348 59.0795 14.1574 56.4907C14.408 55.8566 14.7814 55.596 15.443 55.596H15.4706C17.8038 55.621 20.1772 55.616 22.4879 55.611H23.8963C25.4627 55.611 26.0742 54.9895 26.0742 53.4056V43.1904H33.7957V56.5508L33.5451 56.636C32.1977 57.0422 30.9943 57.8247 30.0766 58.8916C28.232 61.092 27.7609 63.5255 28.6731 66.1244C29.6054 68.7709 31.5352 70.3849 34.4122 70.9513C34.5701 70.9813 34.728 71.0164 34.8859 71.0515L35.0613 71.0891H36.1114C37.377 70.8686 38.8281 70.5077 40.0261 69.5378C42.3292 67.6707 43.2615 65.3074 42.7954 62.5205C42.3518 59.8514 40.813 57.9568 38.2191 56.8891L37.3394 56.5232V43.2155H45.0835V53.5033C45.0835 54.987 45.7201 55.621 47.2087 55.6235C49.9781 55.6235 52.8426 55.6361 55.6971 55.6235H55.7172C56.3838 55.6235 56.7472 55.8742 56.9703 56.4731C58.093 59.4805 61.0353 61.4278 64.1304 61.2348C67.5062 61.0143 70.1853 58.7763 70.9572 55.5333C71.3686 53.7184 71.0799 51.815 70.1488 50.2037C69.2176 48.5924 67.7128 47.3918 65.9349 46.8419V46.8419ZM7.37316 57.7538H7.34058C6.83607 57.7521 6.3369 57.6504 5.8719 57.4547C5.4069 57.259 4.98529 56.9731 4.6314 56.6135C4.08298 56.0776 3.70686 55.3902 3.55115 54.6394C3.39543 53.8886 3.46719 53.1084 3.75725 52.3986C4.04731 51.6888 4.54249 51.0816 5.17946 50.6547C5.81644 50.2279 6.56627 50.0007 7.33306 50.0022H7.3506C7.8632 50.0001 8.37107 50.1003 8.84445 50.2969C9.31783 50.4936 9.7472 50.7828 10.1074 51.1475C10.4696 51.5056 10.7563 51.9328 10.9505 52.4038C11.1446 52.8748 11.2423 53.3799 11.2377 53.8893C11.2279 54.9112 10.8176 55.8884 10.0949 56.6111C9.37232 57.3337 8.39505 57.744 7.37316 57.7538V57.7538ZM39.4521 63.6859C39.442 64.7235 39.0212 65.7147 38.2818 66.4427C37.569 67.1616 36.6 67.5681 35.5876 67.573H35.5375C34.5176 67.5566 33.5444 67.1423 32.8256 66.4185C32.1069 65.6946 31.6996 64.7185 31.6905 63.6984C31.6875 63.1892 31.7863 62.6845 31.9813 62.214C32.1763 61.7436 32.4634 61.3169 32.8258 60.9592C33.3674 60.4179 34.0569 60.0489 34.8076 59.8985C35.5584 59.7481 36.3369 59.823 37.0451 60.114C37.7534 60.4049 38.3598 60.8987 38.7881 61.5334C39.2164 62.1681 39.4474 62.9152 39.4521 63.6809V63.6859ZM40.1213 39.6968H23.1069C20.3301 39.6968 17.5307 39.6968 14.7613 39.6968C9.3405 39.6793 4.90708 36.1406 3.73419 30.8851C3.429 29.4364 3.41434 27.9415 3.69105 26.487C3.96776 25.0326 4.53035 23.6475 5.34622 22.412C6.16209 21.1766 7.21501 20.1153 8.44399 19.2897C9.67297 18.4641 11.0536 17.8906 12.5058 17.6024C14.1448 17.2992 14.5107 16.8506 14.4456 15.1564C14.379 13.6369 14.62 12.1196 15.154 10.6954C15.688 9.27128 16.504 7.96962 17.5532 6.86847C18.5821 5.79285 19.8178 4.93625 21.186 4.35011C22.5543 3.76398 24.0268 3.46039 25.5153 3.45757H25.6206C27.1089 3.44509 28.5838 3.73902 29.9535 4.32108C31.3233 4.90314 32.5587 5.76088 33.5827 6.84091L33.7807 7.04641C34.0141 7.31975 34.2859 7.55781 34.5877 7.75315C35.2343 8.11655 35.8783 8.02883 36.6728 7.46995C39.0121 5.81745 41.8306 4.98159 44.6926 5.0916C47.6642 5.18245 50.5185 6.27173 52.7952 8.1837C55.0718 10.0957 56.6379 12.7188 57.2409 15.63C57.4916 16.8831 58.058 17.4796 59.276 17.7678C64.4161 18.9833 67.9373 23.8002 67.6516 29.221C67.3784 34.3912 63.336 38.8297 58.2484 39.5439C57.5135 39.645 56.7723 39.6936 56.0305 39.6893C50.7274 39.6976 45.4244 39.7002 40.1213 39.6968V39.6968ZM67.6691 53.8442C67.6675 54.3569 67.5649 54.8642 67.367 55.3373C67.1692 55.8103 66.8801 56.2397 66.5163 56.6009C66.1633 56.9626 65.7421 57.2506 65.2771 57.4485C64.8121 57.6464 64.3125 57.7501 63.8071 57.7538H63.7846C62.773 57.7354 61.8086 57.3224 61.0974 56.6028C60.3862 55.8833 59.9844 54.9142 59.9779 53.9024C59.9713 52.8907 60.3605 51.9165 61.0624 51.1878C61.7643 50.4591 62.7232 50.0336 63.7344 50.0022H63.7871C64.8103 49.9991 65.7932 50.4009 66.5213 51.1199C66.8855 51.4744 67.1755 51.8978 67.3743 52.3656C67.5731 52.8333 67.6767 53.3359 67.6792 53.8442H67.6691Z" fill="black"/>
<path d="M7.34795 49.9596H7.33291C6.55735 49.9566 5.79858 50.1854 5.15395 50.6166C4.50931 51.0479 4.00822 51.6619 3.71494 52.3798C3.42166 53.0978 3.34957 53.8871 3.50793 54.6463C3.66628 55.4055 4.04785 56.1001 4.60369 56.641C4.96051 57.0049 5.38581 57.2945 5.85509 57.4932C6.32436 57.6919 6.82832 57.7958 7.33792 57.7989H7.3705C8.39938 57.7728 9.37884 57.3521 10.1061 56.6239C10.8334 55.8956 11.2529 54.9156 11.2776 53.8867C11.2795 53.3744 11.1795 52.8668 10.9833 52.3935C10.7871 51.9202 10.4986 51.4907 10.1348 51.1299C9.77121 50.7597 9.33753 50.4655 8.85906 50.2645C8.38059 50.0636 7.8669 49.9599 7.34795 49.9596V49.9596Z" fill="#746EE9"/>
<path d="M7.33541 50.3781C6.41438 50.3833 5.53234 50.7505 4.87966 51.4004C4.22698 52.0502 3.85601 52.9307 3.84682 53.8517C3.84216 54.7822 4.20736 55.6765 4.86207 56.3378C5.51677 56.9991 6.40736 57.3732 7.33791 57.3778C8.26846 57.3825 9.16275 57.0173 9.82403 56.3626C10.4853 55.7079 10.8594 54.8173 10.8641 53.8867C10.8641 53.4243 10.7727 52.9664 10.5951 52.5394C10.4175 52.1124 10.1573 51.7247 9.82936 51.3987C9.50143 51.0726 9.11227 50.8146 8.68426 50.6394C8.25626 50.4643 7.79785 50.3755 7.33541 50.3781V50.3781ZM7.36548 57.0019H7.34042C6.9341 56.9997 6.53223 56.9171 6.158 56.7588C5.78378 56.6005 5.4446 56.3697 5.16005 56.0796C4.71703 55.6483 4.41299 55.0944 4.28695 54.4891C4.16091 53.8838 4.21862 53.2546 4.45266 52.6823C4.6867 52.1099 5.08641 51.6206 5.6005 51.277C6.11458 50.9335 6.7196 50.7514 7.33791 50.754V50.754C7.75061 50.7534 8.15934 50.8346 8.54047 50.9929C8.9216 51.1512 9.26757 51.3835 9.55838 51.6763C9.84913 51.9654 10.0793 52.3096 10.2355 52.6887C10.3917 53.0678 10.4708 53.4742 10.4681 53.8842C10.4504 54.703 10.1183 55.4834 9.54061 56.0639C8.96296 56.6443 8.18409 56.9802 7.36548 57.0019V57.0019Z" fill="#746EE9"/>
<path d="M63.7717 50.0072H63.7216C62.7026 50.0217 61.7304 50.4379 61.0166 51.1654C60.3028 51.8928 59.905 52.8726 59.9097 53.8918C59.9334 54.9092 60.3486 55.8783 61.069 56.5973C61.7893 57.3162 62.7593 57.7296 63.7768 57.7513H63.8068C64.3124 57.7483 64.8124 57.6451 65.2779 57.4476C65.7433 57.2502 66.165 56.9624 66.5185 56.6009C66.8828 56.2399 67.1724 55.8106 67.3706 55.3375C67.5689 54.8645 67.6719 54.357 67.6739 53.8441C67.6719 53.3372 67.5686 52.8358 67.3702 52.3692C67.1718 51.9027 66.8823 51.4805 66.5185 51.1274C65.7873 50.4051 64.7995 50.0023 63.7717 50.0072V50.0072Z" fill="#746EE9"/>
<path d="M63.7293 50.3781C62.8097 50.3945 61.9333 50.7714 61.2888 51.4276C60.6443 52.0838 60.2832 52.9669 60.2834 53.8867C60.2893 54.8173 60.6647 55.7073 61.327 56.3611C61.9892 57.0149 62.884 57.3788 63.8146 57.3728C64.7451 57.3668 65.6352 56.9914 66.2889 56.3292C66.9427 55.667 67.3066 54.7721 67.3006 53.8416C67.2948 53.3793 67.1976 52.9228 67.0147 52.4982C66.8318 52.0736 66.5668 51.6893 66.235 51.3674C65.9031 51.0456 65.5109 50.7925 65.0809 50.6227C64.6509 50.4529 64.1916 50.3698 63.7293 50.3781V50.3781ZM66.9172 53.8491C66.9157 54.2631 66.8325 54.6728 66.6726 55.0547C66.5126 55.4365 66.2789 55.7831 65.9849 56.0746C65.6996 56.3661 65.3594 56.5982 64.9838 56.7573C64.6083 56.9165 64.2049 56.9996 63.797 57.0019H63.7795C62.9586 56.9847 62.1761 56.6514 61.5948 56.0716C61.0136 55.4917 60.6785 54.71 60.6593 53.8892C60.6559 53.067 60.9769 52.2767 61.5526 51.6897C62.1283 51.1028 62.9123 50.7665 63.7344 50.754H63.777C64.6031 50.7521 65.3965 51.0763 65.9849 51.6562C66.2784 51.9413 66.512 52.2821 66.6721 52.6587C66.8322 53.0352 66.9155 53.44 66.9172 53.8491Z" fill="#746EE9"/>
<path d="M35.5773 59.9366C35.0799 59.9344 34.5869 60.031 34.127 60.2207C33.6671 60.4104 33.2495 60.6895 32.8982 61.0418C32.5467 61.39 32.2679 61.8046 32.0781 62.2615C31.8884 62.7185 31.7915 63.2086 31.793 63.7034C31.8146 64.6948 32.2172 65.6398 32.9173 66.3422C33.6173 67.0445 34.5609 67.4503 35.5523 67.4752C36.0466 67.4792 36.5367 67.3838 36.9934 67.1948C37.4502 67.0059 37.8643 66.7271 38.2113 66.375C38.7485 65.8566 39.1184 65.1894 39.2736 64.4592C39.4288 63.729 39.3621 62.9691 39.0823 62.277C38.8024 61.5849 38.322 60.9924 37.7028 60.5753C37.0836 60.1583 36.3539 59.9359 35.6074 59.9366H35.5773Z" fill="#746EE9"/>
<path d="M32.0665 63.7034C32.0675 64.1642 32.1592 64.6202 32.3365 65.0455C32.5137 65.4709 32.773 65.8571 33.0995 66.1822C33.426 66.5073 33.8133 66.7649 34.2394 66.9403C34.6655 67.1158 35.1219 67.2055 35.5827 67.2045C36.0434 67.2036 36.4995 67.1118 36.9248 66.9346C37.3501 66.7573 37.7363 66.4981 38.0614 66.1716C38.3866 65.8451 38.6442 65.4577 38.8196 65.0317C38.995 64.6056 39.0848 64.1491 39.0838 63.6884C39.0818 62.7578 38.7102 61.8662 38.0508 61.2096C37.3914 60.553 36.4982 60.1853 35.5676 60.1873C34.6371 60.1893 33.7454 60.5608 33.0888 61.2202C32.4323 61.8796 32.0645 62.7729 32.0665 63.7034V63.7034ZM38.7003 63.6884C38.6971 64.1042 38.6117 64.5153 38.4492 64.8981C38.2866 65.2809 38.05 65.6278 37.753 65.9189C37.465 66.2104 37.1213 66.4411 36.7425 66.5973C36.3637 66.7536 35.9574 66.8322 35.5476 66.8286C34.7277 66.8063 33.9478 66.4692 33.3697 65.8874C32.7915 65.3055 32.4595 64.5235 32.4424 63.7034C32.4399 63.2937 32.5196 62.8877 32.6767 62.5093C32.8338 62.131 33.0652 61.7879 33.3572 61.5005C33.6478 61.2084 33.9935 60.9769 34.3742 60.8195C34.7549 60.662 35.1631 60.5817 35.5751 60.5832H35.5952C36.4156 60.5891 37.2009 60.9171 37.7817 61.4966C38.3626 62.076 38.6925 62.8605 38.7003 63.6809V63.6884Z" fill="#746EE9"/>
<path d="M40.3823 78.7137C40.3823 80.8515 40.3823 82.9893 40.3823 85.1271C40.3823 86.4163 39.8202 86.9135 38.5418 86.7946C37.6013 86.6894 36.7301 86.2491 36.0874 85.5544C35.4448 84.8596 35.0737 83.9568 35.0419 83.0109C34.986 80.1065 34.986 77.2002 35.0419 74.2922C35.0713 73.308 35.4684 72.3706 36.1547 71.6648C36.8411 70.9589 37.767 70.5357 38.7499 70.4787C39.831 70.4382 40.3715 70.9355 40.3715 72.0111C40.3985 74.2435 40.3823 76.4678 40.3823 78.7137Z" fill="white"/>
</svg>
