<svg width="67" height="76" viewBox="0 0 67 76" fill="none" xmlns="http://www.w3.org/2000/svg">
<path d="M34.6812 0C35.2947 0.40235 35.4859 0.968155 35.4808 1.69239C35.4582 5.34623 35.4808 8.99756 35.4683 12.6514C35.4819 12.8973 35.465 13.1439 35.418 13.3857C35.352 13.6495 35.1997 13.8837 34.9853 14.0511C34.7709 14.2184 34.5068 14.3093 34.2348 14.3093C33.9628 14.3093 33.6987 14.2184 33.4843 14.0511C33.2699 13.8837 33.1177 13.6495 33.0516 13.3857C33.0032 13.1187 32.9864 12.8469 33.0014 12.576C33.0014 8.97241 33.0139 5.36886 32.9863 1.7628C32.9863 1.00839 33.1497 0.414924 33.791 0.00251475L34.6812 0Z" fill="black"/>
<path d="M48.7182 60.3701L56.0812 56.8999C56.9966 56.4673 57.9018 56.0122 58.8323 55.6149C60.1986 55.0371 61.7254 54.9624 63.1416 55.4039C64.5578 55.8454 65.7716 56.7746 66.5675 58.0264C67.1207 58.9066 67.0075 59.5353 66.1374 60.1011C58.8449 64.8262 51.59 69.6217 44.2194 74.2236C41.6092 75.8556 38.5186 76.2982 35.4809 75.8179C32.8631 75.4055 30.3006 74.6108 27.7306 73.9243C24.6325 73.097 21.5495 72.2143 18.4665 71.3342C17.8523 71.1414 17.2046 71.0792 16.565 71.1515C15.9254 71.2238 15.3079 71.4291 14.7523 71.7541C14.4153 71.9613 14.0659 72.1478 13.7062 72.3124C12.8688 72.6594 12.2577 73.0844 12.3181 74.1707C12.3558 74.8271 11.8151 75.247 11.1312 75.2345C7.84446 75.1666 4.56027 75.0936 1.27609 74.983C0.36577 74.9528 -0.0240068 74.4197 0.00114012 73.4214C0.106757 69.4934 0.215727 65.5655 0.328049 61.6375C0.413549 58.5998 0.497372 55.5612 0.579518 52.5218C0.614724 51.1915 1.00199 50.8194 2.3398 50.852C5.30462 50.925 8.26944 50.9929 11.2343 51.0733C12.65 51.1111 13.0121 51.5235 12.9543 52.9518C12.9367 53.3944 12.9543 53.837 12.9543 54.3701C13.158 54.2946 13.3541 54.2318 13.5377 54.1488C18.2905 52.0239 23.0382 52.0339 27.6879 54.3701C29.7222 55.3911 31.7767 56.0197 34.0601 56.0172C36.532 56.0172 39.0014 56.1681 41.4709 56.2083C44.5262 56.2561 46.8875 57.5135 48.512 60.1162C48.5648 60.1866 48.6327 60.262 48.7182 60.3701ZM63.7736 58.6526C62.6873 57.5285 61.0678 57.2997 59.4987 58.0365C56.4383 59.4749 53.393 60.941 50.3226 62.3593C49.7316 62.6308 49.4726 62.8622 49.5908 63.6166C49.8272 65.0852 49.2941 65.6108 47.8029 65.573C43.3787 65.4624 38.9562 65.345 34.5354 65.221C34.1142 65.224 33.6936 65.1912 33.278 65.1229C33.019 65.062 32.7871 64.9178 32.6178 64.7126C32.4485 64.5073 32.3512 64.2523 32.3406 63.9864C32.3301 63.7206 32.4069 63.4586 32.5594 63.2406C32.7119 63.0225 32.9316 62.8605 33.185 62.7792C33.4746 62.7152 33.7723 62.6966 34.0676 62.7239C38.0677 62.8262 42.0702 62.9326 46.0753 63.0432C46.3645 63.0432 46.6562 63.0432 46.9529 63.0432C46.6436 60.8052 44.4935 58.8739 42.175 58.7482C40.6209 58.6627 39.0643 58.6451 37.5077 58.5948C35.7047 58.5394 33.8991 58.5244 32.0986 58.4162C30.0039 58.2905 28.1807 57.3399 26.3148 56.4699C21.9317 54.4254 17.609 54.6618 13.3944 57.0407C13.2054 57.1277 13.0481 57.2712 12.9441 57.4513C12.84 57.6314 12.7944 57.8394 12.8135 58.0466C12.7179 61.9267 12.5997 65.8044 12.4891 69.682C12.4951 69.7868 12.5085 69.891 12.5293 69.9939C12.5935 70.0036 12.6588 70.0036 12.7229 69.9939C12.9241 69.8983 13.1278 69.8078 13.3189 69.6946C15.2351 68.5504 17.2519 68.3694 19.3818 68.993C21.7708 69.6954 24.1681 70.3727 26.5739 71.0249C29.4783 71.8145 32.3576 72.7399 35.3074 73.2881C38.1088 73.856 41.0213 73.3229 43.4399 71.7994C49.4751 67.9746 55.4375 64.0642 61.43 60.1866C62.212 59.6836 62.9865 59.1807 63.7736 58.6526ZM9.91656 72.589C10.0901 66.2897 10.2636 59.9376 10.4421 53.4774H3.05397C2.88046 59.8043 2.70443 66.1388 2.5284 72.589H9.91656Z" fill="black"/>
<path d="M34.2286 52.6928C30.6594 52.6868 27.1721 51.6228 24.2075 49.6354C21.2429 47.6479 18.934 44.8261 17.5727 41.5267C16.2115 38.2273 15.8589 34.5984 16.5596 31.0987C17.2603 27.599 18.9828 24.3855 21.5094 21.8646C24.036 19.3436 27.2533 17.6282 30.7545 16.9353C34.2558 16.2424 37.8839 16.6031 41.1803 17.9717C44.4766 19.3403 47.2933 21.6555 49.2741 24.6245C51.255 27.5936 52.3112 31.0832 52.3092 34.6524C52.3066 37.0241 51.8368 39.3721 50.9267 41.5623C50.0167 43.7525 48.6841 45.742 47.0052 47.4172C45.3262 49.0924 43.3338 50.4205 41.1416 51.3257C38.9494 52.2309 36.6003 52.6954 34.2286 52.6928V52.6928ZM34.1909 50.2183C37.2662 50.2257 40.2747 49.3219 42.8369 47.6211C45.3991 45.9203 47.4001 43.4987 48.5873 40.6618C49.7746 37.8249 50.0949 34.6999 49.5079 31.6811C48.9208 28.6624 47.4527 25.8851 45.2889 23.6999C43.125 21.5147 40.3624 20.0194 37.3495 19.4027C34.3367 18.786 31.2087 19.0756 28.3602 20.2349C25.5118 21.3942 23.0706 23.3713 21.3447 25.9166C19.6188 28.462 18.6855 31.4615 18.6627 34.5367C18.6507 36.5865 19.0431 38.6185 19.8174 40.5165C20.5916 42.4144 21.7326 44.1411 23.1749 45.5976C24.6172 47.0542 26.3325 48.212 28.2228 49.0049C30.113 49.7977 32.1411 50.2101 34.1909 50.2183V50.2183Z" fill="black"/>
<path d="M44.8105 10.2348C44.8105 11.1501 44.8255 12.063 44.8105 12.9783C44.7928 13.778 44.3075 14.291 43.621 14.3161C42.9345 14.3413 42.3637 13.8132 42.3637 12.9833C42.3435 11.1795 42.3435 9.37559 42.3637 7.57172C42.3637 6.73936 42.9018 6.21379 43.621 6.23642C44.3402 6.25905 44.7954 6.76199 44.8155 7.56669C44.8255 8.45689 44.8105 9.34458 44.8105 10.2348Z" fill="black"/>
<path d="M26.1263 10.3027C26.1263 11.1904 26.1414 12.0806 26.1263 12.9708C26.1062 13.8032 25.5932 14.3312 24.8689 14.3161C24.1447 14.3011 23.6795 13.7881 23.6719 12.9909C23.6518 11.1887 23.6518 9.38484 23.6719 7.5793C23.6719 6.74191 24.2 6.21885 24.9293 6.23645C25.6586 6.25406 26.1112 6.75699 26.1313 7.55918C26.1439 8.47453 26.1263 9.38987 26.1263 10.3027Z" fill="black"/>
<path d="M31.4146 30.478C31.4083 31.1508 31.6474 31.8027 32.0871 32.3119C32.5269 32.821 33.1371 33.1525 33.8035 33.2442C34.387 33.3322 34.9905 33.3423 35.5638 33.4957C36.6489 33.767 37.6199 34.376 38.3366 35.2346C39.0534 36.0933 39.479 37.1574 39.5521 38.2736C39.6326 39.3668 39.3647 40.4575 38.7869 41.3891C38.2091 42.3206 37.351 43.0452 36.3358 43.4589C35.5311 43.7656 35.2093 44.1152 35.2973 44.9677C35.3652 45.6491 34.9301 46.0917 34.2688 46.2099C33.998 46.269 33.715 46.227 33.4732 46.0917C33.2314 45.9564 33.0474 45.7373 32.9561 45.4756C32.855 45.1966 32.8197 44.898 32.853 44.603C32.9083 44.0146 32.7222 43.7128 32.1313 43.4589C30.1899 42.6315 29.1614 41.08 28.9326 39.0003C28.832 38.0925 29.2997 37.4462 30.0541 37.3758C30.8086 37.3054 31.3366 37.8511 31.4221 38.7815C31.4508 39.3198 31.6329 39.8386 31.9469 40.2766C32.2609 40.7147 32.6938 41.0538 33.1943 41.2538C33.6948 41.4538 34.2421 41.5064 34.7715 41.4053C35.301 41.3043 35.7904 41.0538 36.1821 40.6835C36.5738 40.3133 36.8513 39.8386 36.982 39.3157C37.1126 38.7928 37.0908 38.2434 36.9192 37.7324C36.7477 37.2215 36.4334 36.7703 36.0137 36.4322C35.5939 36.094 35.0862 35.8831 34.5504 35.8243C33.4339 35.7036 32.345 35.5879 31.3844 34.9441C29.6568 33.7848 28.7968 32.1503 28.9452 30.0958C29.0986 27.9784 30.2025 26.4294 32.1765 25.5895C32.6971 25.3657 32.9309 25.1293 32.8505 24.5836C32.8249 24.3371 32.841 24.088 32.8983 23.8468C32.943 23.5738 33.0867 23.3267 33.3019 23.1528C33.5171 22.9789 33.7887 22.8903 34.0651 22.9038C34.354 22.8848 34.6395 22.9751 34.8649 23.1568C35.0903 23.3384 35.2393 23.5982 35.2822 23.8845C35.329 24.0771 35.3383 24.2768 35.3098 24.473C35.2067 25.0815 35.4959 25.3003 36.0466 25.504C38.1766 26.2936 39.3157 27.8954 39.5496 30.1285C39.6452 31.0212 39.1447 31.67 38.3828 31.7203C37.6636 31.7681 37.1431 31.2174 37.0601 30.3422C36.9117 28.7454 35.6845 27.5987 34.1707 27.6465C33.4325 27.6649 32.7307 27.9715 32.2156 28.5006C31.7006 29.0298 31.413 29.7396 31.4146 30.478V30.478Z" fill="black"/>
</svg>
