<svg width="110" height="110" viewBox="0 0 110 110" fill="none" xmlns="http://www.w3.org/2000/svg">
<circle cx="55" cy="55" r="55" fill="#F8F8F8"/>
<path d="M95.4735 69.3433C95.2395 70.2533 95.0668 71.1867 94.7625 72.0733C92.8138 77.7233 87.3862 81.1262 81.2709 80.5586C75.7408 80.0495 71.03 75.523 70.1522 69.8407C70.1522 69.7647 70.1171 69.6886 70.0849 69.5482H63.5395C63.3232 72.5517 62.5638 75.4912 61.2982 78.2236C59.5423 82.0142 56.8479 85.2937 53.4701 87.7517C50.0923 90.2096 46.1429 91.7646 41.9961 92.2693C37.8492 92.7741 33.6421 92.2118 29.7733 90.6359C25.9045 89.0599 22.5021 86.5225 19.8883 83.2638C17.2744 80.0051 15.5357 76.1331 14.8368 72.0145C14.1379 67.8959 14.502 63.6671 15.8946 59.7286C17.2871 55.7901 19.6621 52.2722 22.7944 49.5083C25.9268 46.7443 29.7129 44.8257 33.7941 43.9342C38.6883 42.8193 43.8098 43.2833 48.4239 45.2597C48.9711 45.4879 49.2842 45.4674 49.6704 44.9671C51.2358 42.9511 52.8509 40.9731 54.4748 38.9454C50.791 35.6713 48.9682 31.6305 49.293 26.7266C49.5417 22.9667 51.1246 19.7891 53.8633 17.1967C59.4227 11.93 68.2503 12.0616 73.836 17.4308C79.5299 22.9023 80.1415 33.3451 72.6071 39.3024C72.7417 39.5189 72.8733 39.7413 73.0196 39.9549C76.363 44.7847 79.7035 49.6184 83.0411 54.456C83.1869 54.696 83.3881 54.8975 83.6279 55.0436C83.8677 55.1897 84.1391 55.2762 84.4192 55.2958C87.1429 55.6612 89.6752 56.8979 91.6381 58.8212C93.6009 60.7444 94.8889 63.2511 95.3097 65.9668C95.3478 66.1416 95.3976 66.3136 95.4589 66.4817L95.4735 69.3433ZM60.4029 67.9389C60.4098 63.7096 59.1622 59.5732 56.818 56.053C54.4737 52.5329 51.1381 49.787 47.233 48.1629C43.328 46.5388 39.0289 46.1094 34.8798 46.929C30.7306 47.7485 26.9178 49.7803 23.9235 52.7672C20.9292 55.7541 18.8881 59.5619 18.0583 63.709C17.2285 67.8562 17.6474 72.1562 19.2618 76.0653C20.8763 79.9743 23.6139 83.3167 27.1283 85.6696C30.6426 88.0226 34.7759 89.2803 39.0052 89.2838C41.8122 89.2888 44.5926 88.7405 47.1875 87.6702C49.7824 86.6 52.1409 85.0287 54.1282 83.0464C56.1154 81.064 57.6925 78.7094 58.7691 76.1171C59.8458 73.5249 60.4009 70.7458 60.4029 67.9389V67.9389ZM52.4354 27.7565C52.4256 29.9932 53.0793 32.1825 54.3137 34.0477C55.5482 35.9128 57.308 37.3701 59.3706 38.2351C61.4333 39.1001 63.7061 39.334 65.9017 38.9073C68.0973 38.4806 70.117 37.4124 71.7055 35.8378C73.294 34.2632 74.38 32.253 74.826 30.0612C75.272 27.8694 75.058 25.5947 74.2112 23.5245C73.3644 21.4543 71.9227 19.6818 70.0684 18.4309C68.2142 17.1801 66.0307 16.5073 63.7941 16.4974C60.7959 16.488 57.9165 17.6681 55.7871 19.7788C53.6578 21.8894 52.4525 24.7584 52.4354 27.7565V27.7565ZM79.805 55.4772C79.7874 55.3689 79.805 55.3075 79.7669 55.2694C76.5484 50.6113 73.3298 45.9522 70.1112 41.2921C69.8186 40.8736 69.5728 41.0346 69.2481 41.1662C66.9834 42.0733 64.6338 42.5444 62.2257 42.1435C60.5053 41.8509 58.8228 41.3418 56.9941 40.8971L52.0463 47.0767C58.9604 51.6968 62.7963 58.0725 63.56 66.2711H70.0586C71.1265 60.6415 74.3627 57.0894 79.805 55.4772V55.4772ZM82.7309 77.4775C84.6248 77.4798 86.4767 76.9201 88.0522 75.8691C89.6277 74.8181 90.8558 73.3233 91.5811 71.5738C92.3064 69.8243 92.4962 67.899 92.1264 66.0416C91.7566 64.1842 90.844 62.4783 89.504 61.1399C88.164 59.8016 86.457 58.891 84.5992 58.5235C82.7413 58.1561 80.8162 58.3482 79.0676 59.0756C77.319 59.803 75.8257 61.033 74.7766 62.6098C73.7276 64.1866 73.1701 66.0392 73.1747 67.933C73.1893 70.4624 74.2016 72.8838 75.9916 74.671C77.7815 76.4582 80.2045 77.4668 82.7339 77.4775H82.7309Z" fill="black"/>
<path d="M39.0323 82.8086C35.9737 82.8086 32.918 82.8086 29.8652 82.8086C28.4374 82.8086 27.9048 82.2673 27.9107 80.8541C27.9341 75.0168 32.6332 70.0543 38.3623 69.8232C44.5068 69.5774 49.5746 73.9195 50.1071 79.9119C50.1071 80.0436 50.1364 80.1752 50.1481 80.3069C50.3061 82.2293 49.7823 82.8115 47.8804 82.8115L39.0323 82.8086ZM31.2873 79.5901H46.8563C46.5224 77.6139 45.4533 75.8372 43.8637 74.6166C42.274 73.3961 40.2816 72.822 38.2862 73.0095C34.7282 73.3109 31.2258 76.5997 31.2873 79.5783V79.5901Z" fill="black"/>
<path d="M39.0646 53.034C40.9666 53.0754 42.7765 53.861 44.1058 55.222C45.4351 56.5831 46.1777 58.411 46.1743 60.3135C46.1708 62.216 45.4216 64.0412 44.0874 65.3975C42.7532 66.7537 40.9404 67.5327 39.0382 67.5672C38.0717 67.5848 37.1114 67.4094 36.2135 67.0513C35.3156 66.6931 34.4982 66.1595 33.809 65.4815C33.1199 64.8036 32.573 63.995 32.2002 63.1031C31.8274 62.2112 31.6363 61.2538 31.6381 60.2872C31.6398 59.3205 31.8344 58.3639 32.2104 57.4733C32.5864 56.5827 33.1363 55.7761 33.8279 55.1007C34.5194 54.4253 35.3388 53.8946 36.238 53.5397C37.1372 53.1848 38.0981 53.0129 39.0646 53.034V53.034ZM39.0441 56.1969C37.9522 56.1923 36.903 56.6209 36.1268 57.3889C35.3506 58.1569 34.9108 59.2014 34.9038 60.2933C34.923 61.3839 35.3687 62.4235 36.1454 63.1893C36.9221 63.9551 37.968 64.386 39.0587 64.3896C40.1404 64.3797 41.1747 63.9443 41.938 63.1778C42.7013 62.4112 43.1322 61.375 43.1375 60.2933C43.1426 59.754 43.0402 59.2192 42.8364 58.7199C42.6325 58.2207 42.3313 57.767 41.9502 57.3854C41.5692 57.0038 41.116 56.702 40.617 56.4974C40.118 56.2928 39.5833 56.1897 39.0441 56.194V56.1969Z" fill="black"/>
<path d="M31.2874 79.5784C31.226 76.5997 34.7284 73.311 38.2863 72.9979C40.2817 72.8103 42.2742 73.3844 43.8638 74.605C45.4534 75.8256 46.5225 77.6022 46.8565 79.5784H31.2874Z" fill="#746EE9"/>
<path d="M39.0439 56.1941C39.5854 56.1894 40.1224 56.293 40.6233 56.4988C41.1241 56.7046 41.5788 57.0086 41.9604 57.3927C42.3421 57.7768 42.6431 58.2334 42.8457 58.7356C43.0484 59.2377 43.1485 59.7754 43.1403 60.3168C43.135 61.3986 42.7041 62.4347 41.9408 63.2013C41.1775 63.9679 40.1432 64.4032 39.0615 64.4132C37.9708 64.4095 36.9249 63.9786 36.1482 63.2128C35.3715 62.447 34.9257 61.4074 34.9066 60.3168C34.9066 59.7742 35.0137 59.2369 35.2218 58.7357C35.4299 58.2346 35.7349 57.7795 36.1193 57.3964C36.5037 57.0134 36.9599 56.7101 37.4618 56.5037C37.9636 56.2974 38.5013 56.1922 39.0439 56.1941V56.1941Z" fill="#746EE9"/>
</svg>
