<svg width="77" height="82" viewBox="0 0 77 82" fill="none" xmlns="http://www.w3.org/2000/svg">
<path d="M52.8599 69.6793H55.016V76.5476H29.7493V69.6985H31.9796C32.0323 68.6253 32.0922 67.6718 31.5963 66.7087C30.3434 64.2796 29.2007 61.8001 27.9789 59.3494C27.2602 57.8904 27.1931 56.2949 26.9823 54.733C26.7979 53.3771 26.726 51.9996 26.4409 50.6604C26.2397 49.7213 25.7989 48.8254 25.3892 47.9462C25.1497 47.4071 24.7256 46.9472 24.4166 46.4345C24.1316 45.9876 23.9742 45.4714 23.9613 44.9415C23.9484 44.4117 24.0806 43.8884 24.3435 43.4282C24.6064 42.968 24.99 42.5883 25.453 42.3303C25.916 42.0723 26.4407 41.9458 26.9704 41.9643C28.68 41.9844 30.3304 42.5939 31.6428 43.6899C32.9552 44.7858 33.8493 46.301 34.174 47.9797C34.4854 49.4818 34.7753 50.9886 35.0772 52.4931L35.2688 52.5242C35.3707 52.0263 35.4388 51.5221 35.4724 51.015C35.4868 45.0115 35.4868 39.0073 35.4724 33.0022C35.4724 32.1637 35.4988 31.3253 35.4533 30.482C35.4373 30.3578 35.3929 30.2389 35.3235 30.1346C35.2541 30.0303 35.1616 29.9434 35.0532 29.8807C30.3841 28.187 27.5142 24.9337 26.4769 20.0706C26.4393 19.9428 26.3945 19.8172 26.3427 19.6945L21.8245 22.1836C22.3037 22.7537 22.7636 23.3335 23.2475 23.8964C26.2229 27.3581 27.0973 31.2869 25.521 35.5679C23.9447 39.8489 20.7824 42.3787 16.2619 43.0255C10.1027 43.9047 4.30529 39.6046 3.35663 33.5604C2.36483 27.2503 6.47094 21.3882 12.6996 20.2766C14.6698 19.9079 16.7031 20.0801 18.5832 20.7749C18.7749 20.8589 18.9841 20.8949 19.1928 20.8798C19.4015 20.8648 19.6034 20.7992 19.7811 20.6887C21.7423 19.5803 23.7179 18.4943 25.7079 17.4306C25.8985 17.3413 26.061 17.2014 26.1776 17.0261C26.2942 16.8508 26.3604 16.6468 26.369 16.4364C27.0877 10.7157 31.019 6.46103 36.608 5.33029C43.6367 3.90729 50.7206 9.07706 51.4848 16.2065C51.4887 16.4865 51.5724 16.7597 51.726 16.9939C51.8796 17.2281 52.0968 17.4136 52.3521 17.5288C54.2973 18.5494 56.2138 19.6562 58.1662 20.6863C58.4917 20.8458 58.865 20.8783 59.2131 20.7773C60.7193 20.2347 62.3217 20.0111 63.9188 20.1208C65.516 20.2305 67.0728 20.671 68.4907 21.4144C69.9085 22.1577 71.1563 23.1877 72.1548 24.439C73.1534 25.6903 73.8809 27.1355 74.2912 28.6829C76.0185 35.1511 71.8189 41.7439 65.207 42.968C62.7482 43.4137 60.2112 43.0477 57.9787 41.9252C55.7461 40.8027 53.9392 38.9846 52.8304 36.7452C51.7217 34.5058 51.3713 31.9666 51.8321 29.5106C52.2929 27.0546 53.5398 24.815 55.3849 23.1298C55.6652 22.8735 55.9575 22.6291 56.312 22.3177L51.4992 19.6753C51.4154 20.0514 51.3507 20.3749 51.2596 20.6935C50.0618 25.1661 47.3188 28.2349 42.942 29.7969C42.6042 29.919 42.3719 30.0149 42.3766 30.47C42.4006 33.4718 42.3766 36.4735 42.391 39.4752C42.4002 39.6078 42.417 39.7398 42.4413 39.8705C43.0155 39.6836 43.6282 39.6478 44.2203 39.7665C44.8124 39.8853 45.3639 40.1546 45.8216 40.5485C48.198 38.8356 50.6368 39.904 51.4896 42.1368C52.2251 42.1368 52.9821 42.0122 53.6792 42.1631C54.3889 42.3233 55.024 42.7175 55.4825 43.2824C55.9409 43.8473 56.196 44.55 56.2066 45.2774C56.233 50.4879 56.2426 55.7008 56.1946 60.9113C56.1803 62.5068 55.5766 63.9562 54.6327 65.2498C54.2781 65.7289 53.914 66.2081 53.5523 66.6872C52.6707 67.8826 52.6204 68.0575 52.8599 69.6793ZM34.3896 69.6218H50.4643C50.4643 69.0205 50.5026 68.4671 50.4643 67.9209C50.4353 67.6128 50.4713 67.302 50.57 67.0086C50.6686 66.7152 50.8276 66.4457 51.0368 66.2176C51.6765 65.4415 52.2634 64.6174 52.8503 63.798C53.5426 62.864 53.9194 61.7337 53.926 60.5711C53.9388 55.601 53.9388 50.6301 53.926 45.6583C53.926 44.8199 53.4469 44.3024 52.7545 44.3168C52.0622 44.3312 51.6406 44.8294 51.6262 45.6296C51.6262 46.3195 51.6262 47.0095 51.6262 47.7258H49.3383C49.3383 47.5677 49.3144 47.4503 49.3144 47.3353C49.3144 45.965 49.3264 44.5971 49.3144 43.2268C49.3144 42.4913 48.8185 42.0074 48.1645 42.0098C47.5105 42.0122 47.0505 42.4889 47.0194 43.2316C47.0026 43.6412 47.0194 44.0485 47.0194 44.4581V47.733H44.7148C44.7148 46.2956 44.7148 44.875 44.7148 43.4639C44.7148 42.5464 44.2955 42.0266 43.5816 42.0098C42.8678 41.993 42.4222 42.5296 42.4126 43.428C42.4126 43.9071 42.4126 44.3863 42.4126 44.8654V47.709H40.0912V29.9454C40.1008 29.7058 40.096 29.4658 40.0768 29.2267C40.0541 28.9355 39.9194 28.6644 39.7009 28.4705C39.4824 28.2766 39.1973 28.175 38.9054 28.187C38.6242 28.1875 38.3537 28.2946 38.1483 28.4867C37.943 28.6787 37.818 28.9414 37.7986 29.2219C37.7758 29.4608 37.771 29.701 37.7842 29.9406C37.7842 36.9287 37.8082 43.9167 37.7579 50.9048C37.7429 51.884 37.5446 52.8517 37.1733 53.758C36.3085 55.8901 36.251 55.8541 33.956 55.8206C33.5056 55.8206 33.3475 55.6769 33.2637 55.2313C32.8229 52.9219 32.3589 50.6181 31.8718 48.3199C31.4095 46.1638 29.5816 44.4869 27.4926 44.3312C27.1261 44.3024 26.7428 44.4821 26.3667 44.5707C26.4411 44.9416 26.5396 45.3073 26.6613 45.6655C26.7993 45.9457 26.9698 46.2086 27.1692 46.4489C28.0782 47.6667 28.6403 49.108 28.7958 50.6197C28.9372 51.9564 29.0761 53.2956 29.2989 54.6204C29.5217 55.9452 29.6654 57.2556 30.1517 58.4534C30.9806 60.4945 32.0132 62.4541 33.0265 64.4137C33.8602 66.026 34.6148 67.6335 34.3441 69.5212C34.3393 69.5236 34.3561 69.5476 34.38 69.6218H34.3896ZM47.1847 24.0186C50.5577 19.6873 49.839 13.4778 45.6323 9.86522C41.4711 6.29573 35.1874 6.66226 31.3783 10.7133C27.4662 14.8721 28.0244 20.8109 30.7291 23.9755C31.6736 22.144 33.1961 20.6754 35.0604 19.7975C32.5737 16.6065 32.5905 13.4922 35.0748 11.2283C36.1419 10.2557 37.5359 9.72015 38.9797 9.72814C40.4235 9.73613 41.8115 10.2871 42.8678 11.2715C45.3113 13.5545 45.3089 16.6928 42.8342 19.7879C44.7059 20.684 46.2312 22.1706 47.1751 24.0186H47.1847ZM10.7711 34.672C8.44015 31.8595 8.3587 28.7715 10.601 26.4645C11.5856 25.4415 12.9151 24.8206 14.3316 24.7224C15.7481 24.6241 17.1506 25.0554 18.267 25.9327C19.4309 26.8135 20.2046 28.1142 20.4231 29.5573C20.7609 31.6032 20.023 33.2945 18.6383 34.7367C19.2564 35.1415 19.8362 35.4745 20.368 35.8842C20.8998 36.2938 21.3981 36.8113 21.9108 37.2784C24.2561 34.8445 25.2311 29.2363 21.3526 25.2068C20.4944 24.3221 19.4672 23.6186 18.3321 23.1383C17.1969 22.6579 15.9769 22.4104 14.7443 22.4104C13.5116 22.4104 12.2916 22.6579 11.1564 23.1383C10.0213 23.6186 8.99412 24.3221 8.13591 25.2068C4.22624 29.2626 5.26115 34.878 7.51304 37.2137L10.7711 34.672ZM70.3983 37.2185C72.9784 34.3438 73.4623 28.5368 69.3179 24.7852C68.395 23.9495 67.312 23.3099 66.1345 22.9052C64.957 22.5005 63.7096 22.3392 62.468 22.4311C61.2263 22.5229 60.0162 22.866 58.9111 23.4395C57.8059 24.013 56.8288 24.805 56.0389 25.7674C52.5533 30.0077 53.9955 35.4002 56.0054 37.2664C56.5228 36.7873 57.0092 36.2962 57.5554 35.8722C58.1016 35.4482 58.6861 35.1224 59.2634 34.7462C56.3767 31.7685 57.2487 28.2589 59.0454 26.4454C60.0649 25.4062 61.4407 24.7924 62.8951 24.7279C64.3494 24.6635 65.7741 25.1531 66.8815 26.098C68.0243 27.0455 68.7445 28.4076 68.8843 29.8855C69.0831 31.802 68.3788 33.3975 67.0995 34.6768L70.3983 37.2185ZM45.5053 25.9591C45.2825 25.4799 45.1652 25.1637 44.9999 24.8762C43.5793 22.4159 41.44 21.1367 38.6035 21.2828C35.8581 21.4122 33.8817 22.8304 32.6863 25.3051C32.5905 25.5039 32.5378 25.8992 32.6432 25.9854C33.5854 26.7809 34.6912 27.3592 35.8821 27.6791C37.456 25.2835 40.4194 25.2404 42.1347 27.7821L45.5053 25.9591ZM32.0539 74.2358H52.7162V72.0151H32.0539V74.2358ZM66.6036 30.4557C66.5999 29.7734 66.3943 29.1075 66.0128 28.5419C65.6312 27.9762 65.0909 27.5361 64.4597 27.277C63.8286 27.0179 63.1349 26.9513 62.466 27.0857C61.797 27.2201 61.1828 27.5494 60.7007 28.0322C60.2186 28.5149 59.8902 29.1296 59.7567 29.7987C59.6232 30.4678 59.6908 31.1614 59.9508 31.7922C60.2108 32.423 60.6516 32.9627 61.2178 33.3435C61.7839 33.7242 62.4501 33.9289 63.1324 33.9317C63.5886 33.9317 64.0404 33.8418 64.4619 33.667C64.8834 33.4923 65.2662 33.2362 65.5886 32.9133C65.911 32.5905 66.1666 32.2072 66.3408 31.7855C66.515 31.3638 66.6043 30.9119 66.6036 30.4557ZM14.7407 27.0179C14.0585 27.0152 13.3908 27.2143 12.8216 27.5902C12.2523 27.9662 11.8071 28.5021 11.5418 29.1306C11.2766 29.7591 11.2032 30.452 11.3309 31.1221C11.4586 31.7922 11.7818 32.4095 12.2596 32.8963C12.7375 33.3832 13.3487 33.7177 14.0163 33.8579C14.6839 33.9981 15.378 33.9376 16.0113 33.6841C16.6446 33.4306 17.1888 32.9954 17.5753 32.4333C17.9617 31.8711 18.1732 31.2072 18.1832 30.5251C18.1882 30.0686 18.1031 29.6155 17.9327 29.192C17.7623 28.7684 17.5099 28.3826 17.1901 28.0568C16.8703 27.7309 16.4893 27.4714 16.0689 27.2932C15.6486 27.1149 15.1972 27.0214 14.7407 27.0179ZM42.3934 15.5189C42.4001 14.8337 42.2029 14.162 41.827 13.5891C41.4511 13.0161 40.9135 12.5678 40.2823 12.3011C39.6511 12.0344 38.9549 11.9613 38.282 12.091C37.6092 12.2208 36.9901 12.5476 36.5034 13.0299C36.0167 13.5123 35.6843 14.1284 35.5484 14.8C35.4126 15.4716 35.4794 16.1685 35.7404 16.8021C36.0014 17.4356 36.4448 17.9774 37.0143 18.3584C37.5838 18.7395 38.2537 18.9427 38.9389 18.9423C39.848 18.938 40.7191 18.5772 41.3651 17.9375C42.011 17.2979 42.3803 16.4303 42.3934 15.5213V15.5189ZM57.7254 38.9721C60.3894 41.4444 66.1101 41.4348 68.5944 38.953C66.0934 35.3523 60.0612 35.3619 57.7159 38.9745L57.7254 38.9721ZM9.25946 39.0009C12.6924 41.6696 17.5435 41.2336 20.1596 38.9721C17.7975 35.3643 11.7605 35.3571 9.25946 39.0009Z" fill="black"/>
<path d="M70.0661 67.3388H67.7615V66.5602C67.7615 61.9989 67.7615 57.4385 67.7615 52.8788C67.7615 52.4116 67.6753 52.1289 67.1985 51.8798C66.5387 51.5229 66.0184 50.9541 65.7215 50.2652C65.4247 49.5763 65.3686 48.8074 65.5623 48.0827C65.7446 47.3488 66.163 46.6952 66.7531 46.2223C67.3432 45.7494 68.0723 45.4835 68.8283 45.4656C69.5843 45.4476 70.3252 45.6785 70.9372 46.1228C71.5491 46.5671 71.998 47.2002 72.215 47.9246C72.4487 48.652 72.4243 49.4377 72.1458 50.1491C71.8674 50.8605 71.3519 51.4541 70.6866 51.8295C70.1499 52.1265 70.0445 52.4523 70.0469 53.0057C70.0685 57.4928 70.0589 61.9822 70.0589 66.4692L70.0661 67.3388ZM70.0661 48.9308C70.068 48.7037 70.0025 48.4812 69.8779 48.2914C69.7532 48.1016 69.5751 47.9531 69.366 47.8645C69.157 47.776 68.9263 47.7515 68.7033 47.7941C68.4803 47.8367 68.2749 47.9445 68.1132 48.1039C67.9515 48.2633 67.8406 48.467 67.7948 48.6894C67.7489 48.9118 67.77 49.1428 67.8555 49.3531C67.941 49.5635 68.0869 49.7438 68.2749 49.8711C68.4628 49.9985 68.6844 50.0673 68.9114 50.0687C69.2136 50.0663 69.5028 49.946 69.7176 49.7334C69.9324 49.5209 70.0557 49.2329 70.0613 48.9308H70.0661Z" fill="black"/>
<path d="M19.338 67.3412H17.0334V66.5506C17.0334 61.9686 17.0334 57.385 17.0334 52.7997C17.059 52.6166 17.0231 52.4301 16.9311 52.2696C16.8392 52.1092 16.6965 51.9838 16.5255 51.9133C15.853 51.559 15.3208 50.9868 15.0161 50.2904C14.7114 49.594 14.6524 48.8147 14.8486 48.0803C15.0328 47.3404 15.4573 46.6826 16.0555 46.2098C16.6537 45.737 17.3919 45.4761 18.1543 45.4679C18.9168 45.4596 19.6604 45.7046 20.2687 46.1644C20.8769 46.6241 21.3155 47.2727 21.5156 48.0085C21.7285 48.741 21.6852 49.5243 21.3929 50.229C21.1007 50.9337 20.577 51.5176 19.9081 51.8846C19.7156 51.9612 19.5537 52.0993 19.4476 52.2773C19.3414 52.4553 19.297 52.6634 19.3212 52.8692C19.3356 57.4065 19.3212 61.9415 19.3212 66.4788L19.338 67.3412ZM19.338 48.9092C19.3356 48.6825 19.2661 48.4615 19.1383 48.2743C19.0104 48.087 18.83 47.9418 18.6197 47.857C18.4094 47.7722 18.1787 47.7516 17.9567 47.7978C17.7347 47.844 17.5314 47.9549 17.3724 48.1166C17.2134 48.2783 17.1059 48.4834 17.0634 48.7061C17.0209 48.9289 17.0453 49.1592 17.1336 49.3681C17.2219 49.5769 17.3701 49.7549 17.5595 49.8796C17.7488 50.0043 17.9709 50.0701 18.1977 50.0687C18.501 50.0624 18.7898 49.9375 19.0021 49.7207C19.2144 49.504 19.3333 49.2126 19.3332 48.9092H19.338Z" fill="black"/>
<path d="M60.8428 45.4907H63.1618V46.2764C63.1618 50.8593 63.1618 55.4445 63.1618 60.0273C63.1368 60.2101 63.1728 60.396 63.2642 60.5563C63.3556 60.7165 63.4972 60.8422 63.6673 60.9137C64.3424 61.2658 64.8777 61.837 65.185 62.5337C65.4924 63.2303 65.5536 64.0107 65.3586 64.7467C65.1731 65.4924 64.7434 66.1546 64.138 66.6279C63.5326 67.1011 62.7863 67.3582 62.0179 67.3582C61.2495 67.3582 60.5031 67.1011 59.8977 66.6279C59.2923 66.1546 58.8627 65.4924 58.6772 64.7467C58.481 64.0124 58.54 63.2331 58.8447 62.5367C59.1494 61.8403 59.6816 61.268 60.3541 60.9137C60.5245 60.8431 60.6672 60.7188 60.7606 60.5597C60.854 60.4006 60.8929 60.2154 60.8716 60.0321C60.8548 55.4804 60.8596 50.912 60.8596 46.3531L60.8428 45.4907ZM63.1426 63.8987C63.1407 63.6716 63.0715 63.4503 62.9437 63.2626C62.8159 63.0749 62.6354 62.9293 62.4248 62.8443C62.2143 62.7593 61.9833 62.7386 61.761 62.785C61.5387 62.8313 61.3352 62.9425 61.1762 63.1046C61.0171 63.2666 60.9097 63.4722 60.8676 63.6953C60.8254 63.9184 60.8504 64.149 60.9394 64.3579C61.0284 64.5668 61.1773 64.7446 61.3674 64.8689C61.5574 64.9931 61.7801 65.0581 62.0071 65.0558C62.3102 65.0501 62.599 64.9257 62.8114 64.7093C63.0237 64.493 63.1427 64.2019 63.1426 63.8987V63.8987Z" fill="black"/>
<path d="M10.1153 45.493H12.4223V46.2716C12.4223 50.8537 12.4223 55.4373 12.4223 60.0225C12.4223 60.4442 12.5014 60.6909 12.9206 60.9113C13.5971 61.2622 14.1338 61.833 14.4426 62.5297C14.7513 63.2264 14.8136 64.0075 14.6191 64.7443C14.4358 65.4906 14.008 66.154 13.404 66.629C12.7999 67.104 12.0543 67.3632 11.2859 67.3654C10.5175 67.3676 9.77039 67.1127 9.16363 66.6412C8.55688 66.1696 8.12532 65.5087 7.93769 64.7635C7.73787 64.0291 7.79524 63.2485 8.10028 62.5513C8.40533 61.854 8.93969 61.2821 9.61464 60.9305C10.0698 60.6909 10.1297 60.4106 10.1297 59.9722C10.1201 55.4365 10.1201 50.9008 10.1297 46.3651L10.1153 45.493ZM11.2796 65.0558C11.5066 65.0539 11.728 64.9846 11.9157 64.8569C12.1034 64.7291 12.249 64.5485 12.334 64.338C12.419 64.1274 12.4396 63.8964 12.3933 63.6741C12.347 63.4519 12.2358 63.2483 12.0737 63.0893C11.9116 62.9303 11.7061 62.8229 11.4829 62.7807C11.2598 62.7386 11.0292 62.7636 10.8203 62.8525C10.6114 62.9415 10.4336 63.0904 10.3094 63.2805C10.1852 63.4706 10.1201 63.6932 10.1225 63.9202C10.1288 64.2232 10.2534 64.5116 10.4696 64.7238C10.6859 64.9361 10.9766 65.0552 11.2796 65.0558Z" fill="black"/>
<path d="M47.1755 24.0186C46.2291 22.169 44.7003 20.6823 42.8251 19.7879C45.2998 16.6928 45.3022 13.5593 42.8586 11.2715C41.8023 10.2871 40.4144 9.73616 38.9705 9.72817C37.5267 9.72018 36.1327 10.2557 35.0656 11.2284C32.5814 13.4922 32.5646 16.6065 35.0512 19.7975C33.1869 20.6754 31.6644 22.144 30.7199 23.9755C28.0249 20.8109 27.4571 14.8721 31.3692 10.7133C35.1782 6.66229 41.462 6.29576 45.6232 9.86525C49.8299 13.4755 50.5486 19.6873 47.1755 24.0186Z" fill="#746EE9"/>
</svg>
