<svg width="57" height="77" viewBox="0 0 57 77" fill="none" xmlns="http://www.w3.org/2000/svg">
<path d="M49.702 0.594727H7.4541V17.2786H49.702V0.594727Z" fill="#746EE9"/>
<path d="M0.67543 76.1001C0.156076 75.753 0 75.2606 0 74.6443C0 55.8489 0 37.0517 0 18.2527C0 17.1064 0.320224 16.7996 1.45581 16.7969H6.17574V1.49348C6.17574 0.309459 6.4852 0 7.66652 0H49.274C50.4554 0 50.7648 0.31215 50.7648 1.49348C50.7648 6.29952 50.7648 11.1047 50.7648 15.9089V16.7969H55.4013C56.6392 16.7969 56.9325 17.0822 56.9325 18.3254C56.9325 37.0723 56.9325 55.8193 56.9325 74.5663C56.9325 75.2013 56.8221 75.7368 56.2544 76.0974L0.67543 76.1001ZM17.7953 73.9823V73.1266C17.7953 69.2893 17.7953 65.4502 17.7953 61.6094C17.7953 60.4603 18.1101 60.1347 19.2349 60.1347C25.3775 60.1347 31.5209 60.1347 37.6653 60.1347C38.8412 60.1347 39.1453 60.4496 39.148 61.6416V73.9716H54.8147V18.9282H2.13124V73.9823H17.7953ZM48.6524 2.13393H8.31773V16.7566H48.6524V2.13393ZM29.5467 73.9823H37.0167V62.2633H29.5547L29.5467 73.9823ZM19.9157 62.2525V73.9877H27.3697V62.2471L19.9157 62.2525Z" fill="black"/>
<path d="M12.4941 32.2537C10.7638 32.2537 9.03086 32.2537 7.29788 32.2537C6.31031 32.2537 5.95241 31.9147 5.95241 30.9083C5.94164 28.6317 5.94164 26.3552 5.95241 24.0786C5.95241 23.0776 6.30492 22.7332 7.29788 22.7332C10.7369 22.7332 14.176 22.7332 17.615 22.7332C18.5999 22.7332 18.9605 23.0884 18.9605 24.0786C18.9605 26.3552 18.9605 28.6317 18.9605 30.9083C18.9605 31.8932 18.6026 32.2537 17.615 32.2537C15.9089 32.2564 14.2029 32.2537 12.4941 32.2537ZM8.07826 30.1225H16.8239V24.859H8.07826V30.1225Z" fill="black"/>
<path d="M44.5112 32.2538C42.7782 32.2538 41.0452 32.2538 39.3149 32.2538C38.3408 32.2538 37.9883 31.8932 37.9856 30.9083C37.9856 28.6317 37.9856 26.3552 37.9856 24.0787C37.9856 23.1072 38.3489 22.752 39.3311 22.752C42.7701 22.752 46.2091 22.752 49.6482 22.752C50.6035 22.752 50.9694 23.0911 50.9775 24.0302C50.9901 26.3624 50.9901 28.6883 50.9775 31.0079C50.9775 31.9093 50.6008 32.2565 49.6993 32.2591C47.9798 32.2591 46.2414 32.2538 44.5112 32.2538ZM48.8517 30.1306V24.8779H40.1249V30.1306H48.8517Z" fill="black"/>
<path d="M12.4242 44.2662C10.7423 44.2662 9.06047 44.2662 7.37862 44.2662C6.30224 44.2662 5.9578 43.9271 5.95511 42.8453C5.95511 40.6172 5.95511 38.39 5.95511 36.1637C5.95511 35.0443 6.25111 34.759 7.36786 34.7563C10.7585 34.7563 14.1482 34.7563 17.537 34.7563C18.6403 34.7563 18.9551 35.0685 18.9578 36.1556C18.9578 38.4053 18.9578 40.6567 18.9578 42.9099C18.9578 43.8948 18.5999 44.2554 17.6123 44.2554C15.8901 44.2742 14.1571 44.2662 12.4242 44.2662ZM8.08903 36.8687V42.1242H16.8346V36.8687H8.08903Z" fill="black"/>
<path d="M44.4815 34.7537C46.2145 34.7537 47.9448 34.7537 49.6778 34.7537C50.6438 34.7537 50.9748 35.0739 50.9802 36.0453C50.9927 38.347 50.9927 40.6477 50.9802 42.9476C50.9802 43.8921 50.6088 44.2581 49.6724 44.2608C46.2082 44.2608 42.7441 44.2608 39.2799 44.2608C38.3462 44.2608 37.9829 43.8814 37.9802 42.9449C37.9802 40.6432 37.9802 38.3425 37.9802 36.0426C37.9802 35.1008 38.33 34.759 39.2853 34.7563C41.0237 34.7483 42.7539 34.7537 44.4815 34.7537ZM48.9055 36.8849H40.1034V42.1807C42.9289 42.1807 45.7167 42.1807 48.5018 42.1592C48.6391 42.1592 48.8839 41.8658 48.8866 41.7044C48.9162 40.114 48.9055 38.5425 48.9055 36.8849Z" fill="black"/>
<path d="M44.5138 46.7364C46.2226 46.7364 47.9286 46.7364 49.6266 46.7364C50.6438 46.7364 50.9721 47.0594 50.9721 48.0819C50.9829 50.3585 50.9829 52.6341 50.9721 54.9089C50.9721 55.9287 50.6492 56.2543 49.6266 56.2543C46.1876 56.2651 42.7486 56.2651 39.3095 56.2543C38.3031 56.2543 37.9641 55.9072 37.9641 54.9089C37.9641 52.6341 37.9641 50.3585 37.9641 48.0819C37.9641 47.089 38.3058 46.7364 39.3095 46.7364C41.0506 46.7284 42.7835 46.7364 44.5138 46.7364ZM48.857 48.8731H40.106V54.107H48.857V48.8731Z" fill="black"/>
<path d="M12.4969 56.2597C10.7639 56.2597 9.0336 56.2597 7.30063 56.2597C6.28076 56.2597 5.95516 55.9422 5.95516 54.9142C5.94439 52.6377 5.94439 50.362 5.95516 48.0873C5.95516 47.0674 6.28076 46.7418 7.30063 46.7418C10.7397 46.7418 14.1787 46.7418 17.6177 46.7418C18.6161 46.7418 18.9632 47.0916 18.9632 48.0873C18.9632 50.3638 18.9632 52.6404 18.9632 54.9169C18.9632 55.9045 18.6215 56.249 17.6177 56.2624C15.9117 56.2597 14.2029 56.2597 12.4969 56.2597ZM16.8374 48.8677H8.09715V54.1419H16.8374V48.8677Z" fill="black"/>
<path d="M28.4677 22.7412C30.2007 22.7412 31.9336 22.7412 33.6666 22.7412C34.603 22.7412 34.9771 23.1045 34.9825 24.041C34.9932 26.3426 34.9932 28.6443 34.9825 30.9459C34.9825 31.8851 34.6057 32.2484 33.6693 32.2484C30.2051 32.2484 26.741 32.2484 23.2768 32.2484C22.3377 32.2484 21.9636 31.8851 21.961 30.9486C21.9502 28.6488 21.9502 26.3471 21.961 24.0436C21.961 23.1072 22.3377 22.7439 23.2714 22.7412C25.0044 22.7358 26.7374 22.7412 28.4677 22.7412ZM32.8647 24.8617H24.0895V30.1171H32.8647V24.8617Z" fill="black"/>
<path d="M28.4731 34.7536C30.206 34.7536 31.9363 34.7536 33.6693 34.7536C34.6138 34.7536 34.9771 35.1061 34.9825 36.0453C34.9932 38.3469 34.9932 40.6477 34.9825 42.9476C34.9825 43.8813 34.6004 44.2581 33.6639 44.2607C30.1998 44.2607 26.7356 44.2607 23.2714 44.2607C22.3404 44.2607 21.9636 43.8786 21.961 42.9449C21.9502 40.6432 21.9502 38.3415 21.961 36.0399C21.961 35.1061 22.3296 34.7563 23.2768 34.7536C25.0071 34.7482 26.7401 34.7536 28.4731 34.7536ZM32.8728 36.9064H24.0949V42.1241H32.8728V36.9064Z" fill="black"/>
<path d="M28.4246 56.2597C26.7428 56.2597 25.0609 56.2597 23.3791 56.2597C22.3027 56.2597 21.9609 55.9153 21.9583 54.8389C21.9583 52.6108 21.9583 50.3845 21.9583 48.1599C21.9583 47.0835 22.3 46.7526 23.3952 46.7526C26.7822 46.7526 30.171 46.7526 33.5616 46.7526C34.638 46.7526 34.9825 47.0943 34.9852 48.1734C34.9852 50.4015 34.9852 52.6287 34.9852 54.855C34.9852 55.9314 34.638 56.2543 33.5482 56.2597C31.834 56.2597 30.1334 56.2597 28.4246 56.2597ZM32.8593 54.1338V48.8892H24.1002V54.1231L32.8593 54.1338Z" fill="black"/>
<path d="M18.3335 9.45062C18.3335 8.28812 18.3335 7.12294 18.3335 5.95238C18.3335 4.99978 18.6834 4.64188 19.6198 4.63112C20.7339 4.62036 21.8479 4.62036 22.962 4.63112C23.8661 4.63112 24.2536 4.99709 24.259 5.8851C24.2752 8.237 24.2752 10.5898 24.259 12.9435C24.259 13.8396 23.8742 14.2163 22.9916 14.2297C21.8524 14.2459 20.7132 14.2459 19.5741 14.2297C18.6887 14.2297 18.3416 13.8449 18.3335 12.9354C18.3255 11.7783 18.3335 10.6158 18.3335 9.45062ZM20.4594 6.75966V12.1281H22.1466V6.74621L20.4594 6.75966Z" fill="black"/>
<path d="M34.794 6.71393V8.39039C35.6471 8.39039 36.4812 8.34196 37.3074 8.40923C37.7145 8.43106 38.101 8.59482 38.3999 8.87207C38.9381 9.49099 38.4618 10.4059 37.5926 10.4517C36.7234 10.4974 35.7708 10.4517 34.8129 10.4517V12.1523C35.6767 12.1523 36.5082 12.1523 37.3424 12.1523C38.1765 12.1523 38.6044 12.5075 38.6044 13.1749C38.6044 13.8423 38.1631 14.2163 37.3504 14.2271C36.2095 14.2271 35.0712 14.2432 33.9302 14.2271C33.0799 14.2109 32.6924 13.8423 32.687 12.9919C32.6709 10.6149 32.6709 8.23701 32.687 5.85821C32.687 5.00787 33.0799 4.63921 33.9302 4.62844C35.0945 4.6123 36.2606 4.6123 37.4285 4.62844C38.1792 4.62844 38.6125 5.04285 38.6098 5.67522C38.6071 6.3076 38.2035 6.68702 37.4231 6.70048C36.5727 6.72738 35.7305 6.71393 34.794 6.71393Z" fill="black"/>
<path d="M14.9806 8.33386C14.9806 7.47545 14.9806 6.68431 14.9806 5.89586C14.9806 5.10741 15.4273 4.62573 16.0569 4.64187C16.6866 4.65802 17.0553 5.12624 17.058 5.87164C17.058 8.24865 17.058 10.6257 17.058 13.0027C17.058 13.7481 16.6516 14.2163 16.0543 14.2324C15.4569 14.2486 15.0021 13.7588 14.9779 12.9758C14.9537 12.1927 14.9779 11.3962 14.9779 10.5377H13.2045C13.2045 11.3773 13.2045 12.1873 13.2045 12.9973C13.2045 13.7507 12.8036 14.2136 12.2035 14.2297C11.6034 14.2459 11.1271 13.7642 11.1271 12.9784C11.1146 10.6266 11.1146 8.27376 11.1271 5.92008C11.1271 5.11279 11.5469 4.64187 12.1712 4.64187C12.7955 4.64187 13.1884 5.11817 13.1992 5.92008C13.2099 6.72198 13.1992 7.49428 13.1992 8.34193L14.9806 8.33386Z" fill="black"/>
<path d="M41.9627 12.1631C42.9073 12.1631 43.7442 12.1631 44.581 12.1631C45.3291 12.1631 45.7866 12.564 45.7947 13.1722C45.8027 13.7803 45.348 14.219 44.6106 14.2324C43.4239 14.2539 42.2345 14.2566 41.0451 14.2324C40.2513 14.2136 39.8907 13.8288 39.8853 13.0107C39.8746 10.6319 39.8746 8.25402 39.8853 5.87702C39.8853 5.12355 40.2755 4.66071 40.8756 4.63918C41.4757 4.61765 41.952 5.10202 41.952 5.8824C41.952 7.6665 41.952 9.4506 41.952 11.232L41.9627 12.1631Z" fill="black"/>
<path d="M29.5118 6.70857V12.3138C29.5118 12.5345 29.5118 12.7578 29.5118 12.9812C29.4929 13.7589 29.0732 14.2486 28.4354 14.2298C27.7976 14.2109 27.4317 13.7427 27.4263 13.0027C27.4263 11.2186 27.4263 9.43451 27.4263 7.6531V6.74624C27.1114 6.74624 26.8262 6.72203 26.541 6.70588C26.4098 6.7124 26.2787 6.69241 26.1554 6.64709C26.0321 6.60177 25.9193 6.53207 25.8236 6.44214C25.7279 6.3522 25.6513 6.2439 25.5984 6.12369C25.5455 6.00348 25.5174 5.87384 25.5157 5.74252C25.4936 5.61114 25.5001 5.47652 25.5349 5.34791C25.5697 5.2193 25.632 5.09975 25.7174 4.99748C25.8028 4.89521 25.9093 4.81264 26.0296 4.75544C26.15 4.69825 26.2813 4.66778 26.4145 4.66614C27.7734 4.60694 29.1377 4.60963 30.4967 4.66614C30.6294 4.66644 30.7606 4.69514 30.8814 4.75031C31.0022 4.80547 31.1097 4.88583 31.1969 4.98599C31.2841 5.08615 31.3488 5.20379 31.3867 5.33103C31.4247 5.45826 31.435 5.59214 31.417 5.72368C31.4189 5.85526 31.394 5.98585 31.3438 6.10749C31.2936 6.22913 31.2191 6.33926 31.1249 6.43117C31.0308 6.52308 30.9189 6.59484 30.796 6.64207C30.6732 6.6893 30.5421 6.71101 30.4106 6.70588C30.1495 6.72203 29.8777 6.70857 29.5118 6.70857Z" fill="black"/>
</svg>
