<svg width="69" height="78" viewBox="0 0 69 78" fill="none" xmlns="http://www.w3.org/2000/svg">
<path d="M35.9118 0C36.8192 0.197493 37.74 0.352285 38.634 0.603154C45.5836 2.55673 50.4623 9.33554 49.9552 16.3279C49.3921 24.1101 43.8169 30.1524 36.3148 31.0891C27.924 32.138 20.3019 26.3279 18.9675 17.8357C17.6678 9.71185 23.331 1.82281 31.559 0.27222C32.002 0.189487 32.4424 0.0907401 32.8934 0.00533777L35.9118 0ZM34.2838 28.1774C41.132 28.2842 46.8273 22.6797 46.9421 15.7354C47.0488 8.93522 41.463 3.15989 34.6655 3.05313C33.0063 3.01883 31.3568 3.31283 29.8116 3.91824C28.2665 4.52364 26.8563 5.42851 25.6621 6.58081C24.4679 7.73311 23.5132 9.11011 22.853 10.6326C22.1928 12.1552 21.8401 13.7932 21.8151 15.4525C21.7137 22.3407 27.3075 28.0547 34.2838 28.1774Z" fill="black"/>
<path d="M10.9529 10.1762C10.7201 10.1158 10.4932 10.0345 10.275 9.93334C8.17728 8.83912 6.08225 7.73601 3.98989 6.624C3.12252 6.16229 2.82095 5.31094 3.20526 4.53164C3.58957 3.75235 4.47028 3.46411 5.34032 3.91514C7.48961 5.02537 9.63001 6.15251 11.7615 7.29654C12.5088 7.69687 12.7783 8.34539 12.5808 9.05797C12.3833 9.77054 11.8282 10.1735 10.9529 10.1762Z" fill="black"/>
<path d="M64.0281 27.4889C63.7962 27.4271 63.5702 27.345 63.3528 27.2434C61.2694 26.1581 59.1895 25.0647 57.1131 23.9634C56.1871 23.4697 55.8881 22.629 56.3125 21.8283C56.7181 21.0597 57.5909 20.8115 58.4716 21.2679C60.6066 22.3728 62.7301 23.491 64.842 24.6226C65.1818 24.7759 65.4521 25.0504 65.6001 25.3925C65.7482 25.7345 65.7634 26.1195 65.6427 26.4721C65.4639 27.0699 64.8741 27.4942 64.0281 27.4889Z" fill="black"/>
<path d="M4.71319 27.4889C3.85383 27.4889 3.27469 27.0432 3.11189 26.3813C3.01294 26.0502 3.0342 25.6948 3.17191 25.3778C3.30963 25.0609 3.55494 24.8028 3.8645 24.6492C5.03611 24.0087 6.22374 23.4002 7.40603 22.7811C8.36414 22.2766 9.31424 21.7589 10.2804 21.2678C11.1664 20.8195 12.0284 21.041 12.4474 21.8016C12.8878 22.6022 12.6129 23.4643 11.7002 23.9553C9.5918 25.0869 7.47008 26.1918 5.34837 27.2967C5.14438 27.384 4.93135 27.4484 4.71319 27.4889V27.4889Z" fill="black"/>
<path d="M65.72 5.51645C65.5545 5.72729 65.317 6.29041 64.8953 6.52793C62.7442 7.73424 60.5504 8.87116 58.3567 9.9974C58.1812 10.0927 57.9885 10.1522 57.7898 10.1724C57.5912 10.1926 57.3905 10.1732 57.1994 10.1152C57.0083 10.0573 56.8306 9.96191 56.6766 9.83471C56.5227 9.70751 56.3955 9.55099 56.3026 9.37425C56.2096 9.19751 56.1527 9.00407 56.1351 8.80514C56.1175 8.60622 56.1396 8.40579 56.2001 8.21547C56.2606 8.02516 56.3583 7.84876 56.4875 7.69651C56.6167 7.54426 56.7749 7.4192 56.9529 7.32858C59.1306 6.15964 61.3057 4.9987 63.5075 3.89114C64.5724 3.35737 65.7093 4.05393 65.72 5.51645Z" fill="black"/>
<path d="M61.0307 14.0914C62.0635 14.0914 63.099 14.0754 64.1345 14.0914C65.0793 14.1101 65.7038 14.7079 65.7198 15.5619C65.7294 15.7655 65.6969 15.9688 65.6242 16.1592C65.5515 16.3496 65.4403 16.523 65.2974 16.6683C65.1546 16.8137 64.9832 16.9279 64.7941 17.0039C64.605 17.0799 64.4023 17.1159 64.1985 17.1098C62.0315 17.1454 59.8626 17.1454 57.692 17.1098C57.4884 17.1155 57.2858 17.0803 57.0961 17.0063C56.9064 16.9322 56.7335 16.8208 56.5876 16.6787C56.4418 16.5366 56.3259 16.3667 56.247 16.1789C56.168 15.9912 56.1276 15.7896 56.128 15.5859C56.128 14.7266 56.7979 14.1021 57.7747 14.086C58.8636 14.0754 59.9444 14.0887 61.0307 14.0914Z" fill="black"/>
<path d="M7.88921 14.0887C8.92205 14.0887 9.95755 14.0887 10.9904 14.0887C11.9752 14.0887 12.6451 14.7132 12.6584 15.5726C12.6717 16.432 12.0019 17.1045 11.0358 17.1179C8.91671 17.1428 6.79767 17.1428 4.67862 17.1179C3.69649 17.1179 3.05597 16.456 3.06131 15.5806C3.06665 14.7052 3.71784 14.1048 4.71065 14.0887C5.75416 14.0781 6.82168 14.0914 7.88921 14.0887Z" fill="black"/>
<path d="M34.2835 28.1774C27.3072 28.068 21.7134 22.354 21.8282 15.4525C21.8531 13.7931 22.2058 12.1551 22.8661 10.6326C23.5263 9.11009 24.4809 7.73309 25.6751 6.58079C26.8693 5.42849 28.2796 4.52362 29.8247 3.91821C31.3698 3.3128 33.0194 3.0188 34.6785 3.05311C41.4627 3.15986 47.0485 8.92452 46.9551 15.7354C46.835 22.6663 41.1317 28.2708 34.2835 28.1774ZM32.4154 18.0065C31.4706 17.2059 30.6086 16.4693 29.7332 15.746C28.8578 15.0228 27.9878 15.0441 27.3926 15.7674C26.7975 16.4906 26.9683 17.3687 27.8036 18.0839C28.9744 19.0874 30.1513 20.0846 31.3345 21.0757C32.3727 21.9484 33.1173 21.8763 33.9873 20.8568C35.7523 18.7591 37.5084 16.6623 39.2556 14.5664C39.9228 13.7658 40.59 12.9838 41.2492 12.1805C41.9084 11.3772 41.855 10.4564 41.1638 9.89063C40.4725 9.32484 39.6212 9.45828 38.954 10.2029C38.7512 10.4297 38.559 10.6646 38.3642 10.8968L32.4154 18.0065Z" fill="#746EE9"/>
<path d="M32.4239 17.9932L38.3647 10.8915C38.5595 10.6593 38.7517 10.4244 38.9545 10.1976C39.6217 9.45297 40.4917 9.33287 41.1643 9.88531C41.8368 10.4378 41.9009 11.3638 41.2497 12.1645C40.5985 12.9651 39.9153 13.7658 39.2561 14.5504C37.5035 16.6446 35.7501 18.7387 33.9958 20.8328C33.1258 21.8657 32.3945 21.9244 31.343 21.0517C30.1634 20.0589 28.9864 19.0616 27.8121 18.0599C26.9768 17.3473 26.822 16.4586 27.4011 15.7434C27.9803 15.0281 28.8743 15.0041 29.7417 15.722C30.6091 16.4399 31.4791 17.1952 32.4239 17.9932Z" fill="black"/>
<path d="M68.4395 46.8352C66.7608 43.5231 65.0554 40.2245 63.4007 36.9045C62.963 36.0264 62.3652 35.6501 61.3751 35.6555C55.2528 35.6848 49.1332 35.6555 43.0136 35.6555C31.1266 35.6555 19.2406 35.6555 7.35543 35.6555C6.55478 35.6555 5.92494 35.8476 5.53796 36.6082C3.76853 40.099 1.97775 43.5792 0.22166 47.078C-0.381494 48.2763 0.296387 49.3278 1.64414 49.3705C2.21794 49.3892 2.79174 49.3705 3.41357 49.3705V75.6531C3.41357 77.225 3.88595 77.7054 5.42853 77.7054H63.318C64.8899 77.7054 65.3596 77.2384 65.3596 75.6798C65.3596 67.257 65.3596 58.8351 65.3596 50.414V49.3732C65.9228 49.3732 66.3978 49.3732 66.8702 49.3732C68.5622 49.3679 69.2001 48.335 68.4395 46.8352ZM4.62522 46.3441C4.45708 46.3441 4.28895 46.3121 4.05142 46.288C4.19287 45.9891 4.30229 45.7383 4.42506 45.4874C5.49259 43.395 6.5441 41.2973 7.62764 39.2183C7.69886 39.089 7.79773 38.977 7.91721 38.8902C8.03669 38.8035 8.17384 38.7442 8.31887 38.7166C16.0834 38.6917 23.8461 38.6872 31.607 38.7032C31.6745 38.7143 31.7407 38.7322 31.8045 38.7566C31.7455 38.9381 31.6769 39.1162 31.599 39.2904C30.5021 41.4521 29.3919 43.6085 28.3057 45.7756C28.2454 45.9511 28.1285 46.1016 27.9735 46.2035C27.8185 46.3054 27.634 46.353 27.449 46.3388C19.8464 46.3299 12.2385 46.3316 4.62522 46.3441ZM6.49339 74.6176V49.3812H7.44616C14.3851 49.3812 21.324 49.3599 28.2416 49.3999C29.4052 49.3999 30.1312 49.0449 30.6142 47.9614C31.2414 46.5576 31.9967 45.2125 32.7947 43.6486C32.824 44.0462 32.856 44.2491 32.856 44.4492C32.856 46.611 32.856 61.2815 32.856 68.2765C32.856 70.3715 32.856 72.4745 32.856 74.6149L6.49339 74.6176ZM62.2718 74.6363H35.9118V43.8648L36.064 43.822C36.7205 45.1111 37.4544 46.3681 38.0149 47.6972C38.5486 48.9782 39.368 49.4239 40.7611 49.4106C47.6146 49.3465 54.4708 49.3812 61.327 49.3812H62.2771L62.2718 74.6363ZM63.9078 46.3468C56.4493 46.3468 48.99 46.3521 41.5297 46.3628C41.2857 46.3908 41.0395 46.3354 40.831 46.2055C40.6226 46.0756 40.4644 45.8789 40.3821 45.6475C39.3733 43.5819 38.3111 41.5455 37.2703 39.5092C37.1582 39.2904 37.0621 39.0635 36.902 38.7086H40.214C46.8647 38.7086 53.5154 38.7086 60.1634 38.6926C60.3938 38.6656 60.6266 38.7174 60.8238 38.8395C61.021 38.9616 61.1711 39.1469 61.2496 39.3651C62.2745 41.4495 63.3473 43.5125 64.3989 45.5835C64.5083 45.8023 64.6017 46.0292 64.7431 46.3468H63.9078Z" fill="black"/>
<path d="M21.2597 66.3576C18.4788 66.3399 15.697 66.3399 12.9143 66.3576C11.8868 66.3576 11.2223 67.0195 11.249 67.9269C11.2757 68.8343 11.9269 69.3761 12.9357 69.3841C14.2994 69.3841 15.6659 69.3841 17.0296 69.3841C18.3934 69.3841 19.8132 69.3841 21.2037 69.3841C22.2712 69.3841 22.9037 68.7916 22.8984 67.8682C22.8931 66.9448 22.2659 66.363 21.2597 66.3576Z" fill="black"/>
</svg>
