<svg width="74" height="70" viewBox="0 0 74 70" fill="none" xmlns="http://www.w3.org/2000/svg">
<path d="M-6.10352e-05 44.0631C0.34863 42.9193 0.589016 41.7279 1.07243 40.6449C1.96793 38.6505 3.51327 37.2108 5.40465 36.1542C9.20328 33.981 12.994 31.792 16.7767 29.5871C17.1262 29.3806 17.4351 29.1121 17.6881 28.7947C23.8219 21.0019 29.9451 13.2004 36.0578 5.39008C37.2122 3.91078 38.5832 3.03113 40.501 3.31114C41.9486 3.52247 43.0026 4.34929 43.7264 5.61197C45.3113 8.3883 46.9412 11.1461 48.505 13.9357C48.6038 14.1731 48.7816 14.3691 49.0084 14.4904C49.2351 14.6117 49.4969 14.6509 49.7492 14.6013C51.2364 14.4719 52.7289 14.4191 54.2162 14.3081C54.5765 14.2637 54.9417 14.3343 55.2596 14.5098C55.5775 14.6853 55.8317 14.9568 55.986 15.2855C56.8366 16.793 57.7022 18.2899 58.5827 19.7762C58.7858 20.0767 58.8878 20.4341 58.8741 20.7965C58.8603 21.159 58.7314 21.5076 58.5061 21.7918C57.6661 23.0254 56.8789 24.2934 56.023 25.5138C55.8612 25.6955 55.7671 25.9274 55.7565 26.1705C55.7459 26.4135 55.8195 26.6527 55.9649 26.8478C57.4627 29.3705 58.9446 31.9038 60.3711 34.4688C61.9111 37.2346 60.3367 40.4071 57.2276 40.954C55.3573 41.2842 53.495 41.6645 51.63 42.0264L29.9689 46.2662C29.7602 46.3085 29.5515 46.3666 29.2398 46.4432C29.7681 47.3678 30.278 48.258 30.7904 49.1482C31.5829 50.5324 31.4165 51.1558 30.0297 51.9589L26.9733 53.7367C26.9363 53.7578 26.9179 53.808 26.8597 53.8872C28.2299 56.2647 29.607 58.6518 30.9912 61.0486C31.9897 62.7762 32.2486 64.5752 31.4508 66.4375C30.6055 68.4028 29.0734 69.6074 26.9839 69.8953C24.8257 70.2044 23.0004 69.4727 21.6214 67.7504C21.3268 67.3706 21.0619 66.9688 20.829 66.5484C18.6452 62.7762 16.4659 59.004 14.291 55.2318C14.1616 55.0073 14.0268 54.7827 13.9238 54.619C12.7853 54.8144 11.7075 55.1156 10.6218 55.1473C5.33861 55.3692 1.06715 51.8902 0.132019 46.6677C0.100336 46.5573 0.0560155 46.451 -6.10352e-05 46.3507V44.0631ZM52.8901 38.8169C47.311 29.1539 41.7742 19.5596 36.1872 9.88873C36.0816 10.034 36.0287 10.1133 35.968 10.1899C30.7535 16.8344 25.5345 23.4771 20.3112 30.1181C20.047 30.4694 20.1421 30.694 20.3112 31.003C22.6728 35.0817 25.0265 39.1656 27.3722 43.2548C27.602 43.6563 27.8134 43.7461 28.2756 43.6563C34.5706 42.4042 40.8734 41.1811 47.171 39.9581C49.0624 39.5724 50.9406 39.2026 52.8901 38.8169ZM24.9868 44.8556L17.7568 32.3476L15.485 33.6552C12.3151 35.5043 9.11346 37.2346 6.03336 39.2026C2.84758 41.226 1.98114 45.4949 3.89366 48.7731C5.76391 51.9826 10.0327 53.3219 13.3163 51.5468C17.2285 49.4203 21.035 47.1327 24.9868 44.8556ZM38.1367 7.45317C38.2662 7.68827 38.4009 7.91809 38.525 8.14527C40.4217 11.4367 42.3201 14.7281 44.2203 18.0196C47.982 24.5355 51.7463 31.0515 55.5132 37.5674C55.6479 37.8025 55.8751 38.1724 56.0415 38.1644C56.6993 38.1274 57.4099 38.1063 57.8378 37.4433C58.2287 36.8331 58.102 36.2651 57.7559 35.684C52.2508 26.1513 46.7431 16.6169 41.2327 7.0807C40.5142 5.83651 39.4232 5.78104 38.5303 6.91428C38.3956 7.0807 38.2741 7.26033 38.1367 7.45317ZM16.4201 53.137L22.7758 64.1393C23.1139 64.7204 23.4257 65.3201 23.814 65.8669C24.2401 66.4743 24.8859 66.8921 25.6147 67.0316C26.3434 67.1711 27.0979 67.0215 27.7183 66.6145C29.0655 65.7375 29.4115 64.0917 28.5266 62.5517C26.2372 58.5717 23.9478 54.5961 21.6584 50.6249C21.5897 50.5086 21.4999 50.403 21.3943 50.2709C19.7274 51.2271 18.1081 52.1596 16.4201 53.137ZM53.9837 23.3715C54.5728 22.4812 55.1117 21.694 55.6109 20.8804C55.6399 20.7862 55.6488 20.687 55.637 20.5892C55.6252 20.4913 55.5929 20.397 55.5422 20.3125C55.0456 19.4064 54.5252 18.5162 53.9995 17.6286C53.9071 17.4754 53.7354 17.2482 53.6165 17.2535C52.6286 17.2826 51.6432 17.3592 50.5496 17.4279L53.9837 23.3715ZM27.8688 49.8509C27.3537 48.9659 26.8914 48.1682 26.4212 47.3546L23.9302 48.818L25.3752 51.3038L27.8688 49.8509Z" fill="black"/>
<path d="M64.2121 13.5923C63.8687 13.27 63.3324 12.9874 63.2004 12.5753C63.0683 12.1632 63.3087 11.6005 63.417 11.1118C63.4355 11.0167 63.5755 10.9296 63.6811 10.8715C66.4258 9.33932 69.1545 7.77814 71.9282 6.30148C72.1388 6.19181 72.3741 6.13817 72.6115 6.14572C72.8489 6.15327 73.0803 6.22176 73.2835 6.3446C73.4868 6.46745 73.655 6.64051 73.772 6.84715C73.889 7.0538 73.9509 7.28707 73.9517 7.52455C73.9702 8.23778 73.5396 8.66043 72.9558 8.98271C71.0679 10.0288 69.1809 11.0784 67.2948 12.1315C66.6635 12.4828 66.0427 12.8474 65.4008 13.1723C65.0134 13.3362 64.6165 13.4765 64.2121 13.5923V13.5923Z" fill="black"/>
<path d="M65.3587 19.7789L66.8697 20.1804C68.1905 20.5317 69.5113 20.8646 70.8321 21.237C71.754 21.5012 72.1872 22.2197 71.9759 23.0254C71.7645 23.8311 71.017 24.2432 70.1056 24.0107C68.3446 23.5616 66.5835 23.0941 64.8224 22.608C63.9164 22.3439 63.462 21.6755 63.6126 20.9174C63.7631 20.1593 64.3443 19.7419 65.3587 19.7789Z" fill="black"/>
<path d="M55.4552 6.67129C55.7696 5.472 56.1473 4.02969 56.5277 2.60058C56.6624 2.09075 56.7786 1.57564 56.9504 1.07902C57.2304 0.26805 57.9594 -0.149323 58.6859 0.0487973C58.8741 0.0935457 59.0511 0.176608 59.2058 0.292801C59.3605 0.408993 59.4896 0.555824 59.585 0.724128C59.6805 0.892431 59.7402 1.0786 59.7605 1.27101C59.7807 1.46342 59.7611 1.65794 59.7029 1.84244C59.2433 3.67748 58.7537 5.50635 58.2342 7.32905C57.9885 8.19021 57.3149 8.56268 56.5356 8.38569C55.8435 8.25361 55.4209 7.68038 55.4552 6.67129Z" fill="black"/>
<path d="M24.9868 44.8556C21.0244 47.1248 17.2231 49.4124 13.3162 51.5283C10.0327 53.3035 5.76383 51.9642 3.89358 48.7546C1.98106 45.4764 2.83694 41.2076 6.03328 39.1841C9.11338 37.2267 12.3282 35.4859 15.4849 33.6368L17.7567 32.3292L24.9868 44.8556ZM10.4025 49.4256C10.9295 49.3215 11.4459 49.1695 11.9452 48.9713C12.8565 48.5433 13.7256 48.0203 14.5868 47.5025C15.4479 46.9848 15.7042 46.1659 15.2683 45.4289C14.8324 44.6919 14.0083 44.5413 13.1181 45.0273C12.4841 45.3734 11.8659 45.7459 11.2399 46.1025C10.0829 46.7655 9.65491 46.6968 8.74356 45.6983C8.15184 45.0511 7.37521 44.9349 6.75443 45.4024C6.13366 45.87 5.99101 46.7074 6.49027 47.455C7.35143 48.7335 8.56129 49.3596 10.4025 49.4335V49.4256ZM19.1198 41.8548C18.8428 41.8507 18.5708 41.9286 18.3379 42.0787C18.1051 42.2288 17.9218 42.4443 17.8111 42.6983C17.7004 42.9522 17.6672 43.2332 17.7156 43.5059C17.7641 43.7786 17.8921 44.031 18.0836 44.2312C18.275 44.4314 18.5214 44.5706 18.7917 44.6312C19.0619 44.6918 19.3441 44.6712 19.6028 44.572C19.8614 44.4728 20.0849 44.2993 20.2453 44.0734C20.4056 43.8475 20.4956 43.5793 20.504 43.3024C20.5093 43.1154 20.477 42.9293 20.4092 42.755C20.3414 42.5807 20.2394 42.4218 20.1091 42.2876C19.9788 42.1534 19.823 42.0467 19.6508 41.9737C19.4786 41.9007 19.2936 41.863 19.1066 41.8627L19.1198 41.8548Z" fill="#746EE9"/>
<path d="M38.1367 7.45322C38.2741 7.26038 38.4008 7.08075 38.5303 6.9249C39.4231 5.79165 40.5141 5.84712 41.2326 7.09132C46.7465 16.6275 52.2552 26.1646 57.7585 35.7025C58.094 36.2837 58.2314 36.8516 57.8404 37.4618C57.4125 38.1248 56.7019 38.146 56.0441 38.183C55.875 38.183 55.6479 37.8211 55.5158 37.586C51.7453 31.07 47.9811 24.5541 44.2229 18.0381C42.3227 14.7343 40.4234 11.4341 38.525 8.13739C38.3929 7.91814 38.2661 7.68832 38.1367 7.45322Z" fill="#746EE9"/>
<path d="M10.4028 49.4335C8.55365 49.3595 7.35172 48.7335 6.50113 47.4549C6.00451 46.7074 6.11545 45.8938 6.76529 45.4024C7.41512 44.9111 8.16269 45.0511 8.75441 45.6983C9.66312 46.6968 10.0937 46.7549 11.2507 46.1024C11.8768 45.7458 12.4949 45.3734 13.1289 45.0273C14.0191 44.5413 14.8512 44.705 15.2792 45.4288C15.7071 46.1526 15.4641 46.9847 14.5976 47.5025C13.7312 48.0202 12.8621 48.5433 11.956 48.9712C11.4536 49.1728 10.9336 49.3275 10.4028 49.4335V49.4335Z" fill="black"/>
<path d="M19.1068 41.8627C19.3834 41.8758 19.65 41.9704 19.8731 42.1346C20.0961 42.2987 20.2657 42.5251 20.3605 42.7854C20.4553 43.0456 20.4711 43.328 20.406 43.5972C20.3408 43.8664 20.1975 44.1103 19.9942 44.2983C19.7908 44.4863 19.5364 44.6101 19.263 44.654C18.9895 44.6979 18.7092 44.66 18.4572 44.5452C18.2052 44.4303 17.9928 44.2435 17.8465 44.0083C17.7003 43.7731 17.6269 43.4999 17.6354 43.2231C17.6405 43.0365 17.6828 42.8527 17.7599 42.6826C17.837 42.5126 17.9474 42.3597 18.0845 42.2329C18.2216 42.1061 18.3827 42.0081 18.5582 41.9445C18.7338 41.8809 18.9203 41.8531 19.1068 41.8627V41.8627Z" fill="black"/>
</svg>
