<svg width="75" height="75" viewBox="0 0 75 75" fill="none" xmlns="http://www.w3.org/2000/svg">
<path d="M73.9361 0C74.645 0.412825 75.0225 0.975026 74.9546 1.84685C73.985 12.8356 70.9567 23.1263 64.5933 32.2791C62.4741 35.2674 59.9887 37.9783 57.195 40.3482C57.013 40.5057 56.8365 40.6687 56.774 40.7257C57.2955 42.2358 57.931 43.6236 58.2407 45.0712C58.9359 48.3304 58.0533 51.2609 55.9348 53.8003C53.1754 57.111 49.5333 59.0258 45.4594 60.1366C43.895 60.5603 42.2491 60.6798 40.6359 60.8971C40.3071 60.9647 39.965 60.9123 39.6715 60.7493C39.378 60.5864 39.1526 60.3237 39.0362 60.0089C38.7646 59.349 38.971 58.7813 39.4517 58.2789C41.285 56.356 42.078 54.0447 42.002 51.413C41.9694 50.2695 41.6679 50.0903 40.6223 50.4624C38.8325 51.0979 37.0427 51.7334 35.2284 52.2902C33.482 52.8334 33.4685 52.7818 31.79 52.4613C31.7385 52.5084 31.6937 52.5623 31.6569 52.6216C29.935 56.2365 27.0127 58.412 23.2212 59.4114C20.8257 60.0388 18.3705 60.4516 15.9261 60.8835C14.7528 61.0899 13.9625 60.3539 14.0793 59.2268C14.4296 55.8209 15.0923 52.4885 16.4612 49.319C17.5747 46.7388 19.4487 44.9055 21.8686 43.572L22.5422 43.2081C21.8062 40.9891 22.9333 39.0635 23.5036 37.0564C23.7752 36.076 24.2125 35.1363 24.59 34.183C24.8888 33.4062 24.6715 33.0396 23.8187 32.9907C21.2195 32.844 18.9055 33.5664 16.9365 35.3019C16.8278 35.3997 16.7219 35.5029 16.616 35.6007C16.4067 35.8274 16.1304 35.9813 15.8275 36.0399C15.5246 36.0985 15.2109 36.0588 14.9321 35.9266C14.302 35.655 14.0576 35.1118 14.0711 34.4464C14.1359 32.1524 14.5791 29.8848 15.3829 27.7353C16.434 24.8374 17.9115 22.192 20.1033 19.9921C23.8812 16.2061 28.6178 15.4864 33.3653 17.947L34.1067 18.3408C34.9215 17.4391 35.7363 16.5293 36.5782 15.6547C41.7603 10.2446 48.0341 6.55359 55.0114 3.97615C60.4518 1.95441 66.1342 0.655941 71.9128 0.114069C72.0533 0.0874678 72.1914 0.0493155 72.3256 0H73.9361ZM55.9321 6.74642C55.7664 6.80617 55.6605 6.8442 55.5356 6.88765C50.9185 8.64759 46.5485 10.9127 42.6837 14.0333C36.494 19.0252 31.9638 25.3072 28.5227 32.4257C28.3027 32.8766 28.4928 33.0803 28.7672 33.3519C33.0475 37.6268 37.3233 41.9071 41.5946 46.1929C41.945 46.546 42.2165 46.6383 42.6565 46.3803C45.2829 44.8458 48.0097 43.4579 50.5328 41.7632C58.7648 36.2797 64.5715 28.838 68.0181 19.5603C68.1349 19.2479 68.2897 18.9899 67.942 18.6586C64.0492 14.8056 60.1654 10.9308 56.2906 7.03431C56.1769 6.93133 56.0572 6.8352 55.9321 6.74642V6.74642ZM17.3439 31.3855C20.2771 30.0873 23.1424 29.5631 26.0349 30.4431L32.0698 20.6086C29.3864 18.808 25.7144 19.0307 23.0066 21.2876C20.2988 23.5446 18.7263 26.6 17.7105 29.9434C17.5802 30.3779 17.4878 30.8233 17.3439 31.3855ZM54.3894 42.8713L44.4817 48.9496C45.5028 51.8475 44.7723 54.6938 43.6397 57.5239C47.2655 57.2278 52.5698 53.9605 54.4193 50.9105C56.0679 48.1864 55.7691 45.4949 54.3894 42.8713V42.8713ZM17.2135 57.7574C19.6025 57.4318 21.9451 56.8274 24.1935 55.9567C26.4966 55.0333 28.0284 53.3576 29.1039 51.1848C29.3239 50.7367 29.3294 50.4271 28.9274 50.0441C27.5694 48.7459 26.2413 47.4187 24.9431 46.0625C24.5439 45.647 24.2207 45.6334 23.7426 45.8751C21.5699 46.9615 19.905 48.5015 18.9897 50.8046C18.1211 53.0426 17.5248 55.377 17.2135 57.7574V57.7574ZM71.8421 3.10162C69.4603 3.0826 61.1033 4.80995 59.3053 5.66004C62.6296 8.9898 65.9757 12.3359 69.3027 15.6629C70.1746 13.7427 71.91 5.27438 71.8421 3.10162ZM26.9746 35.7962C26.3988 37.6512 25.8638 39.4139 25.2989 41.1657C25.2058 41.4322 25.1946 41.7205 25.2667 41.9935C25.3389 42.2665 25.491 42.5117 25.7036 42.6975C27.8872 44.8956 30.0771 47.0855 32.2734 49.2674C32.4718 49.4856 32.7318 49.6383 33.019 49.7053C33.3062 49.7722 33.6069 49.7502 33.8813 49.6422C35.4484 49.118 37.0291 48.6237 38.6016 48.1077C38.7586 48.0437 38.9102 47.9674 39.0552 47.8795L26.9746 35.7962Z" fill="black"/>
<path d="M0 60.6119C0.334062 60.2316 0.649112 59.8324 1.0049 59.4739C3.97072 56.4863 6.95012 53.5042 9.9431 50.5275C10.125 50.3313 10.322 50.1496 10.5325 49.9844C10.8006 49.7902 11.1268 49.693 11.4575 49.7088C11.7882 49.7245 12.1037 49.8524 12.3521 50.0713C12.6103 50.2991 12.7776 50.6123 12.8235 50.9535C12.8694 51.2947 12.7907 51.641 12.602 51.929C12.4505 52.1482 12.2757 52.3504 12.0806 52.5319C9.00247 55.61 5.91806 58.6944 2.82731 61.7852C1.72191 62.8906 0.841945 62.7955 0 61.4918V60.6119Z" fill="black"/>
<path d="M14.1748 74.9494C12.8169 74.9739 12.0917 73.806 12.5996 72.8418C12.723 72.6289 12.8778 72.4357 13.0586 72.2688C16.2254 69.0965 19.394 65.9279 22.5644 62.7629C23.0153 62.3121 23.5069 61.9916 24.194 62.1844C24.4193 62.2418 24.6273 62.3529 24.8004 62.508C24.9735 62.6632 25.1065 62.8579 25.1882 63.0756C25.2698 63.2932 25.2976 63.5274 25.2692 63.7581C25.2408 63.9888 25.157 64.2093 25.0251 64.4007C24.9113 64.5588 24.7821 64.7053 24.6394 64.8379C21.4889 67.9902 18.3339 71.1398 15.1743 74.2867C14.8676 74.5451 14.5323 74.7675 14.1748 74.9494V74.9494Z" fill="black"/>
<path d="M13.5633 63.7787C13.421 64.1162 13.2328 64.4324 13.0038 64.7184C9.79902 67.9558 6.57971 71.1787 3.34592 74.3872C2.62348 75.1096 1.76523 75.1422 1.14871 74.5257C0.532193 73.9092 0.572932 73.0346 1.27908 72.3231C4.49477 69.0965 7.71588 65.8754 10.9424 62.6597C11.4313 62.1708 11.9989 61.959 12.6671 62.2469C13.2401 62.4913 13.5063 62.9585 13.5633 63.7787Z" fill="black"/>
<path d="M29.8729 67.228C29.5062 66.9346 29.0255 66.6848 28.7403 66.2937C28.573 66.0606 28.4964 65.7745 28.5249 65.4891C28.5534 65.2036 28.685 64.9382 28.8952 64.7429C30.3147 63.2763 31.7587 61.8323 33.2271 60.4109C33.3602 60.2838 33.5175 60.1848 33.6896 60.1196C33.8617 60.0545 34.0452 60.0246 34.2291 60.0317C34.413 60.0388 34.5936 60.0827 34.7602 60.1609C34.9268 60.2391 35.076 60.35 35.1989 60.487C35.4544 60.7376 35.605 61.0761 35.6201 61.4337C35.6353 61.7913 35.5138 62.1413 35.2804 62.4126C33.8463 63.9009 32.377 65.354 30.8941 66.7907C30.6877 66.9917 30.3346 67.0379 29.8729 67.228Z" fill="black"/>
<path d="M7.85449 44.7372C7.97469 44.4226 8.1413 44.1278 8.3488 43.8626C9.67146 42.5047 11.0213 41.1467 12.382 39.8213C12.5145 39.6773 12.6746 39.5614 12.8529 39.4806C13.0311 39.3997 13.2238 39.3556 13.4194 39.3508C13.615 39.346 13.8096 39.3806 13.9916 39.4525C14.1736 39.5245 14.3393 39.6324 14.4787 39.7697C14.6222 39.9048 14.7359 40.0683 14.8126 40.2498C14.8893 40.4313 14.9274 40.6269 14.9243 40.8239C14.9212 41.0209 14.8771 41.2152 14.7948 41.3942C14.7125 41.5732 14.5937 41.7331 14.4461 41.8637C13.0881 43.2434 11.7302 44.5987 10.3722 45.9512C10.1747 46.1728 9.91075 46.3243 9.61986 46.383C9.32897 46.4418 9.02687 46.4046 8.7589 46.2771C8.16954 46.03 7.89795 45.5818 7.85449 44.7372Z" fill="black"/>
<path d="M17.2139 57.7574C17.5243 55.3771 18.1197 53.0428 18.9874 50.8046C19.9027 48.5015 21.573 46.9588 23.7403 45.8752C24.2183 45.6334 24.5551 45.647 24.9407 46.0626C26.239 47.4169 27.5671 48.7441 28.925 50.0441C29.327 50.4271 29.3216 50.7367 29.1016 51.1848C28.0152 53.3576 26.4943 55.0333 24.1911 55.9568C21.9436 56.8272 19.6019 57.4316 17.2139 57.7574V57.7574Z" fill="#746EE9"/>
<path d="M52.8036 29.4708C51.8314 29.4882 50.8655 29.3117 49.9624 28.9514C49.0593 28.5911 48.237 28.0544 47.5438 27.3726C46.8506 26.6908 46.3002 25.8776 45.925 24.9806C45.5498 24.0836 45.3571 23.1208 45.3584 22.1484C45.3597 21.1761 45.5548 20.2138 45.9324 19.3178C46.3099 18.4217 46.8624 17.61 47.5574 16.93C48.2524 16.25 49.076 15.7154 49.9801 15.3575C50.8841 14.9995 51.8505 14.8255 52.8226 14.8454C54.7376 14.8847 56.5608 15.6737 57.9004 17.0429C59.24 18.412 59.989 20.252 59.9865 22.1674C59.984 24.0829 59.2302 25.9209 57.8871 27.2866C56.544 28.6522 54.7187 29.4365 52.8036 29.4708V29.4708ZM52.79 26.543C53.659 26.5451 54.5091 26.2889 55.2322 25.8068C55.9553 25.3248 56.5188 24.6386 56.8511 23.8356C57.1834 23.0326 57.2695 22.1489 57.0985 21.2969C56.9275 20.4448 56.5071 19.6628 55.8906 19.0502C55.2742 18.4376 54.4896 18.0221 53.6365 17.8564C52.7834 17.6907 51.9003 17.7823 51.0993 18.1196C50.2984 18.4569 49.6158 19.0246 49.1383 19.7507C48.6607 20.4768 48.4098 21.3285 48.4173 22.1975C48.4238 23.3527 48.8874 24.4584 49.7068 25.2727C50.5262 26.087 51.6347 26.5438 52.79 26.543Z" fill="black"/>
<path d="M46.1656 30.3236C45.8804 30.8396 45.7419 31.2389 45.4812 31.5268C44.8647 32.2112 44.202 32.8603 43.5311 33.4931C42.8603 34.1259 41.9695 34.1341 41.3883 33.5284C40.807 32.9228 40.8451 32.0944 41.4643 31.4371C42.1324 30.7337 42.8223 30.0466 43.5311 29.3839C43.9711 28.9683 44.5551 28.7972 45.0684 29.1394C45.4893 29.4219 45.7827 29.8972 46.1656 30.3236Z" fill="black"/>
<path d="M38.3302 38.1048C38.1412 38.1125 37.9527 38.0821 37.7756 38.0156C37.5985 37.9491 37.4366 37.8478 37.2994 37.7177C37.1621 37.5875 37.0524 37.4312 36.9766 37.2579C36.9008 37.0846 36.8606 36.8979 36.8582 36.7088C36.8501 36.513 36.8819 36.3175 36.9517 36.1343C37.0215 35.9511 37.1279 35.7841 37.2643 35.6433C37.4008 35.5026 37.5644 35.3911 37.7453 35.3156C37.9262 35.2401 38.1206 35.2022 38.3166 35.2042C38.6993 35.2077 39.0653 35.3609 39.3364 35.6309C39.6074 35.901 39.762 36.2665 39.767 36.6491C39.7691 36.8392 39.7336 37.0279 39.6624 37.2043C39.5911 37.3806 39.4857 37.5411 39.3521 37.6765C39.2185 37.8119 39.0594 37.9194 38.884 37.9929C38.7086 38.0664 38.5204 38.1045 38.3302 38.1048V38.1048Z" fill="black"/>
</svg>
