<svg width="305" height="305" viewBox="0 0 305 305" fill="none" xmlns="http://www.w3.org/2000/svg">
<path d="M152.02 3.05043V22.1904C152.02 22.9861 151.704 23.7491 151.141 24.3117C150.579 24.8744 149.816 25.1904 149.02 25.1904H28.68C27.8844 25.1904 27.1213 25.5065 26.5587 26.0691C25.9961 26.6317 25.68 27.3948 25.68 28.1904V275.29C25.6734 275.689 25.7461 276.084 25.8938 276.454C26.0416 276.824 26.2616 277.16 26.5408 277.444C26.82 277.728 27.153 277.954 27.5203 278.107C27.8876 278.261 28.2818 278.34 28.68 278.34H275.48C275.882 278.347 276.282 278.273 276.655 278.122C277.028 277.971 277.367 277.747 277.652 277.462C277.936 277.178 278.161 276.839 278.312 276.466C278.462 276.092 278.537 275.693 278.53 275.29V155.19C278.53 154.792 278.609 154.398 278.763 154.031C278.917 153.663 279.142 153.33 279.426 153.051C279.71 152.772 280.047 152.552 280.417 152.404C280.786 152.256 281.182 152.184 281.58 152.19H300.95C301.348 152.184 301.744 152.256 302.113 152.404C302.483 152.552 302.82 152.772 303.104 153.051C303.388 153.33 303.613 153.663 303.767 154.031C303.921 154.398 304 154.792 304 155.19V155.19C304 195.757 304 236.324 304 276.89C304 293.23 293.2 304 276.83 304C193.92 304 111.01 303.89 28.1 304.11C13.26 304.11 2.1 294.98 0.33 282.24C0.317138 282.144 0.290186 282.049 0.25 281.96C0.0889246 281.584 0.00395695 281.18 0 280.77V23.1504C0.00105491 22.7622 0.079235 22.3781 0.23 22.0204C1.84 18.0204 3.04 13.8104 5.3 10.2504C9.14 4.19043 15.41 1.48042 22.3 0.0604233C22.511 0.0201968 22.7252 0.000107053 22.94 0.000423819H148.97C149.372 -0.00634059 149.772 0.0679295 150.145 0.218811C150.518 0.369693 150.857 0.594102 151.142 0.87868C151.426 1.16326 151.651 1.50218 151.802 1.87528C151.952 2.24838 152.027 2.64803 152.02 3.05043V3.05043Z" fill="#D6D6D6"/>
<path d="M293.38 0.000325649C293.742 -0.00237478 294.101 0.062047 294.44 0.190326C301.69 2.90033 304.17 8.34033 304.1 16.0303C303.87 43.1403 304.02 70.2403 304.02 97.3403V98.0903C304.02 98.4885 303.941 98.8828 303.787 99.25C303.633 99.6173 303.408 99.9503 303.124 100.23C302.84 100.509 302.503 100.729 302.133 100.876C301.764 101.024 301.368 101.097 300.97 101.09H281.86C281.064 101.09 280.301 100.774 279.739 100.212C279.176 99.649 278.86 98.886 278.86 98.0903V51.8703C278.883 51.2579 278.718 50.6531 278.387 50.1373C278.056 49.6215 277.575 49.2194 277.008 48.9853C276.442 48.7511 275.817 48.696 275.219 48.8274C274.62 48.9588 274.076 49.2704 273.66 49.7203L173.27 150.17C172.99 150.461 172.655 150.692 172.284 150.849C171.912 151.007 171.513 151.088 171.11 151.088C170.707 151.088 170.308 151.007 169.936 150.849C169.565 150.692 169.23 150.461 168.95 150.17L154.54 135.51C154.256 135.231 154.03 134.898 153.876 134.531C153.722 134.163 153.642 133.769 153.642 133.37C153.642 132.972 153.722 132.577 153.876 132.21C154.03 131.843 154.256 131.51 154.54 131.23L255.15 30.6203C255.6 30.2041 255.911 29.6601 256.043 29.0615C256.174 28.4628 256.119 27.8383 255.885 27.2719C255.651 26.7056 255.249 26.2245 254.733 25.8935C254.217 25.5624 253.612 25.3973 253 25.4203H205.53C204.734 25.4203 203.971 25.1043 203.409 24.5416C202.846 23.979 202.53 23.216 202.53 22.4203V3.05033C202.523 2.65217 202.596 2.25668 202.744 1.88691C202.892 1.51715 203.112 1.1805 203.391 0.89661C203.67 0.612716 204.003 0.387256 204.37 0.233375C204.738 0.0794939 205.132 0.000270339 205.53 0.000325649H293.38Z" fill="#D6D6D6"/>
</svg>
