<svg width="47" height="26" viewBox="0 0 47 26" fill="none" xmlns="http://www.w3.org/2000/svg">
<path d="M1 22L46 7" stroke="#929292"/>
<path d="M14.178 17.0559C14.178 16.2429 13.9143 15.5801 13.387 15.0674C12.8596 14.5474 11.9294 14.0566 10.5964 13.5952C8.94116 13.0752 7.78027 12.46 7.11377 11.7495C6.44727 11.0317 6.11401 10.1052 6.11401 8.96997C6.11401 7.77612 6.48022 6.80933 7.21265 6.06958C7.94507 5.32251 8.94116 4.89771 10.2009 4.79517V2.57593H11.3215V4.79517C12.6106 4.91235 13.6067 5.39575 14.3098 6.24536C15.0203 7.09497 15.3755 8.24854 15.3755 9.70605H14.0681C14.0681 8.55615 13.7678 7.64429 13.1672 6.97046C12.574 6.28931 11.761 5.94873 10.7283 5.94873C9.68823 5.94873 8.87524 6.22339 8.28931 6.77271C7.71069 7.3147 7.42139 8.03979 7.42139 8.948C7.42139 9.8269 7.68872 10.5154 8.22339 11.0134C8.75806 11.5042 9.66626 11.9692 10.948 12.4087C12.2371 12.8408 13.1709 13.2583 13.7495 13.6611C14.3354 14.0566 14.7712 14.5291 15.0569 15.0784C15.3499 15.6204 15.4963 16.2722 15.4963 17.0339C15.4963 18.2351 15.1191 19.2056 14.3647 19.9453C13.6177 20.6777 12.5886 21.0952 11.2776 21.1978V23.2852H10.168V21.2087C8.6958 21.1135 7.55688 20.6521 6.75122 19.8245C5.94556 18.9895 5.54272 17.8506 5.54272 16.4077H6.86108C6.86108 17.5503 7.19434 18.4475 7.86084 19.0994C8.52734 19.7439 9.45752 20.0662 10.6514 20.0662C11.6914 20.0662 12.5374 19.7878 13.1892 19.2312C13.8484 18.6746 14.178 17.9495 14.178 17.0559ZM21.1873 12.2878H22.5496C23.304 12.2878 23.9631 12.156 24.5271 11.8923C25.0911 11.6213 25.5195 11.2551 25.8125 10.7937C26.1128 10.325 26.2629 9.78662 26.2629 9.17871C26.2629 8.15332 25.9736 7.35132 25.395 6.77271C24.8164 6.19409 23.9851 5.90479 22.9011 5.90479C21.8757 5.90479 21.0334 6.20874 20.3743 6.81665C19.7224 7.41724 19.3965 8.21191 19.3965 9.20068H18.0781C18.0781 8.37305 18.2869 7.61865 18.7043 6.9375C19.1218 6.24902 19.7004 5.71802 20.4402 5.34448C21.1799 4.97095 22.0002 4.78418 22.9011 4.78418C24.3513 4.78418 25.4939 5.17969 26.3289 5.9707C27.1638 6.76172 27.5813 7.8457 27.5813 9.22266C27.5813 9.9917 27.3359 10.7021 26.8452 11.354C26.3618 11.9985 25.6953 12.4819 24.8457 12.8042C25.8418 13.0825 26.5962 13.5623 27.1089 14.2434C27.6216 14.9172 27.8779 15.7229 27.8779 16.6604C27.8779 18.03 27.4312 19.1323 26.5376 19.9673C25.644 20.8022 24.4502 21.2197 22.9561 21.2197C22.0039 21.2197 21.1287 21.0293 20.3303 20.6484C19.5393 20.2676 18.9241 19.7366 18.4846 19.0554C18.0525 18.3669 17.8364 17.5686 17.8364 16.6604H19.1548C19.1548 17.6785 19.51 18.5098 20.2205 19.1543C20.9309 19.7915 21.8428 20.1101 22.9561 20.1101C24.0913 20.1101 24.9739 19.8208 25.6038 19.2422C26.241 18.6562 26.5596 17.8103 26.5596 16.7043C26.5596 15.635 26.2153 14.8184 25.5269 14.2544C24.8457 13.6904 23.8386 13.4084 22.5056 13.4084H21.1873V12.2878ZM38.9521 13.5952C38.4834 14.2837 37.9011 14.8184 37.2053 15.1992C36.5095 15.5728 35.7551 15.7595 34.9421 15.7595C34.0339 15.7595 33.2319 15.5251 32.5361 15.0564C31.8403 14.5876 31.302 13.9395 30.9211 13.1118C30.5403 12.2842 30.3499 11.3796 30.3499 10.3982C30.3499 9.34351 30.5513 8.38403 30.9541 7.51978C31.3643 6.65552 31.9319 5.98535 32.657 5.50928C33.3894 5.02588 34.2317 4.78418 35.1838 4.78418C36.7878 4.78418 38.0366 5.34814 38.9302 6.47607C39.8237 7.59668 40.2705 9.1897 40.2705 11.2551V12.4417C40.2705 15.3274 39.6553 17.4954 38.4248 18.9456C37.1943 20.3958 35.3157 21.1208 32.7888 21.1208H32.5471L32.5581 19.9783H33.0195C34.9312 19.949 36.385 19.407 37.3811 18.3523C38.3772 17.2976 38.9009 15.7119 38.9521 13.5952ZM35.1069 14.6279C35.9858 14.6279 36.7732 14.3679 37.469 13.8479C38.1721 13.3206 38.6702 12.6394 38.9631 11.8044V11.0464C38.9631 9.42041 38.6226 8.16064 37.9414 7.26709C37.2676 6.36621 36.3557 5.91577 35.2058 5.91577C34.1658 5.91577 33.3125 6.33691 32.646 7.1792C31.9795 8.01416 31.6462 9.06885 31.6462 10.3433C31.6462 11.5664 31.9648 12.5881 32.6021 13.4084C33.2466 14.2214 34.0815 14.6279 35.1069 14.6279Z" fill="#929292"/>
</svg>
