<svg width="149" height="128" viewBox="0 0 149 128" fill="none" xmlns="http://www.w3.org/2000/svg">
<path d="M140.976 34.0223C132.479 17.8072 116.35 6.5717 98.9865 2.31483C82.4099 -1.74376 62.4528 -1.54547 49.9764 11.8264C41.7601 20.6312 38.4627 32.8901 31.2187 42.3985C27.6142 47.1256 23.1047 49.2876 18.3809 52.5946C6.87356 60.6574 -1.59222 73.6327 0.253175 88.3063C3.35548 112.84 25.7369 126.017 48.227 127.498C77.9516 129.452 99.1496 125.48 117.156 113.972C126.511 107.995 135.837 100.901 141.546 91.0856C150.181 76.2425 149.826 57.5199 144.242 41.583C143.336 38.9875 142.245 36.4608 140.976 34.0223V34.0223Z" fill="#746EE9" fill-opacity="0.07"/>
<path d="M107.812 29.578C99.0623 29.4584 90.3126 29.4584 81.5629 29.578C73.6532 29.683 66.9115 36.5165 66.6884 44.4262C66.4215 53.3334 73.1063 60.377 82.0923 60.6613C84.0566 60.7226 85.3209 61.9738 85.3471 63.9381C85.3471 65.4212 85.3471 66.9086 85.3471 68.6411C85.7584 68.2561 86.0121 68.0373 86.244 67.8055C88.1077 65.9505 89.9976 64.1262 91.8044 62.2188C92.272 61.6902 92.8527 61.2738 93.5033 61.0004C94.1538 60.7269 94.8577 60.6036 95.5624 60.6395C99.2592 60.7138 102.96 60.6745 106.657 60.6395C107.589 60.6329 108.519 60.5715 109.444 60.4557C113.32 59.9217 116.855 57.9522 119.348 54.9369C121.842 51.9216 123.113 48.0801 122.91 44.1725C122.472 36.3196 115.731 29.683 107.812 29.578ZM82.2235 48.2105C81.6115 48.2044 81.0149 48.0179 80.5084 47.6744C80.0019 47.3308 79.608 46.8455 79.376 46.2792C79.144 45.7128 79.0843 45.0906 79.2042 44.4905C79.3242 43.8903 79.6185 43.3389 80.0504 42.9052C80.4822 42.4716 81.0324 42.1749 81.6321 42.0525C82.2317 41.93 82.8542 41.9872 83.4215 42.2168C83.9888 42.4464 84.4757 42.8383 84.8214 43.3434C85.167 43.8484 85.356 44.4443 85.3646 45.0562C85.3664 45.4698 85.2864 45.8797 85.1293 46.2623C84.9722 46.6449 84.7411 46.9928 84.4493 47.2858C84.1574 47.5789 83.8106 47.8115 83.4286 47.9701C83.0466 48.1288 82.6371 48.2105 82.2235 48.2105V48.2105ZM94.7093 48.2105C94.0928 48.2122 93.4897 48.0307 92.9766 47.689C92.4635 47.3473 92.0634 46.8608 91.8273 46.2913C91.5912 45.7218 91.5296 45.095 91.6505 44.4904C91.7713 43.8859 92.069 43.3309 92.5059 42.8958C92.9427 42.4608 93.499 42.1655 94.1041 42.0472C94.7091 41.929 95.3357 41.9932 95.9041 42.2317C96.4726 42.4702 96.9574 42.8723 97.297 43.3869C97.6365 43.9015 97.8155 44.5053 97.8111 45.1218C97.7963 45.9409 97.4626 46.7219 96.8809 47.2987C96.2992 47.8755 95.5154 48.2026 94.6962 48.2105H94.7093ZM107.217 48.2105C106.601 48.22 105.997 48.0465 105.48 47.7121C104.963 47.3777 104.557 46.8973 104.313 46.3319C104.069 45.7665 103.999 45.1415 104.11 44.5359C104.222 43.9304 104.511 43.3717 104.94 42.9305C105.37 42.4893 105.921 42.1855 106.523 42.0576C107.125 41.9298 107.752 41.9835 108.324 42.2121C108.896 42.4406 109.387 42.8338 109.735 43.3416C110.083 43.8495 110.272 44.4493 110.279 45.065C110.28 45.8872 109.958 46.6769 109.383 47.2648C108.808 47.8527 108.026 48.1922 107.204 48.2105H107.217Z" fill="#746EE9" stroke="#746EE9" stroke-width="1.59682" stroke-miterlimit="10"/>
<path d="M128.051 41.6657C126.06 31.1923 117.577 24.1663 106.938 24.1182C103.56 24.1182 100.104 24.1182 96.5693 24.1182C91.9713 24.1182 87.2596 24.1182 82.4691 24.1182C81.2979 24.1086 80.1277 24.1905 78.9692 24.3632C70.0489 25.7981 63.1978 32.5967 61.5179 41.6832C59.9517 50.1267 64.2172 59.0077 71.8863 63.2732C73.4792 64.0977 75.1352 64.794 76.8387 65.3556C77.6261 65.64 78.4399 65.9374 79.2317 66.2524L79.2929 66.2787C79.9273 66.5937 79.9273 67.3155 79.9273 67.8449V70.2992C79.9273 72.2445 79.9273 74.1899 79.9273 76.1352C79.8938 76.5974 80.0079 77.0583 80.2532 77.4514C80.4986 77.8446 80.8624 78.1496 81.2923 78.3227C82.211 78.7602 83.0422 78.5939 83.8822 77.8458C84.0484 77.7014 84.2015 77.5439 84.3547 77.4083L86.8833 74.8797C89.4689 72.2897 92.1332 69.6298 94.8062 67.0049C95.3642 66.4784 96.0917 66.1682 96.858 66.1299C98.7479 66.1037 100.669 66.1037 102.545 66.1081C104.186 66.1081 105.888 66.1081 107.559 66.1081C112.104 66.0374 116.505 64.5019 120.108 61.7299C123.711 58.9578 126.323 55.0971 127.556 50.7217C127.779 49.9167 127.95 49.0636 128.116 48.2368C128.191 47.8649 128.265 47.493 128.344 47.1212V43.1357L128.261 42.7244C128.182 42.3526 128.116 42.007 128.051 41.6657ZM109.558 61.2651C108.6 61.3861 107.636 61.4489 106.671 61.4532H105.157C102.012 61.4532 98.7611 61.4926 95.5543 61.427C94.9609 61.3939 94.3678 61.4969 93.8204 61.7282C93.2729 61.9594 92.7856 62.3128 92.3956 62.7613C91.0832 64.1438 89.7095 65.5 88.3795 66.8124L86.8177 68.3611C86.6602 68.5186 86.494 68.6717 86.2796 68.8686L84.5559 70.461V68.6324C84.5559 68.0811 84.5559 67.5518 84.5559 67.0399C84.5559 65.9549 84.5559 64.9443 84.5559 63.9381C84.5559 62.4288 83.6109 61.5013 82.0797 61.4488C79.8834 61.4059 77.7172 60.9305 75.7046 60.05C73.6921 59.1695 71.8728 57.901 70.3507 56.3171C68.8536 54.7255 67.6887 52.8516 66.924 50.8047C66.1593 48.7578 65.8102 46.579 65.8971 44.3956C66.1509 36.0353 73.3344 28.878 81.5722 28.7687C90.287 28.6549 99.1242 28.6549 107.821 28.7687C116.134 28.878 123.247 35.7684 123.685 44.12C124.135 52.6685 117.927 60.1758 109.558 61.2651V61.2651Z" fill="black"/>
<path d="M101.359 95.3321C101.359 93.7221 100.886 93.0703 99.3419 92.554L93.5453 90.6203C89.6079 89.3079 85.5568 87.9517 81.5669 86.5998C81.1044 86.416 80.6021 86.3553 80.109 86.4235C79.616 86.4917 79.1491 86.6867 78.7539 86.9892C77.577 87.7986 76.3696 88.5992 75.2059 89.3735C74.134 90.0866 73.0184 90.8216 71.951 91.5609C71.6218 91.8394 71.2085 91.9991 70.7776 92.0142C70.3467 92.0292 69.9232 91.8989 69.5754 91.6441C68.6348 91.001 67.6592 90.3666 66.7143 89.7497C64.7127 88.4978 62.7805 87.1382 60.9263 85.6768C55.239 81.0132 50.9735 75.9252 47.8805 70.1198C47.6708 69.7834 47.5693 69.3909 47.5897 68.9951C47.61 68.5992 47.7512 68.2192 47.9942 67.9061C48.8692 66.6374 49.7442 65.3337 50.5623 64.0737C51.2623 63.0237 51.9622 61.9738 52.6666 60.9326C52.9363 60.5738 53.1117 60.1532 53.1767 59.7091C53.2416 59.265 53.1941 58.8117 53.0385 58.3908C52.0147 55.3517 50.9939 52.3126 49.9761 49.2736C48.9786 46.287 47.9797 43.3019 46.9793 40.3182C46.5112 38.9314 45.8156 38.4414 44.3106 38.437H43.93L37.5996 38.4239H32.5072C31.3366 38.3832 30.1702 38.5846 29.0811 39.0157C27.992 39.4468 27.0037 40.0982 26.1782 40.9292C25.3526 41.7601 24.7076 42.7525 24.2835 43.8444C23.8594 44.9363 23.6655 46.1039 23.7138 47.2742C23.7197 53.6625 24.8008 60.0042 26.9118 66.0336C34.0997 86.3549 47.8367 101.264 67.7861 110.417C75.5944 114.002 84.0824 115.867 92.6747 115.885H92.7228C97.1501 115.885 100.633 112.936 101.197 108.697C101.369 107.064 101.403 105.419 101.298 103.78C101.276 103.019 101.249 102.231 101.249 101.457V100.656H101.385V99.5888C101.385 98.1713 101.385 96.7539 101.385 95.3364L101.359 95.3321ZM96.7302 101.352C96.7302 101.789 96.7302 102.249 96.7302 102.699V104.069C96.7302 105.066 96.7302 106.064 96.7302 107.061C96.7547 107.628 96.6651 108.195 96.4667 108.727C96.2683 109.259 95.9651 109.746 95.5752 110.158C95.171 110.53 94.6974 110.818 94.1816 111.005C93.6658 111.193 93.118 111.277 92.5697 111.252H92.5084C82.9377 111.149 73.5418 108.675 65.1612 104.051C48.8342 95.1702 37.4815 82.0369 31.4223 65.0231C29.4186 59.3577 28.3761 53.3972 28.338 47.388C28.2973 46.8105 28.3735 46.2308 28.5622 45.6835C28.7509 45.1363 29.0481 44.6327 29.4361 44.2031C30.1798 43.4506 31.256 43.0656 32.6341 43.0613C33.7585 43.0613 34.8784 43.0613 36.0028 43.0613C37.8227 43.0613 39.7039 43.0613 41.5501 43.0613C41.986 43.0111 42.4252 43.1228 42.7842 43.3753C43.1431 43.6278 43.3968 44.0033 43.4969 44.4306C44.2056 46.6034 44.9231 48.7748 45.6493 50.9448C46.4193 53.2547 47.2111 55.6434 47.9767 57.997C48.0683 58.3283 48.0919 58.6746 48.046 59.0152C48.0001 59.3558 47.8858 59.6836 47.7099 59.9788C46.3537 62.0963 44.8225 64.4981 43.2081 66.7424C42.3332 67.9673 42.2413 69.0479 42.9019 70.4829C44.9012 74.814 47.7667 78.9788 51.6516 83.2093C56.6258 88.621 61.6394 92.6503 66.9636 95.5202C67.6461 95.8877 68.3811 96.2202 69.0898 96.5439L70.0085 96.9814C70.4144 97.1837 70.8691 97.2673 71.3204 97.2224C71.7717 97.1775 72.201 97.006 72.5591 96.7276L73.6572 95.9883C75.6433 94.6758 77.6952 93.2803 79.7513 91.9722C80.0733 91.7803 80.4306 91.6554 80.802 91.605C81.1734 91.5547 81.5511 91.5798 81.9125 91.6791C84.3624 92.4709 86.8473 93.2978 89.2491 94.094C91.2907 94.7765 93.3323 95.4531 95.3739 96.1239C95.8034 96.2243 96.1805 96.48 96.4325 96.842C96.6846 97.2039 96.7937 97.6462 96.7389 98.0838C96.717 99.1469 96.7214 100.267 96.7302 101.352Z" fill="black"/>
<path d="M82.2235 41.9938C81.607 41.9973 81.0055 42.184 80.4953 42.5301C79.9851 42.8761 79.5893 43.366 79.358 43.9375C79.1267 44.5089 79.0705 45.1362 79.1965 45.7397C79.3224 46.3432 79.6248 46.8957 80.0653 47.3269C80.5059 47.7582 81.0646 48.0489 81.6706 48.162C82.2767 48.2751 82.9026 48.2056 83.4691 47.9623C84.0355 47.719 84.5169 47.3128 84.852 46.7954C85.1872 46.278 85.3611 45.6726 85.3515 45.0562C85.3321 44.2388 84.9943 43.4612 84.41 42.8892C83.8258 42.3171 83.0412 41.9959 82.2235 41.9938V41.9938Z" fill="black"/>
<path d="M94.7357 41.9938C94.1193 41.9843 93.514 42.1582 92.9966 42.4933C92.4791 42.8285 92.073 43.3099 91.8297 43.8763C91.5864 44.4428 91.5168 45.0687 91.63 45.6747C91.7431 46.2808 92.0337 46.8395 92.465 47.28C92.8963 47.7205 93.4487 48.023 94.0522 48.1489C94.6557 48.2749 95.283 48.2186 95.8545 47.9874C96.426 47.7561 96.9158 47.3603 97.2619 46.8501C97.608 46.3399 97.7946 45.7383 97.7981 45.1219C97.795 44.3045 97.4734 43.5206 96.9016 42.9365C96.3298 42.3525 95.5528 42.0143 94.7357 41.9938Z" fill="black"/>
<path d="M107.13 41.9938C106.513 41.9956 105.91 42.1808 105.399 42.5258C104.888 42.8708 104.491 43.3601 104.258 43.9314C104.025 44.5028 103.968 45.1303 104.093 45.7344C104.218 46.3385 104.52 46.8918 104.96 47.3239C105.4 47.7561 105.959 48.0476 106.565 48.1614C107.171 48.2753 107.798 48.2062 108.365 47.9632C108.931 47.7201 109.413 47.3139 109.749 46.7963C110.084 46.2787 110.259 45.673 110.249 45.0562C110.229 44.2406 109.892 43.465 109.309 42.8934C108.727 42.3219 107.946 41.9992 107.13 41.9938V41.9938Z" fill="black"/>
</svg>
