<svg width="237" height="68" viewBox="0 0 237 68" fill="none" xmlns="http://www.w3.org/2000/svg">
<path d="M22.8505 57.1406L20.9052 56.5078L21.0927 55.916L23.038 56.6367L23.0146 54.4688H23.624L23.5771 56.6543L25.4755 55.9102L25.6689 56.502L23.7177 57.1758L25.0244 58.8984L24.5263 59.2676L23.2724 57.4805L22.0771 59.2559L21.5791 58.8984L22.8505 57.1406ZM33.2903 59.0156H29.3118V63H28.5911V54.4688H33.8763V55.084H29.3118V58.4004H33.2903V59.0156ZM40.6598 63C40.5895 62.8008 40.5445 62.5059 40.525 62.1152C40.2789 62.4355 39.9645 62.6836 39.5816 62.8594C39.2027 63.0312 38.8004 63.1172 38.3746 63.1172C37.7652 63.1172 37.2711 62.9473 36.8922 62.6074C36.5172 62.2676 36.3297 61.8379 36.3297 61.3184C36.3297 60.7012 36.5855 60.2129 37.0973 59.8535C37.6129 59.4941 38.3297 59.3145 39.2477 59.3145H40.5191V58.5938C40.5191 58.1406 40.3785 57.7852 40.0973 57.5273C39.8199 57.2656 39.4137 57.1348 38.8785 57.1348C38.3902 57.1348 37.9859 57.2598 37.6656 57.5098C37.3453 57.7598 37.1852 58.0605 37.1852 58.4121L36.482 58.4062C36.482 57.9023 36.7164 57.4668 37.1852 57.0996C37.6539 56.7285 38.2301 56.543 38.9137 56.543C39.6207 56.543 40.1773 56.7207 40.5836 57.0762C40.9938 57.4277 41.2047 57.9199 41.2164 58.5527V61.5527C41.2164 62.166 41.2809 62.625 41.4098 62.9297V63H40.6598ZM38.4566 62.4961C38.9254 62.4961 39.3434 62.3828 39.7105 62.1562C40.0816 61.9297 40.3512 61.627 40.5191 61.248V59.8535H39.2652C38.566 59.8613 38.0191 59.9902 37.6246 60.2402C37.2301 60.4863 37.0328 60.8262 37.0328 61.2598C37.0328 61.6152 37.1637 61.9102 37.4254 62.1445C37.691 62.3789 38.0348 62.4961 38.4566 62.4961ZM47.1152 62.5254C47.6034 62.5254 48.0116 62.3887 48.3398 62.1152C48.6718 61.8379 48.8515 61.4805 48.8788 61.043H49.5527C49.5331 61.4297 49.412 61.7832 49.1894 62.1035C48.9667 62.4199 48.6698 62.668 48.2988 62.8477C47.9316 63.0273 47.537 63.1172 47.1152 63.1172C46.2831 63.1172 45.623 62.8281 45.1347 62.25C44.6503 61.6719 44.4081 60.8945 44.4081 59.918V59.707C44.4081 59.082 44.5175 58.5293 44.7363 58.0488C44.955 57.5684 45.2675 57.1973 45.6738 56.9355C46.0839 56.6738 46.5624 56.543 47.1093 56.543C47.8046 56.543 48.3769 56.75 48.8261 57.1641C49.2792 57.5781 49.5214 58.123 49.5527 58.7988H48.8788C48.8476 58.3027 48.6679 57.9023 48.3398 57.5977C48.0155 57.293 47.6054 57.1406 47.1093 57.1406C46.4765 57.1406 45.9843 57.3691 45.6327 57.8262C45.2851 58.2832 45.1113 58.9238 45.1113 59.748V59.9531C45.1113 60.7617 45.2851 61.3926 45.6327 61.8457C45.9843 62.2988 46.4784 62.5254 47.1152 62.5254ZM53.7288 55.0371V56.6602H55.0413V57.2344H53.7288V61.459C53.7288 61.8105 53.7913 62.0723 53.9163 62.2441C54.0452 62.416 54.258 62.502 54.5549 62.502C54.6721 62.502 54.8616 62.4824 55.1233 62.4434L55.1526 63.0176C54.969 63.084 54.719 63.1172 54.4026 63.1172C53.9221 63.1172 53.5725 62.9785 53.3538 62.7012C53.135 62.4199 53.0256 62.0078 53.0256 61.4648V57.2344H51.8596V56.6602H53.0256V55.0371H53.7288ZM62.2525 62.1973C61.8306 62.8105 61.1568 63.1172 60.231 63.1172C59.5552 63.1172 59.0416 62.9219 58.69 62.5312C58.3384 62.1367 58.1587 61.5547 58.1509 60.7852V56.6602H58.8482V60.6973C58.8482 61.9043 59.3365 62.5078 60.313 62.5078C61.3287 62.5078 61.9712 62.0879 62.2408 61.248V56.6602H62.9439V63H62.2642L62.2525 62.1973ZM69.3817 57.2578C69.2333 57.2305 69.0751 57.2168 68.9071 57.2168C68.4696 57.2168 68.0985 57.3398 67.7938 57.5859C67.493 57.8281 67.2782 58.1816 67.1493 58.6465V63H66.452V56.6602H67.1376L67.1493 57.668C67.5204 56.918 68.1161 56.543 68.9364 56.543C69.1317 56.543 69.286 56.5684 69.3993 56.6191L69.3817 57.2578ZM75.9426 63C75.8723 62.8008 75.8273 62.5059 75.8078 62.1152C75.5617 62.4355 75.2473 62.6836 74.8645 62.8594C74.4855 63.0312 74.0832 63.1172 73.6574 63.1172C73.048 63.1172 72.5539 62.9473 72.175 62.6074C71.8 62.2676 71.6125 61.8379 71.6125 61.3184C71.6125 60.7012 71.8684 60.2129 72.3801 59.8535C72.8957 59.4941 73.6125 59.3145 74.5305 59.3145H75.802V58.5938C75.802 58.1406 75.6613 57.7852 75.3801 57.5273C75.1027 57.2656 74.6965 57.1348 74.1613 57.1348C73.673 57.1348 73.2688 57.2598 72.9484 57.5098C72.6281 57.7598 72.468 58.0605 72.468 58.4121L71.7648 58.4062C71.7648 57.9023 71.9992 57.4668 72.468 57.0996C72.9367 56.7285 73.5129 56.543 74.1965 56.543C74.9035 56.543 75.4602 56.7207 75.8664 57.0762C76.2766 57.4277 76.4875 57.9199 76.4992 58.5527V61.5527C76.4992 62.166 76.5637 62.625 76.6926 62.9297V63H75.9426ZM73.7395 62.4961C74.2082 62.4961 74.6262 62.3828 74.9934 62.1562C75.3645 61.9297 75.634 61.627 75.802 61.248V59.8535H74.548C73.8488 59.8613 73.302 59.9902 72.9074 60.2402C72.5129 60.4863 72.3156 60.8262 72.3156 61.2598C72.3156 61.6152 72.4465 61.9102 72.7082 62.1445C72.9738 62.3789 73.3176 62.4961 73.7395 62.4961ZM79.773 59.7715C79.773 58.7871 79.9917 58.0039 80.4292 57.4219C80.8706 56.8359 81.4683 56.543 82.2222 56.543C83.0777 56.543 83.73 56.8809 84.1792 57.5566V54H84.8765V63H84.2202L84.1909 62.1562C83.7417 62.7969 83.0816 63.1172 82.2105 63.1172C81.48 63.1172 80.8902 62.8242 80.4409 62.2383C79.9956 61.6484 79.773 60.8535 79.773 59.8535V59.7715ZM80.4819 59.8945C80.4819 60.7031 80.6441 61.3418 80.9683 61.8105C81.2925 62.2754 81.7495 62.5078 82.3394 62.5078C83.2027 62.5078 83.8159 62.127 84.1792 61.3652V58.3887C83.8159 57.5645 83.2066 57.1523 82.3511 57.1523C81.7612 57.1523 81.3023 57.3848 80.9741 57.8496C80.646 58.3105 80.4819 58.9922 80.4819 59.8945ZM88.0155 59.7363C88.0155 59.127 88.1327 58.5781 88.367 58.0898C88.6053 57.6016 88.9393 57.2227 89.369 56.9531C89.8026 56.6797 90.2928 56.543 90.8397 56.543C91.6834 56.543 92.367 56.8398 92.8905 57.4336C93.4139 58.0234 93.6756 58.8066 93.6756 59.7832V59.9297C93.6756 60.543 93.5565 61.0957 93.3182 61.5879C93.0838 62.0762 92.7518 62.4531 92.3221 62.7188C91.8924 62.9844 91.4022 63.1172 90.8514 63.1172C90.0116 63.1172 89.328 62.8223 88.8006 62.2324C88.2772 61.6387 88.0155 60.8535 88.0155 59.877V59.7363ZM88.7186 59.9297C88.7186 60.6875 88.9139 61.3105 89.3045 61.7988C89.6991 62.2832 90.2147 62.5254 90.8514 62.5254C91.4842 62.5254 91.9959 62.2832 92.3866 61.7988C92.7811 61.3105 92.9784 60.668 92.9784 59.8711V59.7363C92.9784 59.252 92.8885 58.8086 92.7088 58.4062C92.5291 58.0039 92.2772 57.6934 91.953 57.4746C91.6288 57.252 91.2577 57.1406 90.8397 57.1406C90.2147 57.1406 89.7049 57.3867 89.3104 57.8789C88.9159 58.3672 88.7186 59.0078 88.7186 59.8008V59.9297ZM105.409 63C105.338 62.8008 105.293 62.5059 105.274 62.1152C105.028 62.4355 104.713 62.6836 104.331 62.8594C103.952 63.0312 103.549 63.1172 103.124 63.1172C102.514 63.1172 102.02 62.9473 101.641 62.6074C101.266 62.2676 101.079 61.8379 101.079 61.3184C101.079 60.7012 101.334 60.2129 101.846 59.8535C102.362 59.4941 103.079 59.3145 103.997 59.3145H105.268V58.5938C105.268 58.1406 105.127 57.7852 104.846 57.5273C104.569 57.2656 104.163 57.1348 103.627 57.1348C103.139 57.1348 102.735 57.2598 102.415 57.5098C102.094 57.7598 101.934 58.0605 101.934 58.4121L101.231 58.4062C101.231 57.9023 101.465 57.4668 101.934 57.0996C102.403 56.7285 102.979 56.543 103.663 56.543C104.37 56.543 104.926 56.7207 105.332 57.0762C105.743 57.4277 105.954 57.9199 105.965 58.5527V61.5527C105.965 62.166 106.03 62.625 106.159 62.9297V63H105.409ZM103.206 62.4961C103.674 62.4961 104.092 62.3828 104.459 62.1562C104.831 61.9297 105.1 61.627 105.268 61.248V59.8535H104.014C103.315 59.8613 102.768 59.9902 102.374 60.2402C101.979 60.4863 101.782 60.8262 101.782 61.2598C101.782 61.6152 101.913 61.9102 102.174 62.1445C102.44 62.3789 102.784 62.4961 103.206 62.4961ZM110.188 56.6602L110.212 57.7441C110.45 57.3535 110.747 57.0566 111.102 56.8535C111.458 56.6465 111.85 56.543 112.28 56.543C112.96 56.543 113.466 56.7344 113.798 57.1172C114.13 57.5 114.298 58.0742 114.302 58.8398V63H113.604V58.834C113.6 58.2676 113.479 57.8457 113.241 57.5684C113.007 57.291 112.63 57.1523 112.11 57.1523C111.677 57.1523 111.292 57.2891 110.956 57.5625C110.624 57.832 110.378 58.1973 110.218 58.6582V63H109.52V56.6602H110.188ZM121.876 62.1973C121.454 62.8105 120.78 63.1172 119.855 63.1172C119.179 63.1172 118.665 62.9219 118.314 62.5312C117.962 62.1367 117.782 61.5547 117.775 60.7852V56.6602H118.472V60.6973C118.472 61.9043 118.96 62.5078 119.937 62.5078C120.952 62.5078 121.595 62.0879 121.864 61.248V56.6602H122.567V63H121.888L121.876 62.1973ZM130.078 63C130.007 62.8008 129.962 62.5059 129.943 62.1152C129.697 62.4355 129.382 62.6836 128.999 62.8594C128.621 63.0312 128.218 63.1172 127.792 63.1172C127.183 63.1172 126.689 62.9473 126.31 62.6074C125.935 62.2676 125.747 61.8379 125.747 61.3184C125.747 60.7012 126.003 60.2129 126.515 59.8535C127.031 59.4941 127.747 59.3145 128.665 59.3145H129.937V58.5938C129.937 58.1406 129.796 57.7852 129.515 57.5273C129.238 57.2656 128.831 57.1348 128.296 57.1348C127.808 57.1348 127.404 57.2598 127.083 57.5098C126.763 57.7598 126.603 58.0605 126.603 58.4121L125.9 58.4062C125.9 57.9023 126.134 57.4668 126.603 57.0996C127.072 56.7285 127.648 56.543 128.331 56.543C129.039 56.543 129.595 56.7207 130.001 57.0762C130.412 57.4277 130.622 57.9199 130.634 58.5527V61.5527C130.634 62.166 130.699 62.625 130.828 62.9297V63H130.078ZM127.874 62.4961C128.343 62.4961 128.761 62.3828 129.128 62.1562C129.499 61.9297 129.769 61.627 129.937 61.248V59.8535H128.683C127.984 59.8613 127.437 59.9902 127.042 60.2402C126.648 60.4863 126.451 60.8262 126.451 61.2598C126.451 61.6152 126.581 61.9102 126.843 62.1445C127.109 62.3789 127.453 62.4961 127.874 62.4961ZM134.974 63H134.271V54H134.974V63ZM139.203 56.6602L139.227 57.6914C139.461 57.3086 139.754 57.0215 140.106 56.8301C140.457 56.6387 140.848 56.543 141.277 56.543C142.277 56.543 142.912 56.9531 143.182 57.7734C143.408 57.3789 143.711 57.0762 144.09 56.8652C144.469 56.6504 144.887 56.543 145.344 56.543C146.703 56.543 147.397 57.2852 147.424 58.7695V63H146.721V58.8223C146.717 58.2559 146.594 57.8359 146.352 57.5625C146.113 57.2891 145.723 57.1523 145.18 57.1523C144.676 57.1602 144.25 57.3242 143.902 57.6445C143.555 57.9609 143.361 58.3477 143.322 58.8047V63H142.619V58.7695C142.615 58.2266 142.486 57.8223 142.232 57.5566C141.982 57.2871 141.596 57.1523 141.072 57.1523C140.631 57.1523 140.252 57.2793 139.936 57.5332C139.619 57.7832 139.385 58.1562 139.232 58.6523V63H138.529V56.6602H139.203ZM153.34 63.1172C152.801 63.1172 152.313 62.9844 151.875 62.7188C151.442 62.4531 151.104 62.084 150.862 61.6113C150.62 61.1348 150.498 60.6016 150.498 60.0117V59.7598C150.498 59.1504 150.616 58.6016 150.85 58.1133C151.088 57.625 151.418 57.2422 151.84 56.9648C152.262 56.6836 152.719 56.543 153.211 56.543C153.981 56.543 154.59 56.8066 155.039 57.334C155.493 57.8574 155.719 58.5742 155.719 59.4844V59.877H151.196V60.0117C151.196 60.7305 151.401 61.3301 151.811 61.8105C152.225 62.2871 152.745 62.5254 153.37 62.5254C153.745 62.5254 154.075 62.457 154.36 62.3203C154.649 62.1836 154.911 61.9648 155.145 61.6641L155.584 61.998C155.069 62.7441 154.321 63.1172 153.34 63.1172ZM153.211 57.1406C152.684 57.1406 152.239 57.334 151.875 57.7207C151.516 58.1074 151.297 58.627 151.219 59.2793H155.022V59.2031C155.002 58.5938 154.829 58.0977 154.5 57.7148C154.172 57.332 153.743 57.1406 153.211 57.1406ZM159.432 56.6602L159.456 57.7441C159.694 57.3535 159.991 57.0566 160.346 56.8535C160.702 56.6465 161.094 56.543 161.524 56.543C162.204 56.543 162.71 56.7344 163.042 57.1172C163.374 57.5 163.542 58.0742 163.546 58.8398V63H162.848V58.834C162.844 58.2676 162.723 57.8457 162.485 57.5684C162.251 57.291 161.874 57.1523 161.354 57.1523C160.921 57.1523 160.536 57.2891 160.2 57.5625C159.868 57.832 159.622 58.1973 159.462 58.6582V63H158.764V56.6602H159.432ZM168.132 55.0371V56.6602H169.444V57.2344H168.132V61.459C168.132 61.8105 168.194 62.0723 168.319 62.2441C168.448 62.416 168.661 62.502 168.958 62.502C169.075 62.502 169.265 62.4824 169.526 62.4434L169.556 63.0176C169.372 63.084 169.122 63.1172 168.806 63.1172C168.325 63.1172 167.976 62.9785 167.757 62.7012C167.538 62.4199 167.429 62.0078 167.429 61.4648V57.2344H166.263V56.6602H167.429V55.0371H168.132ZM175.033 63.1172C174.494 63.1172 174.005 62.9844 173.568 62.7188C173.134 62.4531 172.796 62.084 172.554 61.6113C172.312 61.1348 172.191 60.6016 172.191 60.0117V59.7598C172.191 59.1504 172.308 58.6016 172.542 58.1133C172.781 57.625 173.111 57.2422 173.533 56.9648C173.954 56.6836 174.411 56.543 174.904 56.543C175.673 56.543 176.283 56.8066 176.732 57.334C177.185 57.8574 177.411 58.5742 177.411 59.4844V59.877H172.888V60.0117C172.888 60.7305 173.093 61.3301 173.503 61.8105C173.917 62.2871 174.437 62.5254 175.062 62.5254C175.437 62.5254 175.767 62.457 176.052 62.3203C176.341 62.1836 176.603 61.9648 176.837 61.6641L177.277 61.998C176.761 62.7441 176.013 63.1172 175.033 63.1172ZM174.904 57.1406C174.376 57.1406 173.931 57.334 173.568 57.7207C173.208 58.1074 172.99 58.627 172.911 59.2793H176.714V59.2031C176.695 58.5938 176.521 58.0977 176.193 57.7148C175.865 57.332 175.435 57.1406 174.904 57.1406Z" fill="#929292"/>
<path d="M67.3577 50H40.4859V44.1813L52.8639 31.1686C55.9143 27.695 57.4395 24.9356 57.4395 22.8902C57.4395 21.2328 57.078 19.9721 56.3551 19.1081C55.6321 18.2441 54.583 17.8121 53.2077 17.8121C51.85 17.8121 50.748 18.394 49.9016 19.5577C49.0553 20.7038 48.6321 22.1408 48.6321 23.8688H39.6925C39.6925 21.5061 40.2831 19.3285 41.4645 17.336C42.6459 15.3259 44.2857 13.7566 46.384 12.6282C48.4822 11.4997 50.8273 10.9355 53.4193 10.9355C57.5805 10.9355 60.7808 11.8964 63.0201 13.8184C65.277 15.7403 66.4055 18.4998 66.4055 22.0968C66.4055 23.6131 66.1234 25.0943 65.5592 26.5401C64.9949 27.9683 64.1133 29.4759 62.9143 31.0628C61.7329 32.6321 59.8198 34.7392 57.175 37.384L52.2026 43.1234H67.3577V50ZM72.3829 31.1686L74.7368 11.4909H97.2445V18.4204H81.9837L81.1109 26.064C81.7457 25.6938 82.5744 25.3676 83.5971 25.0854C84.6374 24.8033 85.6513 24.6623 86.6387 24.6623C90.4649 24.6623 93.4007 25.7996 95.446 28.0741C97.509 30.3311 98.5405 33.5049 98.5405 37.5956C98.5405 40.0642 97.9851 42.3035 96.8743 44.3136C95.7811 46.306 94.2382 47.84 92.2458 48.9156C90.2533 49.9912 87.8994 50.529 85.184 50.529C82.7684 50.529 80.5026 50.0353 78.3867 49.0479C76.2708 48.0428 74.6134 46.6763 73.4144 44.9483C72.2154 43.2027 71.6247 41.2367 71.6423 39.0503H80.582C80.6701 40.4609 81.1197 41.5805 81.9308 42.4093C82.7419 43.238 83.8087 43.6523 85.1311 43.6523C88.1286 43.6523 89.6274 41.4307 89.6274 36.9873C89.6274 32.879 87.7936 30.8248 84.1261 30.8248C82.0454 30.8248 80.4938 31.4948 79.4711 32.8349L72.3829 31.1686Z" fill="#746EE9"/>
<path d="M28.3347 35.7593C28.3347 35.1807 28.1919 34.7266 27.9062 34.397C27.6206 34.0674 27.1189 33.7561 26.4011 33.4631C25.6833 33.1702 25.0205 32.8735 24.4126 32.5732C23.8047 32.2729 23.281 31.925 22.8416 31.5295C22.4021 31.134 22.0652 30.6763 21.8308 30.1562C21.5964 29.6362 21.4792 29.0063 21.4792 28.2666C21.4792 27.0288 21.8967 26.0107 22.7317 25.2124C23.5667 24.4067 24.6799 23.938 26.0715 23.8062V21.488H27.8184V23.8501C29.1587 24.0479 30.2097 24.6008 30.9714 25.509C31.7405 26.4099 32.125 27.5562 32.125 28.9478H28.4116C28.4116 28.186 28.2651 27.6001 27.9722 27.1899C27.6792 26.7798 27.2617 26.5747 26.7197 26.5747C26.2363 26.5747 25.8591 26.7285 25.5881 27.0361C25.3245 27.3364 25.1926 27.7539 25.1926 28.2886C25.1926 28.8306 25.3464 29.2627 25.6541 29.585C25.9617 29.8999 26.4561 30.2039 27.1372 30.4968C27.8184 30.7825 28.4592 31.0828 29.0598 31.3977C29.6677 31.7053 30.1914 32.0569 30.6309 32.4524C31.0703 32.8479 31.4146 33.3093 31.6636 33.8367C31.9126 34.364 32.0371 34.9976 32.0371 35.7373C32.0371 36.9897 31.6379 38.0115 30.8396 38.8025C30.0486 39.5935 28.9683 40.0549 27.5986 40.1868V42.395H25.8518V40.1758C24.2551 40.0073 23.0283 39.4617 22.1714 38.5388C21.3218 37.6086 20.897 36.3855 20.897 34.8694H24.5994C24.5994 35.7043 24.7825 36.3416 25.1487 36.781C25.5222 37.2131 26.0496 37.4292 26.7307 37.4292C27.2288 37.4292 27.6206 37.2827 27.9062 36.9897C28.1919 36.6895 28.3347 36.2793 28.3347 35.7593Z" fill="#746EE9"/>
<path d="M118.227 11.7812V21.0879C118.227 22.1426 118.002 23.0573 117.553 23.832C117.104 24.6003 116.459 25.1862 115.619 25.5898C114.779 25.9935 113.786 26.1953 112.641 26.1953C110.909 26.1953 109.545 25.7461 108.549 24.8477C107.553 23.9492 107.045 22.7188 107.025 21.1562V11.7812H110.473V21.2246C110.512 22.7806 111.234 23.5586 112.641 23.5586C113.35 23.5586 113.887 23.3633 114.252 22.9727C114.617 22.582 114.799 21.9473 114.799 21.0684V11.7812H118.227ZM127.709 22.2207C127.709 21.7194 127.53 21.3288 127.172 21.0488C126.82 20.7689 126.199 20.4792 125.307 20.1797C124.415 19.8802 123.686 19.5905 123.119 19.3105C121.277 18.4056 120.355 17.1621 120.355 15.5801C120.355 14.7923 120.583 14.099 121.039 13.5C121.501 12.8945 122.152 12.4258 122.992 12.0938C123.832 11.7552 124.776 11.5859 125.824 11.5859C126.846 11.5859 127.761 11.7682 128.568 12.1328C129.382 12.4974 130.014 13.0182 130.463 13.6953C130.912 14.3659 131.137 15.1341 131.137 16H127.719C127.719 15.4206 127.54 14.9714 127.182 14.6523C126.83 14.3333 126.352 14.1738 125.746 14.1738C125.134 14.1738 124.649 14.3105 124.291 14.584C123.939 14.8509 123.764 15.1927 123.764 15.6094C123.764 15.974 123.959 16.306 124.35 16.6055C124.74 16.8984 125.427 17.2044 126.41 17.5234C127.393 17.8359 128.201 18.1745 128.832 18.5391C130.368 19.4245 131.137 20.6452 131.137 22.2012C131.137 23.4447 130.668 24.4212 129.73 25.1309C128.793 25.8405 127.507 26.1953 125.873 26.1953C124.721 26.1953 123.676 25.9902 122.738 25.5801C121.807 25.1634 121.104 24.597 120.629 23.8809C120.16 23.1582 119.926 22.3281 119.926 21.3906H123.363C123.363 22.1523 123.559 22.7155 123.949 23.0801C124.346 23.4382 124.988 23.6172 125.873 23.6172C126.439 23.6172 126.885 23.4967 127.211 23.2559C127.543 23.0085 127.709 22.6634 127.709 22.2207ZM132.895 26V11.7812H137.475C138.731 11.7812 139.861 12.0677 140.863 12.6406C141.866 13.207 142.647 14.0111 143.207 15.0527C143.773 16.0879 144.06 17.25 144.066 18.5391V19.1934C144.066 20.4954 143.79 21.6641 143.236 22.6992C142.689 23.7279 141.915 24.5352 140.912 25.1211C139.916 25.7005 138.803 25.9935 137.572 26H132.895ZM136.322 14.4277V23.3633H137.514C138.497 23.3633 139.252 23.015 139.779 22.3184C140.307 21.6152 140.57 20.5736 140.57 19.1934V18.5781C140.57 17.2044 140.307 16.1693 139.779 15.4727C139.252 14.776 138.484 14.4277 137.475 14.4277H136.322Z" fill="#746EE9"/>
<path d="M111.098 32.7812L114.75 43.0938L118.383 32.7812H122.23V47H119.291V43.1133L119.584 36.4043L115.746 47H113.734L109.906 36.4141L110.199 43.1133V47H107.27V32.7812H111.098ZM129.467 47.1953C127.917 47.1953 126.654 46.7201 125.678 45.7695C124.708 44.819 124.223 43.5527 124.223 41.9707V41.6973C124.223 40.6361 124.428 39.6888 124.838 38.8555C125.248 38.0156 125.827 37.3711 126.576 36.9219C127.331 36.4661 128.191 36.2383 129.154 36.2383C130.6 36.2383 131.736 36.694 132.562 37.6055C133.396 38.5169 133.812 39.8092 133.812 41.4824V42.6348H127.084C127.175 43.3249 127.449 43.8783 127.904 44.2949C128.367 44.7116 128.949 44.9199 129.652 44.9199C130.74 44.9199 131.589 44.526 132.201 43.7383L133.588 45.291C133.165 45.89 132.592 46.3587 131.869 46.6973C131.146 47.0293 130.346 47.1953 129.467 47.1953ZM129.145 38.5234C128.585 38.5234 128.129 38.7122 127.777 39.0898C127.432 39.4674 127.211 40.0078 127.113 40.7109H131.039V40.4863C131.026 39.8613 130.857 39.3796 130.531 39.041C130.206 38.696 129.743 38.5234 129.145 38.5234ZM138.021 36.4336L138.109 37.6543C138.865 36.7103 139.877 36.2383 141.146 36.2383C142.266 36.2383 143.1 36.5671 143.646 37.2246C144.193 37.8822 144.473 38.8652 144.486 40.1738V47H141.664V40.2422C141.664 39.6432 141.534 39.2103 141.273 38.9434C141.013 38.6699 140.58 38.5332 139.975 38.5332C139.18 38.5332 138.585 38.8717 138.188 39.5488V47H135.365V36.4336H138.021ZM152.357 44.0801C152.357 43.735 152.185 43.4648 151.84 43.2695C151.501 43.0677 150.954 42.8887 150.199 42.7324C147.686 42.2051 146.43 41.1374 146.43 39.5293C146.43 38.5918 146.817 37.8105 147.592 37.1855C148.373 36.554 149.392 36.2383 150.648 36.2383C151.99 36.2383 153.061 36.554 153.861 37.1855C154.669 37.8171 155.072 38.6374 155.072 39.6465H152.25C152.25 39.2428 152.12 38.9108 151.859 38.6504C151.599 38.3835 151.192 38.25 150.639 38.25C150.163 38.25 149.796 38.3574 149.535 38.5723C149.275 38.7871 149.145 39.0605 149.145 39.3926C149.145 39.7051 149.291 39.959 149.584 40.1543C149.883 40.3431 150.385 40.5091 151.088 40.6523C151.791 40.7891 152.383 40.9453 152.865 41.1211C154.356 41.668 155.102 42.6152 155.102 43.9629C155.102 44.9264 154.688 45.7077 153.861 46.3066C153.035 46.8991 151.967 47.1953 150.658 47.1953C149.773 47.1953 148.985 47.0391 148.295 46.7266C147.611 46.4076 147.074 45.9746 146.684 45.4277C146.293 44.8743 146.098 44.2786 146.098 43.6406H148.773C148.799 44.1419 148.985 44.526 149.33 44.793C149.675 45.0599 150.137 45.1934 150.717 45.1934C151.257 45.1934 151.664 45.0924 151.938 44.8906C152.217 44.6823 152.357 44.4121 152.357 44.0801ZM163.256 45.9258C162.559 46.7721 161.596 47.1953 160.365 47.1953C159.232 47.1953 158.367 46.8698 157.768 46.2188C157.175 45.5677 156.872 44.6139 156.859 43.3574V36.4336H159.682V43.2598C159.682 44.36 160.183 44.9102 161.186 44.9102C162.143 44.9102 162.8 44.5781 163.158 43.9141V36.4336H165.99V47H163.334L163.256 45.9258ZM174.242 47C174.112 46.7461 174.018 46.4303 173.959 46.0527C173.275 46.8145 172.387 47.1953 171.293 47.1953C170.258 47.1953 169.398 46.8958 168.715 46.2969C168.038 45.6979 167.699 44.9427 167.699 44.0312C167.699 42.9115 168.113 42.0521 168.939 41.4531C169.773 40.8542 170.974 40.5514 172.543 40.5449H173.842V39.9395C173.842 39.4512 173.715 39.0605 173.461 38.7676C173.214 38.4746 172.82 38.3281 172.279 38.3281C171.804 38.3281 171.43 38.4421 171.156 38.6699C170.889 38.8978 170.756 39.2103 170.756 39.6074H167.934C167.934 38.9954 168.122 38.429 168.5 37.9082C168.878 37.3874 169.411 36.9805 170.102 36.6875C170.792 36.388 171.566 36.2383 172.426 36.2383C173.728 36.2383 174.76 36.5671 175.521 37.2246C176.29 37.8757 176.674 38.7936 176.674 39.9785V44.5586C176.68 45.5612 176.82 46.3197 177.094 46.834V47H174.242ZM171.908 45.0371C172.325 45.0371 172.709 44.946 173.061 44.7637C173.412 44.5749 173.673 44.3242 173.842 44.0117V42.1953H172.787C171.374 42.1953 170.622 42.6836 170.531 43.6602L170.521 43.8262C170.521 44.1777 170.645 44.4674 170.893 44.6953C171.14 44.9232 171.479 45.0371 171.908 45.0371ZM181.82 47H178.988V32H181.82V47Z" fill="#746EE9"/>
</svg>
