<svg width="110" height="110" viewBox="0 0 110 110" fill="none" xmlns="http://www.w3.org/2000/svg">
<circle cx="55" cy="55" r="55" fill="#F8F8F8"/>
<path d="M53.7662 58.1724H49.0275V58.9797C49.0275 61.7541 49.0275 64.5284 49.0275 67.3028C49.0641 69.3012 48.3974 71.249 47.1438 72.8058C46.4011 73.7342 45.6665 74.6706 44.9103 75.5855C44.7766 75.7063 44.6907 75.8712 44.6685 76.0501C44.6463 76.2289 44.6891 76.4098 44.7892 76.5597C45.2144 77.367 45.5131 78.2361 45.914 79.0569C45.9715 79.1728 46.0543 79.2744 46.1563 79.354C46.2583 79.4337 46.3769 79.4894 46.5033 79.517C52.819 79.5412 59.1347 79.5359 65.453 79.5359C65.544 79.5262 65.634 79.5091 65.7221 79.4847C66.2738 75.2276 68.2893 71.8505 71.9786 69.5686C74.6338 67.9108 77.8062 67.2882 80.891 67.8195C87.1017 68.7801 91.8217 74.3181 91.8459 80.658C91.8609 83.7594 90.7727 86.7652 88.7758 89.1382C86.7788 91.5113 84.0032 93.097 80.9448 93.6122C79.1711 93.9378 77.3482 93.8803 75.5985 93.4436C73.8488 93.0069 72.2127 92.201 70.8 91.08C67.8076 88.7766 66.1554 85.6847 65.7194 81.9496H46.5975V93.7522H25.2825C25.2825 93.6041 25.2475 93.4642 25.2475 93.3216C25.2475 90.0925 25.2341 86.8822 25.2475 83.6611C25.2505 81.1987 25.8763 78.7771 27.0666 76.6216C27.3196 76.1641 27.255 75.8923 26.9482 75.5236C26.1086 74.5145 25.2825 73.4947 24.4967 72.4452C23.4288 71.0285 22.8558 69.3002 22.866 67.5261C22.866 65.8685 22.8445 64.2082 22.866 62.5479C22.8814 61.3795 22.6038 60.2258 22.0587 59.1923C21.639 58.385 21.2192 57.5777 20.8317 56.7381C19.7553 54.4643 21.3133 52.0397 23.8106 52.2281C24.8573 52.3088 25.8745 52.8174 26.8971 53.1511C27.1352 53.2643 27.3607 53.4023 27.5698 53.5628V41.4804C25.5947 41.4804 23.6464 41.4804 21.6982 41.4804C20.8598 41.4926 20.0443 41.2069 19.3968 40.6743C18.7494 40.1416 18.3119 39.3965 18.1622 38.5715C18.1137 38.2781 18.0921 37.9808 18.0977 37.6835C18.0977 34.6624 18.0977 31.6414 18.0977 28.6204C18.0977 26.3465 19.6046 24.8369 21.865 24.8369H47.429C49.9505 24.8369 51.3901 26.2792 51.3955 28.7953C51.3955 29.8313 51.3955 30.8646 51.3955 31.9356H65.6952C66.2711 27.5009 68.4185 24.0404 72.323 21.7853C74.9556 20.2295 78.0696 19.6996 81.0686 20.2972C87.5592 21.527 91.9885 27.065 91.819 33.6686C91.6602 39.7905 86.7708 45.1401 80.7376 46.125C75.0866 47.0507 66.7016 43.391 65.6495 34.3844H51.3874V37.4386C51.3874 40.073 49.9801 41.4912 47.3671 41.4939H34.8004V48.8859C36.5845 49.338 38.3982 49.7981 40.2092 50.2529C42.1521 50.7427 44.0976 51.2217 46.0378 51.7114C47.978 52.2012 48.936 53.3717 49.0302 55.4142C49.0302 55.5084 49.0544 55.5998 49.0678 55.7263H53.8147C54.3959 51.262 56.5621 47.7907 60.5044 45.5384C63.1219 44.0059 66.2111 43.4879 69.1854 44.0826C75.7271 45.3392 80.1107 50.8557 79.9492 57.5373C79.7958 63.5489 74.8956 68.9416 68.9459 69.9157C62.6356 70.9221 54.6569 66.6489 53.7662 58.1724ZM44.251 64.0414H41.8911V53.1295L39.4961 52.5348V64.0333H37.1227V51.924L34.7277 51.3401V64.044H32.3812V56.2349C32.3812 50.2431 32.3812 44.2503 32.3812 38.2567C32.3812 37.3067 31.9614 36.7632 31.2268 36.7417C30.4922 36.7201 30.0132 37.2798 30.0051 38.2674V64.036H27.6909C27.6711 63.9994 27.6557 63.9605 27.6452 63.9203C27.6452 62.1362 27.6452 60.3521 27.6183 58.5707C27.5833 56.4313 25.9122 54.6688 23.8778 54.5827C23.0248 54.545 22.6723 55.0374 23.0329 55.799C23.3935 56.5605 23.7675 57.3113 24.1631 58.054C24.9274 59.478 25.3051 61.0776 25.2583 62.6932C25.2206 64.2782 25.2583 65.8631 25.2583 67.4481C25.2395 68.8228 25.7011 70.1608 26.5634 71.2316C27.3922 72.2811 28.213 73.3386 29.0794 74.3558C29.2959 74.5971 29.596 74.7472 29.919 74.7756C33.9321 74.8025 37.9443 74.8025 41.9556 74.7756C42.2816 74.7574 42.5885 74.616 42.8141 74.38C43.6967 73.344 44.5363 72.2703 45.3785 71.1993C46.149 70.2781 46.5877 69.1248 46.6244 67.9244C46.6657 63.714 46.6657 59.5035 46.6244 55.2931C46.6013 55.0807 46.5323 54.8759 46.4221 54.6928C46.312 54.5098 46.1634 54.3528 45.9867 54.2328C45.5077 53.9637 44.8969 53.9018 44.2591 53.7296L44.251 64.0414ZM34.7923 39.0424C34.8507 39.0701 34.9121 39.0909 34.9753 39.1043C39.2378 39.1043 43.4976 39.1043 47.7573 39.1043C48.5646 39.1043 49.014 38.6172 49.0167 37.775C49.0275 34.7252 49.0275 31.6755 49.0167 28.6257C49.0167 27.6543 48.5781 27.2157 47.6066 27.2157H21.9161C20.9447 27.2157 20.5088 27.6543 20.5061 28.6257C20.5061 31.6468 20.5061 34.6687 20.5061 37.6916C20.5061 38.6603 20.9474 39.0962 21.9161 39.1016C23.6491 39.1016 25.383 39.1016 27.1177 39.1016C27.2793 39.0917 27.4402 39.0719 27.5994 39.0424C27.812 35.8133 28.9449 34.3494 31.2026 34.3494C33.4603 34.3494 34.5636 35.8187 34.7977 39.0424H34.7923ZM44.2107 91.3976C44.2107 88.4779 44.2779 85.6066 44.1864 82.7408C44.0905 80.9521 43.5782 79.2106 42.6903 77.6549C42.6295 77.4976 42.5198 77.3641 42.3774 77.2739C42.2349 77.1838 42.0672 77.1419 41.8991 77.1544C37.9111 77.1732 33.9232 77.1544 29.9352 77.184C29.7906 77.1974 29.6512 77.2443 29.528 77.3209C29.4047 77.3975 29.3009 77.5017 29.2247 77.6253C28.7404 78.7824 28.1161 79.9395 27.9412 81.1558C27.6721 83.0798 27.6721 85.0469 27.6156 86.9979C27.5698 88.451 27.6156 89.9068 27.6156 91.3976H44.2107ZM87.2282 39.5537C90.2286 35.9424 90.5058 29.5245 86.0281 25.3347C83.975 23.4218 81.2511 22.3946 78.4462 22.4757C75.6413 22.5568 72.9812 23.7396 71.0421 25.7679C66.9169 30.0546 67.4712 36.3084 70.2133 39.4487C70.8511 38.6415 71.4269 37.7723 72.1643 37.0592C72.9016 36.3461 73.8354 35.7702 74.6776 35.1352C72.21 32.1024 72.1885 28.8572 74.6588 26.4918C75.7441 25.4525 77.184 24.8647 78.6866 24.8477C80.1891 24.8307 81.642 25.3858 82.7505 26.4003C85.3096 28.7361 85.3284 31.9356 82.7693 35.232C84.6852 36.1505 86.2503 37.6674 87.2282 39.5537V39.5537ZM62.8859 59.0066C59.8209 55.8178 60.8515 52.2254 62.5791 50.452C63.6114 49.3788 65.0094 48.7328 66.4958 48.642C67.9822 48.5513 69.4483 49.0226 70.6035 49.9623C71.7892 50.8926 72.5622 52.2512 72.7563 53.7458C73.0254 55.7963 72.3069 57.5131 70.8403 59.0093C72.7844 59.9229 74.3747 61.4498 75.3665 63.3552C78.7652 59.1654 78.1597 52.8013 74.0614 49.0366C72.0521 47.2095 69.4227 46.2158 66.7073 46.2573C63.9918 46.2988 61.394 47.3723 59.4414 49.26C55.257 53.2964 55.3297 59.5932 58.3893 63.3552C59.3682 61.4499 60.9489 59.9212 62.8859 59.0066V59.0066ZM74.7799 82.7865C71.7041 79.6085 72.7132 75.9542 74.5861 74.1217C75.6722 73.0462 77.1321 72.4325 78.6604 72.4089C80.1886 72.3853 81.6667 72.9538 82.7855 73.9952C85.3176 76.3471 85.3257 79.6946 82.7612 82.7865C84.6886 83.7231 86.264 85.2541 87.2551 87.1539C90.6807 82.8484 90.0214 76.4682 85.8289 72.7224C83.785 70.9133 81.1254 69.9564 78.3974 70.0485C75.6695 70.1406 73.0805 71.2747 71.1632 73.2175C66.96 77.4558 67.3959 83.6665 70.2806 87.1405C71.2561 85.2304 72.8388 83.6988 74.7799 82.7865V82.7865ZM85.4226 89.0376C84.9114 87.5843 83.9401 86.3374 82.6561 85.4861C81.3721 84.6347 79.8454 84.2255 78.3077 84.3204C75.4903 84.4738 72.7617 86.5781 72.1347 89.078C75.7594 92.2022 81.9244 92.1968 85.4226 89.0376ZM72.1105 41.5019C76.303 44.941 82.1988 44.3409 85.3876 41.4589C84.9124 40.0701 84.0114 38.8665 82.8129 38.0191C81.6143 37.1718 80.1791 36.7238 78.7114 36.739C75.7352 36.7497 72.9931 38.7168 72.1105 41.5019ZM60.2084 65.2496C64.2044 68.6671 70.3156 68.2096 73.5017 65.2092C73.0138 63.8339 72.1109 62.6441 70.9178 61.804C69.7246 60.9639 68.3 60.5151 66.8407 60.5196C65.3815 60.524 63.9596 60.9815 62.7716 61.8288C61.5835 62.676 60.6879 63.8714 60.2084 65.2496V65.2496ZM82.3145 30.8054C82.3193 30.0989 82.114 29.407 81.7246 28.8175C81.3352 28.228 80.7793 27.7676 80.1276 27.4948C79.476 27.222 78.7579 27.1491 78.0647 27.2853C77.3714 27.4216 76.7344 27.7609 76.2344 28.26C75.7345 28.7592 75.3942 29.3958 75.2569 30.0888C75.1196 30.7818 75.1914 31.5 75.4633 32.1521C75.7351 32.8042 76.1947 33.3607 76.7836 33.751C77.3724 34.1413 78.0641 34.3477 78.7706 34.344C79.706 34.337 80.6013 33.9632 81.2641 33.303C81.9268 32.6428 82.304 31.7489 82.3145 30.8135V30.8054ZM70.4259 54.5934C70.4286 53.8874 70.2214 53.1965 69.8307 52.6084C69.44 52.0204 68.8834 51.5616 68.2315 51.2905C67.5796 51.0193 66.8619 50.9479 66.1693 51.0854C65.4768 51.2229 64.8408 51.563 64.3419 52.0626C63.8431 52.5623 63.5039 53.1988 63.3675 53.8915C63.231 54.5843 63.3035 55.3019 63.5756 55.9534C63.8478 56.6049 64.3074 57.1608 64.896 57.5506C65.4847 57.9404 66.1759 58.1465 66.8819 58.1428C67.8204 58.135 68.7181 57.7584 69.3812 57.0943C70.0443 56.4302 70.4196 55.5319 70.4259 54.5934V54.5934ZM78.7356 81.9281C79.4423 81.9334 80.1348 81.7286 80.7249 81.3396C81.315 80.9506 81.7762 80.395 82.0498 79.7433C82.3235 79.0917 82.3973 78.3734 82.2619 77.6797C82.1265 76.986 81.788 76.3482 81.2894 75.8473C80.7908 75.3463 80.1545 75.0049 79.4614 74.8664C78.7683 74.7278 78.0497 74.7984 77.3968 75.0691C76.7439 75.3398 76.1862 75.7984 75.7945 76.3868C75.4029 76.9751 75.1949 77.6666 75.197 78.3734C75.2067 79.3096 75.5824 80.2048 76.2437 80.8676C76.905 81.5304 77.7994 81.9081 78.7356 81.92V81.9281Z" fill="black"/>
<path d="M34.7979 39.0424C34.5746 35.8133 33.4524 34.3628 31.1947 34.3602C28.937 34.3575 27.8041 35.8348 27.5915 39.0532C27.4323 39.0827 27.2715 39.1024 27.1099 39.1124C25.3769 39.1124 23.643 39.1124 21.9082 39.1124C20.9395 39.1124 20.5009 38.6711 20.4982 37.7023C20.4874 34.6795 20.4874 31.6575 20.4982 28.6365C20.4982 27.6651 20.9368 27.2264 21.9082 27.2264H47.6149C48.5863 27.2264 49.0223 27.6651 49.025 28.6365C49.025 31.6862 49.025 34.736 49.025 37.7857C49.025 38.628 48.5783 39.1124 47.7656 39.1151C43.5058 39.1151 39.246 39.1151 34.9836 39.1151C34.919 39.0984 34.8567 39.074 34.7979 39.0424Z" fill="#746EE9"/>
</svg>
