<svg width="70" height="69" viewBox="0 0 70 69" fill="none" xmlns="http://www.w3.org/2000/svg">
<path d="M69.6126 30.2231C68.0183 31.6367 66.501 33.1327 64.8296 34.4454C63.2287 35.6766 61.982 37.3093 61.2158 39.1779C60.3628 41.2266 59.3159 43.1956 58.3806 45.2124C58.3257 45.3377 58.296 45.4726 58.2933 45.6094C58.2906 45.7462 58.3148 45.8821 58.3646 46.0095C59.9404 49.3018 57.9554 52.7562 54.2938 53.0538C54.2335 53.0672 54.1741 53.0841 54.1157 53.1043C53.8181 56.006 52.2238 57.672 49.269 57.9696C48.9661 61.0839 46.9705 62.6304 44.4249 62.8244C44.215 67.2513 39.0892 69.2734 35.8793 66.0688C34.5188 67.6631 32.8528 68.5533 30.7111 68.0325C28.5693 67.5117 27.4214 66.0608 27.0069 63.8793C26.5866 63.9045 26.1651 63.9045 25.7447 63.8793C24.6602 63.7682 23.648 63.2833 22.882 62.5075C22.1159 61.7318 21.6437 60.7136 21.5463 59.6277C21.5091 59.3036 21.5091 59.0538 21.0521 58.9927C18.2434 58.6207 16.6278 56.7022 16.6943 53.8775C16.6943 53.7872 16.6943 53.6968 16.6943 53.5693C16.5481 53.5268 16.4046 53.4763 16.2585 53.4444C15.4723 53.2882 14.7383 52.9362 14.1245 52.4208C13.5106 51.9054 13.0368 51.2434 12.7469 50.4962C12.457 49.7489 12.3604 48.9406 12.4661 48.1461C12.5718 47.3515 12.8763 46.5966 13.3515 45.9511C13.6172 45.5711 13.6332 45.3506 13.3515 44.9759C11.5366 42.5711 9.76693 40.1318 7.94408 37.735C7.50822 37.2218 7.02121 36.7544 6.49059 36.34C4.76075 34.8227 3.0123 33.332 1.27714 31.8386C0.32852 31.0202 0.275376 30.4091 1.07254 29.4206C5.18058 24.3276 9.2904 19.2364 13.402 14.147C14.154 13.2196 14.6907 13.1372 15.7217 13.7909C17.8289 15.1195 19.9201 16.4853 22.0459 17.79C22.6712 18.1752 23.3438 18.478 24.0468 18.6908C26.1353 19.3046 28.2425 19.8626 30.3497 20.41C30.6925 20.4933 31.0507 20.4887 31.3913 20.3967C33.2327 19.8971 35.0742 19.3949 36.8944 18.821C38.0288 18.466 39.2136 18.299 40.4019 18.3267C42.9209 18.3639 45.4506 18.348 47.959 18.3267C48.3108 18.3195 48.6545 18.2196 48.9554 18.0371C51.1848 16.6447 53.3956 15.2231 55.6144 13.8121C56.7039 13.1186 57.2327 13.209 58.0218 14.232C61.7118 19.015 65.4009 23.8059 69.0891 28.6048L69.6206 29.2798L69.6126 30.2231ZM34.192 56.9333C34.2265 56.9599 34.2611 57.0051 34.3009 57.0104C35.011 57.1433 35.6819 57.4347 36.2637 57.863C36.8454 58.2914 37.3229 58.8455 37.6606 59.4841C37.9983 60.1227 38.1875 60.8293 38.214 61.5512C38.2405 62.2732 38.1037 62.9917 37.8138 63.6534C37.7884 63.7314 37.7815 63.8142 37.7935 63.8954C37.8054 63.9765 37.836 64.0537 37.8829 64.1211C38.4754 64.7455 39.1929 65.0697 40.0671 64.8438C41.6295 64.4399 42.1424 62.5852 41.0051 61.3629C40.0246 60.3 38.9564 59.3381 37.9945 58.2699C37.6679 57.9194 37.4833 57.4601 37.4763 56.9812C37.5135 56.6012 37.9094 56.1441 38.2735 55.9342C38.7651 55.6472 39.3364 55.812 39.7509 56.2371C40.7819 57.2735 41.8102 58.3115 42.8359 59.3514C43.0893 59.6411 43.4187 59.8542 43.7868 59.9664C44.155 60.0786 44.5472 60.0856 44.9191 59.9865C46.5374 59.5719 46.9997 57.672 45.7721 56.4045C43.9865 54.5658 42.1689 52.7589 40.3647 50.936C40.202 50.7813 40.0485 50.6171 39.905 50.4444C39.7074 50.1829 39.6122 49.8583 39.6372 49.5315C39.6621 49.2047 39.8056 48.8983 40.0405 48.6699C40.2755 48.4414 40.5858 48.3067 40.9132 48.2909C41.2405 48.2752 41.5624 48.3795 41.8182 48.5844C41.9893 48.7297 42.1516 48.885 42.3045 49.0494C44.0759 50.8403 45.8474 52.6313 47.6189 54.4223C48.2274 55.0414 48.9289 55.3762 49.8031 55.1317C51.424 54.6827 51.8571 52.8014 50.6215 51.5445C47.9643 48.8377 45.2912 46.1362 42.6021 43.44C42.3496 43.1743 42.0839 42.9405 41.858 42.6615C41.6392 42.3999 41.5293 42.0643 41.5511 41.724C41.5728 41.3837 41.7246 41.0648 41.975 40.8333C42.2154 40.6086 42.5298 40.4797 42.8587 40.4709C43.1877 40.4621 43.5085 40.574 43.7606 40.7855C43.9655 40.9607 44.1598 41.1479 44.3425 41.3461C47.0476 44.0778 49.7526 46.8102 52.4577 49.5436C53.4621 50.556 54.7455 50.6065 55.6171 49.7217C56.4886 48.8368 56.3983 47.5959 55.4072 46.6101C50.2256 41.4267 45.0387 36.247 39.8465 31.0707C39.5878 30.8399 39.2618 30.6983 38.9165 30.6668C37.3062 30.5207 35.688 30.4489 34.0777 30.3001C33.8864 30.2569 33.6858 30.2831 33.512 30.3741C33.3382 30.4652 33.2025 30.6151 33.1291 30.797C32.13 32.6181 31.099 34.4303 30.0361 36.2337C29.5248 37.1456 28.7267 37.8632 27.7657 38.275C26.8047 38.6868 25.7347 38.7697 24.7217 38.5109C21.6048 37.7137 20.1593 34.3152 21.7509 31.4454C23.3081 28.6367 24.913 25.8652 26.4967 23.0592C26.6269 22.8307 26.7624 22.5942 26.9033 22.3072C25.7394 21.9857 24.634 21.6961 23.5419 21.3666C23.3606 21.2901 23.1578 21.2813 22.9705 21.3418C22.7832 21.4023 22.6239 21.528 22.5215 21.6961C19.9414 24.8847 17.3373 28.0282 14.7412 31.1903L10.4179 36.4808L15.6394 43.5144C18.3125 41.2957 22.6491 42.1858 23.6243 46.3311C25.0911 46.1185 26.4755 46.3311 27.6659 47.3169C28.8563 48.3027 29.3798 49.5782 29.4356 51.0715C32.8156 51.3293 34.6411 53.8935 34.192 56.9333ZM56.098 43.6473C57.3283 41.0751 58.439 38.7208 59.5843 36.3851C59.6946 36.2096 59.7415 36.0016 59.7174 35.7957C59.6932 35.5898 59.5994 35.3984 59.4514 35.2532C55.8252 30.6704 52.2114 26.076 48.61 21.4702C48.5019 21.3187 48.356 21.1982 48.1867 21.1208C48.0174 21.0433 47.8308 21.0117 47.6454 21.0291C44.967 21.0451 42.2912 21.0291 39.6154 21.0451C39.1908 21.0448 38.7682 21.1011 38.3585 21.2125C35.4444 22.0415 32.5348 22.8874 29.6296 23.7501C29.3437 23.8486 29.1 24.0417 28.9387 24.2975C28.0724 25.7669 27.2434 27.2603 26.4011 28.7457C25.6384 30.0955 24.8572 31.4321 24.1159 32.7952C23.4834 33.9618 23.9033 35.2346 25.0432 35.7501C26.0477 36.2071 27.1504 35.8298 27.7509 34.7881C28.9467 32.7022 30.1424 30.6137 31.2983 28.5092C31.7022 27.7731 32.231 27.4303 33.0893 27.5021C35.308 27.6828 37.5294 27.8263 39.7509 27.9618C40.3802 27.9958 40.9713 28.2742 41.3983 28.7377C46.1105 33.4728 50.8297 38.2 55.556 42.9192C55.7521 43.1519 55.9331 43.3969 56.098 43.6526V43.6473ZM14.9644 16.5172L3.75898 30.4091L8.54195 34.5091L20.4436 20.0088L14.9644 16.5172ZM50.9032 20.022C54.501 24.5924 58.0564 29.1177 61.633 33.6641L66.4 29.5561C63.036 25.1823 59.7225 20.8803 56.377 16.5358L50.9032 20.022ZM21.464 56.3992C21.8705 56.2318 22.3701 56.1627 22.6677 55.8837C23.9113 54.7146 25.1415 53.5241 26.2841 52.2593C26.9989 51.4621 26.8156 50.2186 26.0556 49.5091C25.6943 49.1621 25.2159 48.9633 24.715 48.952C24.2141 48.9407 23.7273 49.1177 23.3506 49.448C22.1495 50.5675 20.9883 51.727 19.867 52.9263C19.2797 53.5534 19.2319 54.3558 19.6013 55.1317C19.9706 55.9076 20.5871 56.2637 21.464 56.3992ZM29.3001 53.8191C29.0583 53.9254 28.5428 54.0131 28.2372 54.3107C27.0202 55.4426 25.8457 56.6145 24.7004 57.8288C24.0043 58.5755 24.0999 59.8111 24.7934 60.5392C25.5295 61.3098 26.7545 61.4692 27.5383 60.7517C28.7793 59.6145 29.9723 58.4161 31.1123 57.1751C31.6836 56.5534 31.7234 55.7429 31.3275 54.9643C30.9475 54.2389 30.3231 53.8961 29.3001 53.8191ZM35.4887 61.4107C35.4577 61.0718 35.3342 60.7479 35.1318 60.4743C34.9294 60.2006 34.6558 59.9878 34.3408 59.8589C33.9932 59.6679 33.5944 59.5908 33.2006 59.6384C32.8068 59.6861 32.4379 59.8562 32.1459 60.1246C31.4538 60.7286 30.8039 61.3794 30.2009 62.0724C29.927 62.3765 29.7574 62.7601 29.7168 63.1673C29.6761 63.5745 29.7666 63.9841 29.975 64.3363C30.1474 64.6936 30.4247 64.9898 30.7699 65.1854C31.1151 65.381 31.5117 65.4667 31.9068 65.4311C33.2009 65.3886 35.4993 62.9705 35.4887 61.4107V61.4107ZM20.9059 46.9024C20.8968 46.5481 20.7866 46.2039 20.5885 45.9101C20.3903 45.6164 20.1123 45.3854 19.7873 45.2443C19.4414 45.0492 19.0433 44.9668 18.6484 45.0087C18.2536 45.0507 17.8816 45.2147 17.5844 45.4781C16.8742 46.0958 16.2075 46.7616 15.5889 47.471C15.3247 47.7684 15.1605 48.1413 15.1195 48.537C15.0785 48.9326 15.1628 49.3312 15.3604 49.6765C15.5221 50.0256 15.7829 50.3195 16.1102 50.5217C16.4376 50.7239 16.8172 50.8255 17.2018 50.8138C18.4799 50.8403 20.89 48.3931 20.9059 46.9024V46.9024Z" fill="black"/>
<path d="M42.347 15.9804C41.9113 15.643 41.4888 15.4224 41.223 15.0796C41.0745 14.8773 40.998 14.631 41.0057 14.3801C41.0134 14.1292 41.1049 13.8881 41.2655 13.6952C41.4126 13.4951 41.5771 13.3083 41.7571 13.1372C44.6163 10.2763 47.4763 7.41625 50.3373 4.55709C50.4916 4.39469 50.6567 4.24289 50.8315 4.10271C51.0811 3.89151 51.3997 3.77974 51.7265 3.78878C52.0533 3.79782 52.3653 3.92703 52.6028 4.1517C52.8403 4.37637 52.9867 4.68072 53.0138 5.00652C53.041 5.33233 52.947 5.6567 52.75 5.91759C52.6345 6.08346 52.5027 6.23745 52.3567 6.37728C49.4338 9.30198 46.5109 12.2249 43.5879 15.1461C43.1988 15.459 42.7837 15.7382 42.347 15.9804V15.9804Z" fill="black"/>
<path d="M29.1061 14.1523C29.138 15.3719 28.1124 16.0655 27.2302 15.6589C27.0094 15.5506 26.8097 15.404 26.6403 15.2258C23.6589 12.2603 20.6855 9.2949 17.7359 6.30288C17.4242 5.9896 17.2267 5.58065 17.1753 5.14168C17.1221 4.11866 18.3312 3.49421 19.2107 4.0416C19.3948 4.1695 19.5649 4.31646 19.7182 4.48004C22.6288 7.38525 25.5366 10.2949 28.4418 13.209C28.6938 13.5007 28.9164 13.8167 29.1061 14.1523V14.1523Z" fill="black"/>
<path d="M36.4135 10.5969C36.4135 11.8086 36.4135 13.023 36.4135 14.2347C36.4135 15.1647 35.882 15.7679 35.0849 15.7811C34.2877 15.7944 33.7137 15.1833 33.7111 14.2187C33.7111 11.8148 33.7111 9.41093 33.7111 7.00705C33.7111 6.05045 34.2664 5.41272 35.0689 5.41272C35.8714 5.41272 36.3975 6.05045 36.4108 7.00705C36.4135 8.21608 36.4135 9.41713 36.4135 10.5969Z" fill="black"/>
<path d="M35.0609 2.69438C34.7931 2.69266 34.5318 2.61112 34.3105 2.46016C34.0891 2.30921 33.9179 2.0957 33.8185 1.84691C33.7191 1.59813 33.6962 1.32537 33.7526 1.06349C33.809 0.801601 33.9422 0.562482 34.1352 0.376681C34.3282 0.190881 34.5722 0.0668364 34.8361 0.0203971C35.0999 -0.0260422 35.3716 0.00723239 35.6164 0.11597C35.8612 0.224707 36.0681 0.403968 36.2106 0.630851C36.353 0.857733 36.4246 1.12193 36.4161 1.38969C36.4031 1.74029 36.2545 2.07215 36.0018 2.31547C35.749 2.5588 35.4118 2.69463 35.0609 2.69438Z" fill="black"/>
<path d="M14.9644 16.5172L20.4356 20.0008L8.53398 34.5012L3.75897 30.4091L14.9644 16.5172Z" fill="#746EE9"/>
<path d="M50.9031 20.0221L56.377 16.5385C59.7224 20.8803 63.036 25.1824 66.4 29.5588L61.6329 33.6668C58.0563 29.1177 54.501 24.5925 50.9031 20.0221Z" fill="#746EE9"/>
</svg>
