<svg width="149" height="128" viewBox="0 0 149 128" fill="none" xmlns="http://www.w3.org/2000/svg">
<path d="M91.1804 99.5983C91.9719 101.982 92.6852 104.217 93.4854 106.426C93.5724 106.67 94.1247 106.861 94.4683 106.861C96.6428 106.9 98.8173 106.861 100.992 106.883C102.623 106.883 103.253 107.527 103.266 109.175C103.266 110.658 103.266 112.141 103.266 113.624C103.266 115.407 102.653 116.012 100.857 116.012H50.9736C49.0382 116.012 48.4729 115.442 48.4685 113.493C48.4685 111.971 48.4685 110.449 48.4685 108.927C48.4903 107.579 49.1687 106.9 50.5256 106.887C52.7697 106.887 55.0138 106.857 57.2579 106.887C57.5083 106.927 57.7641 106.867 57.9712 106.721C58.1783 106.575 58.3202 106.354 58.3669 106.104C59.0323 103.973 59.763 101.86 60.5414 99.5809H26.2928C21.8133 99.5809 19.2256 96.9715 19.2256 92.4876V24.4687C19.2256 19.9848 21.835 17.4015 26.3145 17.4015C59.3411 17.4015 92.3691 17.4015 125.399 17.4015C129.887 17.4015 132.474 19.9892 132.474 24.4817V92.5181C132.474 96.9976 129.865 99.5939 125.394 99.5939H91.1804V99.5983ZM128.765 55.8426H77.7332V86.7208H88.771C89.0868 84.7545 89.8472 82.8863 90.9943 81.2584C92.1414 79.6305 93.6449 78.2858 95.3903 77.3269C91.437 72.7169 91.2804 67.6372 94.9206 63.9623C96.5218 62.3271 98.6802 61.355 100.966 61.2398C103.252 61.1245 105.497 61.8745 107.254 63.3404C108.16 64.0733 108.911 64.9775 109.467 66.0014C110.022 67.0253 110.37 68.1487 110.49 69.3072C110.664 70.7344 110.499 72.1825 110.008 73.5338C109.517 74.885 108.713 76.1012 107.663 77.0833C109.107 78.5272 110.708 79.758 111.821 81.3367C112.934 82.9154 113.534 84.8159 114.43 86.7556H128.76L128.765 55.8426ZM58.1538 77.353C59.9003 78.3078 61.4051 79.6495 62.5532 81.2755C63.7012 82.9015 64.4621 84.7685 64.7774 86.7338H73.9104V55.8209H22.9571V86.7382H39.0702C40.0009 84.7768 40.6272 82.8545 41.7449 81.2845C42.8626 79.7145 44.463 78.5011 45.8721 77.1138C42.0232 72.3298 41.958 67.3502 45.8721 63.6796C47.5477 62.123 49.7464 61.2518 52.0334 61.2381C54.3204 61.2244 56.5293 62.0693 58.2234 63.6057C62.2202 67.2458 62.1984 72.1907 58.1538 77.353ZM95.3729 42.6476C91.4326 37.5984 91.2935 32.8928 94.938 29.2265C96.5191 27.6201 98.6407 26.6585 100.891 26.5283C103.141 26.3982 105.359 27.1087 107.115 28.522C108.905 29.9113 110.091 31.9356 110.429 34.1757C110.969 37.5071 109.773 40.2644 107.433 42.6085C109.19 43.562 110.705 44.9058 111.862 46.5366C113.018 48.1674 113.785 50.0417 114.104 52.0155H128.821V24.5948C128.821 21.9854 127.891 21.0547 125.233 21.0547H77.7506V52.0459H88.758C89.0699 50.0783 89.8282 48.2083 90.9749 46.5792C92.1215 44.9501 93.6259 43.6052 95.3729 42.6476V42.6476ZM64.7644 52.0285H73.9365V21.0503H26.2493C23.8617 21.0503 22.8788 22.0463 22.8788 24.4643V50.9587C22.8788 51.324 22.9136 51.6893 22.931 52.0416H39.4573C39.7705 50.0755 40.5294 48.2072 41.6759 46.5797C42.8225 44.9522 44.3263 43.6087 46.0722 42.652C42.0363 37.6158 41.9884 32.6492 45.8982 28.983C47.5735 27.4246 49.7728 26.5518 52.0608 26.5373C54.3488 26.5228 56.5589 27.3677 58.2538 28.9047C62.2332 32.5448 62.2158 37.5158 58.1625 42.6563C59.9057 43.6105 61.4072 44.9513 62.5516 46.5759C63.696 48.2006 64.4529 50.0658 64.7644 52.0285ZM22.8788 90.5349V92.0527C22.8788 95.184 23.6573 95.9668 26.7929 95.9668H124.933C125.368 95.9668 125.768 95.9668 126.186 95.9668C126.859 95.9432 127.5 95.6695 127.982 95.199C128.465 94.7286 128.755 94.0953 128.795 93.4227C128.86 92.4876 128.795 91.5439 128.795 90.5523L22.8788 90.5349ZM89.7365 106.896C89.0189 104.721 88.297 102.682 87.6838 100.616C87.4446 99.8027 87.0488 99.5896 86.2355 99.5939C79.9599 99.6287 73.6799 99.6157 67.4042 99.6157C64.3903 99.6157 64.3903 99.6157 63.4379 102.464C62.9508 103.913 62.4768 105.365 61.9723 106.896H89.7365ZM60.9372 52.0981C60.4284 48.0579 56.3751 44.7917 51.9825 44.8352C47.7118 44.8787 43.6846 48.2275 43.2845 52.0981H60.9372ZM110.299 52.0981C109.88 49.968 108.708 48.0597 106.999 46.7216C105.29 45.3834 103.156 44.7046 100.987 44.8091C96.882 44.97 93.0896 48.2275 92.5895 52.059L110.299 52.0981ZM60.9502 86.7556C60.2979 82.5022 56.1663 79.31 51.6129 79.5188C47.503 79.7014 43.5063 83.185 43.3105 86.7556H60.9502ZM110.26 86.7556C109.703 82.6414 105.632 79.4101 101.179 79.5014C96.9646 79.5884 92.9461 82.9806 92.6112 86.7556H110.26ZM101.448 41.1385C102.533 41.1333 103.592 40.8058 104.491 40.1977C105.389 39.5896 106.087 38.7282 106.495 37.723C106.903 36.7177 107.004 35.6139 106.783 34.5515C106.563 33.4892 106.032 32.5162 105.258 31.7561C104.484 30.996 103.501 30.483 102.435 30.2823C101.369 30.0815 100.267 30.2021 99.2693 30.6286C98.2717 31.0551 97.4233 31.7684 96.8318 32.6779C96.2403 33.5874 95.9323 34.6522 95.9469 35.737C95.9709 37.1794 96.5614 38.5545 97.5908 39.5652C98.6202 40.5759 100.006 41.141 101.448 41.1385V41.1385ZM57.5754 35.6109C57.5651 34.5304 57.2353 33.4772 56.6277 32.5837C56.02 31.6903 55.1615 30.9966 54.1604 30.59C53.1593 30.1835 52.0603 30.0822 51.0017 30.299C49.9432 30.5158 48.9724 31.0409 48.2117 31.8082C47.451 32.5756 46.9343 33.5509 46.7267 34.6113C46.5192 35.6717 46.63 36.7698 47.0452 37.7673C47.4605 38.7649 48.1616 39.6173 49.0603 40.2171C49.959 40.817 51.0151 41.1376 52.0956 41.1385C52.8189 41.1374 53.5349 40.9933 54.2024 40.7145C54.8698 40.4357 55.4756 40.0278 55.9848 39.5141C56.4941 39.0004 56.8967 38.3911 57.1697 37.7213C57.4427 37.0514 57.5805 36.3342 57.5754 35.6109V35.6109ZM57.5754 70.4032C57.5813 69.3227 57.2673 68.2647 56.6731 67.3622C56.0789 66.4598 55.2309 65.7534 54.236 65.3318C53.2412 64.9103 52.1438 64.7926 51.0821 64.9935C50.0205 65.1943 49.042 65.7048 48.2698 66.4607C47.4977 67.2165 46.9665 68.1839 46.743 69.241C46.5195 70.2982 46.6138 71.3978 47.014 72.4014C47.4142 73.4051 48.1024 74.2679 48.9919 74.8812C49.8815 75.4946 50.9326 75.831 52.013 75.8482C52.7363 75.8568 53.4543 75.7226 54.1257 75.4532C54.797 75.1837 55.4086 74.7845 55.9254 74.2782C56.4421 73.772 56.8539 73.1687 57.137 72.503C57.4202 71.8373 57.5691 71.1222 57.5754 70.3989V70.4032ZM106.893 70.4032C106.899 69.3225 106.585 68.2643 105.991 67.3618C105.397 66.4592 104.548 65.7528 103.553 65.3314C102.558 64.91 101.46 64.7925 100.399 64.9937C99.3369 65.1949 98.3584 65.7058 97.5864 66.4621C96.8144 67.2184 96.2835 68.1862 96.0605 69.2436C95.8375 70.301 95.9324 71.4008 96.3333 72.4044C96.7341 73.408 97.423 74.2705 98.3131 74.8833C99.2033 75.4962 100.255 75.8319 101.335 75.8482C102.059 75.8568 102.776 75.7225 103.447 75.4531C104.119 75.1836 104.73 74.7843 105.246 74.278C105.763 73.7716 106.174 73.1683 106.457 72.5027C106.739 71.837 106.888 71.122 106.893 70.3989V70.4032ZM99.5479 110.641H52.1434V112.328H99.5479V110.641Z" fill="black"/>
<path d="M128.765 55.8426V86.7556H114.434C113.534 84.8333 112.925 82.911 111.825 81.3367C110.725 79.7623 109.111 78.5272 107.667 77.0833C108.717 76.1012 109.521 74.885 110.012 73.5338C110.503 72.1825 110.668 70.7344 110.494 69.3072C110.374 68.1487 110.026 67.0253 109.471 66.0014C108.916 64.9775 108.164 64.0733 107.259 63.3404C105.501 61.8745 103.256 61.1245 100.97 61.2398C98.6843 61.355 96.5259 62.3271 94.9247 63.9623C91.2845 67.6372 91.4454 72.7169 95.3943 77.3269C93.649 78.2858 92.1455 79.6305 90.9984 81.2584C89.8513 82.8863 89.0909 84.7545 88.7751 86.7208H77.7329V55.8426H128.765Z" fill="white"/>
<path d="M58.1542 77.353C62.1988 72.1907 62.2205 67.2458 58.2412 63.6057C56.5471 62.0693 54.3381 61.2244 52.0512 61.2381C49.7642 61.2518 47.5655 62.123 45.8899 63.6796C41.9758 67.3502 42.0236 72.3211 45.8899 77.1138C44.4808 78.5011 42.876 79.7232 41.7627 81.2845C40.6493 82.8458 40.0231 84.7637 39.088 86.7382H22.9966V55.8209H73.9325V86.7338H64.7995C64.4818 84.7665 63.7177 82.8982 62.5658 81.272C61.4138 79.6459 59.9047 78.3053 58.1542 77.353V77.353Z" fill="white"/>
<path d="M95.3728 42.6477C93.6264 43.6048 92.1222 44.949 90.9757 46.5773C89.8291 48.2056 89.0704 50.0748 88.7579 52.0416H77.7505V21.0504H125.233C127.891 21.0504 128.821 21.9637 128.821 24.5905V52.0329H114.095C113.777 50.0592 113.01 48.1848 111.853 46.554C110.696 44.9232 109.181 43.5794 107.424 42.6259C109.764 40.2687 110.96 37.5245 110.42 34.1931C110.082 31.953 108.896 29.9287 107.106 28.5394C105.351 27.1261 103.132 26.4156 100.882 26.5458C98.6319 26.676 96.5103 27.6376 94.9292 29.2439C91.2934 32.8928 91.4195 37.5984 95.3728 42.6477Z" fill="white"/>
<path d="M64.7643 52.0285C64.4528 50.0631 63.6944 48.1953 62.5476 46.569C61.4008 44.9427 59.8962 43.6011 58.1495 42.6477C62.2028 37.5071 62.2202 32.5361 58.2408 28.896C56.5459 27.359 54.3358 26.5141 52.0477 26.5286C49.7597 26.5431 47.5605 27.4159 45.8852 28.9743C41.971 32.6492 42.0232 37.6071 46.0591 42.6433C44.3133 43.6 42.8095 44.9435 41.6629 46.571C40.5163 48.1985 39.7574 50.0668 39.4443 52.0329H22.9179C22.9179 51.6806 22.8657 51.3153 22.8657 50.95V24.4687C22.8657 22.0506 23.8486 21.0547 26.2362 21.0547H73.9365V52.0329L64.7643 52.0285Z" fill="white"/>
<path d="M22.8788 90.5349H128.821C128.821 91.5265 128.874 92.4702 128.821 93.4052C128.781 94.0779 128.491 94.7112 128.008 95.1816C127.526 95.652 126.885 95.9258 126.212 95.9494C125.777 95.9755 125.377 95.9494 124.959 95.9494H26.7843C23.6573 95.9494 22.8701 95.171 22.8701 92.0353L22.8788 90.5349Z" fill="white"/>
<path d="M89.7372 106.879H61.9729C62.4774 105.348 62.9514 103.895 63.4385 102.447C64.391 99.5939 64.391 99.5983 67.4048 99.5983C73.6805 99.5983 79.9605 99.5983 86.2362 99.5765C87.0494 99.5765 87.4452 99.7853 87.6844 100.599C88.2976 102.664 89.0196 104.704 89.7372 106.879Z" fill="white"/>
<path d="M60.9376 52.0633H43.2805C43.685 48.1927 47.7122 44.8439 51.9786 44.8004C56.3755 44.7569 60.4288 48.0231 60.9376 52.0633Z" fill="white"/>
<path d="M110.299 52.059H92.5854C93.0856 48.2275 96.878 44.97 100.983 44.8091C103.147 44.702 105.277 45.3747 106.987 46.7052C108.696 48.0356 109.872 49.9353 110.299 52.059V52.059Z" fill="#746EE9"/>
<path d="M60.9502 86.7556H43.3105C43.5063 83.185 47.503 79.7014 51.6129 79.5188C56.1576 79.31 60.2979 82.5022 60.9502 86.7556Z" fill="#746EE9"/>
<path d="M110.26 86.7643H92.6116C92.9464 82.9893 96.9606 79.597 101.179 79.5101C105.633 79.4187 109.686 82.6501 110.26 86.7643Z" fill="white"/>
<path d="M101.449 41.1385C100.368 41.1444 99.3099 40.8304 98.4074 40.236C97.5049 39.6416 96.7984 38.7934 96.377 37.7982C95.9556 36.8031 95.8381 35.7055 96.0393 34.6437C96.2406 33.5819 96.7515 32.6034 97.5077 31.8315C98.264 31.0595 99.2318 30.5286 100.289 30.3056C101.347 30.0826 102.446 30.1775 103.45 30.5784C104.454 30.9792 105.316 31.6681 105.929 32.5582C106.542 33.4483 106.878 34.4999 106.894 35.5805C106.902 36.3031 106.767 37.0202 106.498 37.6908C106.229 38.3614 105.83 38.9723 105.324 39.4885C104.818 40.0048 104.216 40.4162 103.551 40.6994C102.886 40.9825 102.172 41.1317 101.449 41.1385V41.1385Z" fill="#746EE9"/>
<path d="M57.5753 35.6109C57.5865 36.6966 57.2748 37.761 56.6796 38.6691C56.0844 39.5771 55.2327 40.2877 54.2327 40.7105C53.2328 41.1334 52.1296 41.2494 51.0636 41.0439C49.9975 40.8383 49.0166 40.3205 48.2455 39.5561C47.4745 38.7918 46.948 37.8155 46.7331 36.7513C46.5182 35.6871 46.6245 34.583 47.0386 33.5793C47.4526 32.5757 48.1557 31.7178 49.0584 31.1146C49.9612 30.5115 51.0229 30.1904 52.1086 30.192C53.5478 30.1998 54.9265 30.7718 55.9487 31.785C56.9708 32.7982 57.5549 34.1718 57.5753 35.6109Z" fill="white"/>
<path d="M57.5756 70.3988C57.5702 71.4845 57.2423 72.5441 56.6334 73.4429C56.0245 74.3418 55.1621 75.0393 54.1558 75.4469C53.1495 75.8545 52.0448 75.9537 50.982 75.732C49.9192 75.5103 48.9463 74.9776 48.1869 74.2017C47.4276 73.4258 46.916 72.4416 46.7173 71.3743C46.5185 70.3069 46.6416 69.2046 47.0708 68.2074C47.5 67.2101 48.216 66.363 49.1277 65.7736C50.0395 65.1842 51.1059 64.8792 52.1915 64.8973C53.6305 64.9269 55.0005 65.5197 56.0072 66.5484C57.0139 67.5771 57.577 68.9595 57.5756 70.3988V70.3988Z" fill="#746EE9"/>
<path d="M106.894 70.3988C106.889 71.4845 106.561 72.5441 105.952 73.4429C105.343 74.3418 104.48 75.0393 103.474 75.4469C102.468 75.8545 101.363 75.9537 100.3 75.732C99.2376 75.5103 98.2647 74.9776 97.5053 74.2017C96.7459 73.4258 96.2344 72.4416 96.0356 71.3743C95.8369 70.3069 95.9599 69.2046 96.3891 68.2074C96.8184 67.2101 97.5343 66.363 98.4461 65.7736C99.3579 65.1842 100.424 64.8792 101.51 64.8973C102.949 64.9269 104.319 65.5197 105.326 66.5484C106.332 67.5771 106.895 68.9595 106.894 70.3988V70.3988Z" fill="white"/>
<path d="M99.5481 110.636V112.324H52.1436V110.636H99.5481Z" fill="white"/>
<path d="M140.976 34.0223C132.479 17.8072 116.35 6.5717 98.9865 2.31483C82.4099 -1.74376 62.4528 -1.54547 49.9764 11.8264C41.7601 20.6312 38.4627 32.8901 31.2187 42.3985C27.6142 47.1256 23.1047 49.2876 18.3809 52.5946C6.87356 60.6574 -1.59222 73.6327 0.253175 88.3063C3.35548 112.84 25.7369 126.017 48.227 127.498C77.9516 129.452 99.1496 125.48 117.156 113.972C126.511 107.995 135.837 100.901 141.546 91.0856C150.181 76.2425 149.826 57.5199 144.242 41.583C143.336 38.9875 142.245 36.4608 140.976 34.0223V34.0223Z" fill="#746EE9" fill-opacity="0.07"/>
</svg>
